<svg xmlns="http://www.w3.org/2000/svg" width="300" height="90" viewBox="0 0 300 90"><g style="line-height:125%" font-weight="400" font-size="72.175" font-family="Boon" letter-spacing="0" word-spacing="0" fill="#fff" fill-opacity=".9"><path d="M57.91 16.253v47.762h-3.184L43.17 38.542 31.61 64.015h-3.184V42.787q0-1.945.885-3.714-.472.118-1.474.118-2.536 0-4.187-1.534Q22 36.124 22 33.707q0-2.418 1.651-3.951t4.187-1.533q2.535 0 4.186 1.533 1.651 1.533 1.651 3.95 0 1.416-.825 3.834-.826 2.417-.826 3.891v13.445q0 1.71-.177 3.007l10.32-23.056h2.004l10.32 22.879q-.178-1.297-.178-2.83V16.253h3.597zm-32.608 19.99q1.003.943 2.536.943 1.533 0 2.476-.944 1.003-1.002 1.003-2.535 0-1.533-1.003-2.477-.943-1.002-2.476-1.002t-2.536 1.002q-.943.944-.943 2.477t.943 2.535zm42.393 2.417q.59-4.658 4.305-7.843 3.715-3.184 9.847-3.184 6.368 0 10.26 3.302Q96 34.178 96 39.485v14.211q0 5.071-3.656 8.197-3.597 3.125-9.612 3.125-6.014 0-9.67-3.125-3.597-3.126-3.597-8.197v-5.425q0-2.417 1.651-3.95 1.651-1.534 4.187-1.534 2.535 0 4.186 1.534 1.651 1.533 1.651 3.95 0 2.418-1.65 3.951-1.652 1.533-4.187 1.533-1.12 0-2.359-.413.06.118.06.354 0 4.069 2.653 6.25 2.712 2.182 7.075 2.182 4.364 0 6.958-2.181 2.595-2.182 2.595-6.25V39.484q0-4.304-2.83-6.604-2.83-2.358-7.607-2.358-4.54 0-7.253 2.3-2.653 2.299-3.184 6.19l-3.715-.353zm10.083 7.135q-.943-1.003-2.476-1.003t-2.536 1.003q-.943.943-.943 2.476t.943 2.536q1.003.943 2.536.943 1.533 0 2.476-.943 1.003-1.003 1.003-2.536 0-1.533-1.003-2.476zm31.497 18.22V42.787q0-2.004.885-3.773-.708.177-1.474.177-2.536 0-4.187-1.534-1.65-1.533-1.65-3.95 0-2.418 1.65-3.951 1.651-1.533 4.187-1.533 2.535 0 4.186 1.533 1.651 1.533 1.651 3.95 0 1.652-.766 3.951-.767 2.3-.767 3.951V55.17q0 2.064-.118 5.366 7.194-6.958 15.567-7.194 1.239-1.12 1.239-2.3V28.637h3.774v21.817q0 1.77-2.005 3.125 2.064.413 3.302 1.887 1.238 1.415 1.238 3.48 0 2.417-1.65 3.95-1.652 1.533-4.188 1.533-2.535 0-4.186-1.533-1.651-1.533-1.651-3.95 0-1.652.825-2.95-6.958 1.593-12.441 8.02h-3.42zm23.351-7.547q-.943-1.003-2.477-1.003-1.533 0-2.535 1.003-.944.943-.944 2.476t.944 2.536q1.002.943 2.535.943 1.534 0 2.477-.943 1.003-1.003 1.003-2.536 0-1.533-1.003-2.476zM106.15 36.242q1.003.944 2.536.944 1.533 0 2.476-.944 1.003-1.002 1.003-2.535 0-1.533-1.003-2.477-.943-1.002-2.476-1.002t-2.536 1.002q-.943.944-.943 2.477t.943 2.535zm63.638 27.773V57.53q0-.53.059-7.901.058-7.43.058-9.612 0-4.01-1.297-6.486-1.297-2.536-3.715-2.83l-5.307 4.658h-1.061l-5.307-4.659q-2.418.295-3.774 2.83-1.356 2.477-1.356 6.487 0 5.012.649 9.258.707 4.186.707 5.72v4.068q.06.354.06.59 1.65-2.123 5.837-5.012 4.245-2.89 5.602-4.423-.767.236-1.887.236-2.536 0-4.187-1.533-1.651-1.533-1.651-3.95 0-2.418 1.651-3.951 1.651-1.534 4.187-1.534 2.535 0 4.186 1.534 1.651 1.533 1.651 3.95 0 2.595-1.356 4.835-1.356 2.241-3.42 3.892-2.005 1.592-4.128 3.066-2.063 1.475-3.891 3.362-1.77 1.886-2.359 3.891h-4.246q.59-4.422.59-7.194 0-2.771-.766-7.311-.708-4.54-.708-9.494 0-2.89.708-5.425.707-2.535 2.83-4.54 2.182-2.064 5.543-2.064l5.366 4.953 5.366-4.953q3.36 0 5.483 2.064 2.182 2.005 2.89 4.54.707 2.536.707 5.425v24h-3.714zm-8.256-21.522q-.943-1.003-2.476-1.003t-2.536 1.003q-.943.943-.943 2.476t.943 2.536q1.003.943 2.536.943 1.533 0 2.476-.943 1.003-1.003 1.003-2.536 0-1.533-1.003-2.476zm8.315-25.297q-.767-.766-1.946-.766-1.18 0-1.887.766-.767.708-.767 1.887 0 1.18.767 1.946.707.708 1.887.708 1.179 0 1.946-.708.707-.767.707-1.946 0-1.18-.707-1.887zm-6.664 1.887q0-2.064 1.239-3.361 1.238-1.297 3.656-1.297h1.592q2.535 0 3.656-.885 1.12-.884 1.12-2.89l2.89.296q0 4.6-5.838 5.13 1.12 1.238 1.12 3.007 0 1.946-1.297 3.184-1.356 1.239-3.42 1.239t-3.361-1.239q-1.357-1.238-1.357-3.184z" style="-inkscape-font-specification:'Boon Light'" font-weight="300"/><path d="M185.333 35.77q.59.65 1.65.65 1.062 0 1.652-.65.59-.648.59-1.71 0-1.06-.59-1.71-.59-.648-1.651-.648-1.062 0-1.651.648-.59.65-.59 1.71 0 1.062.59 1.71zm8.196-1.71q0 1.416-.413 3.538-.413 2.064-.413 3.42v11.676q0 3.538 2.064 5.248 2.064 1.71 5.602 1.71 3.538 0 5.543-1.71 2.064-1.71 2.064-5.248V28.636h7.547v24.058q0 5.425-4.186 8.963-4.187 3.538-10.968 3.538t-11.027-3.538q-4.186-3.538-4.186-8.963v-9.907q0-1.533.766-2.77-2.417-.296-3.95-1.888-1.534-1.65-1.534-4.069 0-2.712 1.828-4.363 1.887-1.651 4.718-1.651 2.83 0 4.658 1.651 1.887 1.651 1.887 4.363zm16.805 37.385q-.53-.53-1.415-.53-.884 0-1.415.53-.53.59-.53 1.415 0 .826.53 1.356.53.59 1.415.59.884 0 1.415-.59.53-.53.53-1.356 0-.825-.53-1.415zM209.037 82v-2.653q0-.472.354-1.298h-.472q-2.418 0-4.01-1.415-1.592-1.415-1.592-3.774 0-2.358 1.592-3.774 1.592-1.415 4.01-1.415 2.418 0 4.01 1.415 1.592 1.416 1.592 3.774 0 1.297-.177 2.83-.177 1.593-.177 2.595V82h-5.13zm46.04-10.555q-.531-.53-1.415-.53-.885 0-1.416.53-.53.59-.53 1.415 0 .826.53 1.356.531.59 1.416.59.884 0 1.415-.59.53-.53.53-1.356 0-.825-.53-1.415zm-5.425-2.359q1.592-1.415 4.01-1.415 2.417 0 4.01 1.415 1.591 1.416 1.591 3.774 0 1.77-.943 3.066h1.415q6.015 0 6.015-7.311l5.601.59q0 4.658-2.948 7.43-2.948 2.83-7.666 2.83h-3.832q-4.01 0-6.428-1.77-2.417-1.71-2.417-4.835 0-2.358 1.592-3.774zM233.2 56.88q-.59-.648-1.65-.648-1.062 0-1.652.648-.59.649-.59 1.71 0 1.062.59 1.71.59.65 1.651.65 1.062 0 1.651-.65.59-.648.59-1.71 0-1.061-.59-1.71zm5.543-29.424q7.194 0 11.616 3.774 4.482 3.715 4.482 9.494v13.62q0 2.772 1.356 4.01 1.415 1.239 3.48 1.239 2.063 0 3.42-1.238 1.355-1.239 1.355-4.01v-25.71H272v25.71q0 4.54-3.361 7.724-3.302 3.126-8.963 3.126-5.66 0-9.022-3.126-3.36-3.184-3.36-7.724V40.724q0-3.892-2.3-5.779t-6.25-1.887q-6.015 0-7.902 5.012l8.019 1.71-.826 3.125-.294-.058q-.354-.06-.826-.118-.472-.06-.825-.06-2.89 0-2.89 3.362v3.833q0 1.474-.707 2.77 2.476.296 4.01 1.888 1.591 1.592 1.591 4.069 0 2.712-1.886 4.363-1.828 1.651-4.659 1.651-2.83 0-4.717-1.651-1.828-1.651-1.828-4.363 0-1.416.295-3.48.354-2.122.354-3.478v-4.836q0-4.363 3.95-5.72l-6.899-1.356q.708-5.07 4.894-8.668 4.187-3.597 11.145-3.597z" style="-inkscape-font-specification:'Boon Semi-Bold'" font-weight="600"/></g></svg>