<svg xmlns="http://www.w3.org/2000/svg" width="1200" height="630" viewBox="0 0 1200 630"><path d="M0 0h1200v630H0z" fill="#2ad" fill-opacity=".95"/><g font-weight="400" font-family="Boon" letter-spacing="0" word-spacing="0" fill="#fff" fill-opacity=".95"><g style="line-height:125%" font-size="68.306"><path d="M264.996 106.995v172.9H253.47l-41.84-92.213-41.836 92.213h-11.527V203.05q0-7.043 3.202-13.447-1.71.427-5.34.427-9.177 0-15.154-5.55Q135 178.93 135 170.178q0-8.75 5.977-14.3 5.977-5.55 15.155-5.55 9.18 0 15.156 5.55 5.977 5.55 5.977 14.3 0 5.123-2.99 13.875-2.987 8.752-2.987 14.088v48.67q0 6.19-.64 10.887L208 174.234h7.258l37.355 82.82q-.64-4.695-.64-10.244V106.995h13.02zm-118.042 72.362q3.628 3.415 9.178 3.415 5.55 0 8.965-3.415 3.63-3.63 3.63-9.18t-3.63-8.964q-3.415-3.63-8.965-3.63t-9.178 3.63q-3.416 3.415-3.416 8.965t3.416 9.18zm153.462 8.753q2.135-16.864 15.583-28.39 13.445-11.528 35.645-11.528 23.053 0 37.142 11.954 14.088 11.74 14.088 30.95v51.444q0 18.358-13.234 29.67-13.02 11.314-34.793 11.314T319.84 272.21q-13.02-11.31-13.02-29.67v-19.637q0-8.75 5.977-14.3 5.977-5.55 15.155-5.55 9.18 0 15.156 5.55 5.977 5.55 5.977 14.3 0 8.752-5.977 14.302-5.977 5.55-15.156 5.55-4.055 0-8.538-1.494.213.428.213 1.28 0 14.73 9.606 22.628 9.82 7.898 25.615 7.898 15.796 0 25.188-7.898t9.392-22.627V191.1q0-15.582-10.246-23.907-10.246-8.537-27.536-8.537-16.436 0-26.255 8.324-9.604 8.325-11.525 22.413l-13.448-1.28zm36.502 25.827q-3.416-3.63-8.966-3.63-5.55 0-9.178 3.63-3.416 3.415-3.416 8.965t3.416 9.18q3.628 3.414 9.178 3.414 5.55 0 8.966-3.415 3.628-3.627 3.628-9.177t-3.628-8.965zm114.02 65.958V203.05q0-7.257 3.2-13.66-2.56.64-5.336.64-9.18 0-15.156-5.55-5.977-5.55-5.977-14.302 0-8.75 5.976-14.3 5.977-5.55 15.156-5.55 9.178 0 15.155 5.55 5.977 5.55 5.977 14.3 0 5.977-2.775 14.302t-2.776 14.302v49.095q0 7.47-.427 19.424Q490 242.115 520.31 241.26q4.484-4.056 4.484-8.325V151.82h13.66v78.98q0 6.404-7.257 11.313 7.47 1.495 11.954 6.83 4.484 5.124 4.484 12.595 0 8.752-5.976 14.302-5.977 5.55-15.156 5.55-9.177 0-15.154-5.55t-5.977-14.302q0-5.977 2.988-10.673-25.188 5.764-45.04 29.03h-12.38zm84.53-27.322q-3.417-3.63-8.967-3.63-5.55 0-9.176 3.63-3.416 3.415-3.416 8.965t3.416 9.18q3.628 3.414 9.178 3.414 5.55 0 8.966-3.415 3.63-3.63 3.63-9.18t-3.63-8.964zm-95.844-73.216q3.63 3.415 9.18 3.415t8.964-3.415q3.63-3.63 3.63-9.18t-3.63-8.964q-3.415-3.63-8.965-3.63t-9.18 3.63q-3.414 3.415-3.414 8.965t3.413 9.18zM669.99 279.895v-23.48q0-1.92.215-28.603.213-26.896.213-34.794 0-14.515-4.696-23.48-4.696-9.18-13.448-10.246l-19.21 16.863h-3.844l-19.212-16.863q-8.752 1.067-13.662 10.246-4.91 8.965-4.91 23.48 0 18.144 2.35 33.513 2.56 15.158 2.56 20.707v14.728q.214 1.282.214 2.136 5.977-7.684 21.132-18.143 15.37-10.46 20.28-16.01-2.776.854-6.832.854-9.18 0-15.155-5.55-5.977-5.55-5.977-14.3 0-8.752 5.977-14.302 5.976-5.55 15.155-5.55 9.18 0 15.156 5.55 5.976 5.55 5.976 14.302 0 9.39-4.91 17.502-4.91 8.112-12.38 14.088-7.257 5.764-14.942 11.1-7.47 5.337-14.088 12.167-6.404 6.83-8.538 14.088h-15.37q2.135-16.01 2.135-26.04 0-10.034-2.775-26.47-2.56-16.436-2.56-34.367 0-10.46 2.56-19.638 2.562-9.18 10.246-16.436 7.9-7.47 20.066-7.47l19.425 17.93 19.426-17.93q12.167 0 19.85 7.47 7.9 7.257 10.46 16.436 2.562 9.18 2.562 19.638v86.877h-13.45zm-29.883-77.912q-3.415-3.628-8.965-3.628t-9.18 3.628q-3.414 3.416-3.414 8.966 0 5.55 3.415 9.176 3.63 3.416 9.18 3.416t8.964-3.416q3.63-3.628 3.63-9.178 0-5.55-3.63-8.967zm30.098-91.573q-2.775-2.775-7.044-2.775-4.27 0-6.83 2.775-2.774 2.562-2.774 6.83 0 4.27 2.775 7.045 2.56 2.56 6.83 2.56t7.046-2.56q2.56-2.775 2.56-7.044 0-4.267-2.56-6.83zm-24.12 6.83q0-7.47 4.482-12.166 4.482-4.696 13.234-4.696h5.765q9.18 0 13.235-3.202 4.054-3.202 4.054-10.46l10.46 1.068q0 16.65-21.133 18.57 4.058 4.483 4.058 10.887 0 7.046-4.696 11.528-4.908 4.483-12.38 4.483-7.47 0-12.167-4.482-4.91-4.482-4.91-11.526z" style="-inkscape-font-specification:'Boon Light'" font-weight="300"/><path d="M726.264 177.65q2.135 2.347 5.977 2.347 3.844 0 5.98-2.348 2.133-2.35 2.133-6.19 0-3.844-2.134-6.19-2.136-2.35-5.978-2.35-3.84 0-5.976 2.35-2.134 2.346-2.134 6.19 0 3.84 2.134 6.19zm29.67-6.19q0 5.122-1.493 12.806-1.493 7.47-1.493 12.38v42.266q0 12.807 7.47 18.997 7.472 6.19 20.28 6.19 12.807 0 20.065-6.19 7.472-6.19 7.472-19v-87.09h27.322v87.09q0 19.64-15.155 32.446-15.156 12.808-39.703 12.808-24.548 0-39.917-12.808-15.156-12.807-15.156-32.445v-35.86q0-5.55 2.775-10.033-8.754-1.067-14.304-6.83-5.55-5.977-5.55-14.73 0-9.818 6.617-15.795 6.83-5.977 17.077-5.977 10.247 0 16.864 5.977 6.83 5.977 6.83 15.796zm60.836 135.33q-1.92-1.92-5.123-1.92-3.202 0-5.123 1.92-1.92 2.136-1.92 5.124 0 2.988 1.92 4.91 1.92 2.134 5.123 2.134 3.202 0 5.123-2.134 1.92-1.922 1.92-4.91 0-2.988-1.92-5.123zM812.074 345v-9.606q0-1.707 1.28-4.696h-1.707q-8.752 0-14.515-5.123-5.764-5.123-5.764-13.66 0-8.54 5.764-13.662 5.763-5.123 14.515-5.123t14.515 5.123q5.763 5.123 5.763 13.66 0 4.697-.64 10.247-.64 5.763-.64 9.392V345h-18.57zm166.664-38.21q-1.92-1.92-5.123-1.92-3.202 0-5.123 1.92-1.92 2.136-1.92 5.124 0 2.988 1.92 4.91 1.92 2.134 5.123 2.134 3.202 0 5.123-2.134 1.92-1.922 1.92-4.91 0-2.988-1.92-5.123zm-19.638-8.537q5.763-5.123 14.515-5.123t14.515 5.123q5.763 5.123 5.763 13.66 0 6.405-3.415 11.1h5.122q21.774 0 21.774-26.468l20.278 2.135q0 16.863-10.673 26.895-10.675 10.246-27.75 10.246h-13.876q-14.515 0-23.267-6.4-8.752-6.19-8.752-17.505 0-8.538 5.764-13.66zm-59.555-44.186q-2.135-2.348-5.977-2.348-3.842 0-5.977 2.346-2.132 2.348-2.132 6.19 0 3.843 2.134 6.19 2.136 2.35 5.978 2.35 3.842 0 5.977-2.35 2.135-2.347 2.135-6.19 0-3.842-2.135-6.19zm20.065-106.515q26.042 0 42.05 13.66 16.224 13.45 16.224 34.368v49.308q0 10.033 4.91 14.516 5.122 4.482 12.593 4.482 7.47 0 12.38-4.482 4.91-4.483 4.91-14.516V151.82H1040v93.068q0 16.437-12.167 27.963-11.954 11.316-32.446 11.316-20.49 0-32.66-11.314-12.166-11.525-12.166-27.962v-49.31q0-14.088-8.322-20.92-8.325-6.83-22.627-6.83-21.772 0-28.602 18.144l29.03 6.19-2.988 11.314-1.07-.214q-1.28-.213-2.987-.427-1.708-.213-2.99-.213-10.458 0-10.458 12.167v13.877q0 5.336-2.56 10.032 8.964 1.066 14.514 6.83 5.76 5.763 5.76 14.73 0 9.817-6.83 15.794-6.617 5.977-16.863 5.977t-17.076-5.976q-6.617-5.977-6.617-15.796 0-5.123 1.068-12.594 1.28-7.684 1.28-12.594v-17.504q0-15.796 14.303-20.706l-24.974-4.91q2.56-18.356 17.716-31.377 15.155-13.02 40.343-13.02z" style="-inkscape-font-specification:'Boon Semi-Bold'" font-weight="600"/></g><path d="M140 416.37q0-5.583 3.89-9.134 3.89-3.636 10.655-3.636 6.765 0 10.654 3.636 3.973 3.55 3.973 9.133 0 2.79-1.184 5.24-1.185 2.37-2.876 4.144-1.607 1.69-3.298 3.382-1.69 1.607-2.875 3.72-1.183 2.03-1.183 4.314v23.255q0 2.537-.93 4.82.423-.084 1.353-.084 3.806 0 6.258 2.285 2.453 2.198 2.453 5.834 0 3.636-2.45 5.92-2.453 2.197-6.258 2.197t-6.257-2.198q-2.452-2.284-2.452-5.92 0-1.945.508-5.16.593-3.297.593-5.157v-25.79q0-2.876 1.27-5.244 1.267-2.37 3.127-4.06 1.86-1.776 3.637-3.383 1.86-1.606 3.128-3.636 1.27-2.113 1.27-4.48 0-4.06-2.284-6.09-2.2-2.113-6.172-2.113-3.975 0-6.258 2.114-2.2 2.03-2.2 6.09 0 2.198 1.44 4.228l-5.582 1.86Q140 419.244 140 416.37zm21.31 53.78q-1.184-1.27-3.13-1.27-1.944 0-3.213 1.27-1.183 1.184-1.183 3.13 0 1.943 1.183 3.212 1.27 1.184 3.214 1.184 1.947 0 3.13-1.184 1.27-1.27 1.27-3.213 0-1.947-1.27-3.13zm62.75 27.313l-5.835 2.114q-7.188-9.302-7.188-21.225 0-2.79.338-6.173-9.724 10.06-20.548 10.06-6.68 0-10.655-3.297-3.89-3.382-3.89-8.963 0-7.272 10.148-11.246.338-.085.845-.338l.508-.17q1.437-.59 6.342-2.536 4.99-1.945 7.018-2.79 1.776-.762 2.79-1.27 1.1-.59 2.538-1.69 1.524-1.1 2.2-2.706.76-1.607.76-3.72 0-4.652-3.72-7.358-3.635-2.79-9.3-2.79-4.65 0-8.54 1.606 2.704.76 4.226 2.79 1.607 2.03 1.607 4.905 0 3.636-2.452 5.92-2.452 2.198-6.257 2.198t-6.257-2.198q-2.453-2.284-2.453-5.92 0-5.835 5.58-9.978 5.582-4.23 14.546-4.23 8.88 0 14.46 4.312 5.58 4.23 5.58 10.74 0 3.213-1.1 5.75t-3.297 4.228q-2.114 1.692-3.552 2.538-1.436.76-3.973 1.86-1.86.76-6.68 2.706-4.82 1.86-6.68 2.622-5.244 2.114-6.68 3.72-1.27 1.438-1.27 3.298 0 3.13 2.03 4.99 2.114 1.86 5.834 1.86 10.487 0 20.55-11.585l5.243.76v9.554q0 3.467.592 6.68.592 3.214 1.014 4.905.507 1.775 1.944 4.227 1.522 2.537 1.776 2.875.253.423 1.86 2.622v.338zm-42.28-51.582q1.267 1.185 3.212 1.185 1.945 0 3.13-1.183 1.267-1.268 1.267-3.213t-1.27-3.13q-1.184-1.268-3.13-1.268t-3.212 1.268q-1.185 1.184-1.185 3.13 0 1.944 1.184 3.213zm7.863-37.798q-.677-.677-1.69-.677-1.016 0-1.693.677-.676.676-.676 1.775 0 1.1.676 1.776.677.677 1.692.677 1.014 0 1.69-.677.677-.676.677-1.776t-.678-1.776zm1.522 11.415q.338-1.69.338-3.636 0-1.097-.254-2.28-1.27 1.014-3.3 1.014-2.2 0-3.636-1.27-1.437-1.352-1.437-3.466t1.437-3.382q1.438-1.353 3.637-1.353 3.13 0 4.99 2.03 1.776 1.944 2.114 5.073.338 2.368.338 3.382v.93q-.085.508-.085.762.846-.17 1.353-.17 5.667 0 8.288-3.045 2.622-3.044 2.622-9.217l5.75.76q0 6.766-4.143 10.91-4.23 4.143-11.5 4.143h-5.75l-.847-1.097.085-.085zm43.53 26.383q1.27 1.184 3.214 1.184 1.943 0 3.127-1.183 1.268-1.267 1.268-3.212t-1.268-3.13q-1.184-1.267-3.13-1.267-1.944 0-3.212 1.27-1.184 1.183-1.184 3.13 0 1.943 1.185 3.212zm30.61 25.2q-10.145 11.162-21.56 11.162-6.68 0-10.656-3.298-3.89-3.382-3.89-8.963 0-7.27 10.146-11.245.338-.085.845-.338l.51-.17q1.436-.59 6.34-2.536 4.99-1.944 7.02-2.79 1.775-.76 2.79-1.27 1.1-.59 2.537-1.69 1.522-1.1 2.198-2.705.76-1.607.76-3.72 0-4.652-3.72-7.358-3.635-2.79-9.3-2.79-4.652 0-8.542 1.606 2.706.76 4.228 2.79 1.608 2.03 1.608 4.905 0 3.636-2.453 5.92-2.453 2.198-6.258 2.198-3.806 0-6.258-2.198-2.454-2.284-2.454-5.92 0-5.835 5.58-9.978 5.58-4.23 14.545-4.23 8.88 0 14.46 4.313 5.58 4.23 5.58 10.74 0 3.213-1.097 5.75-1.1 2.537-3.298 4.228-2.115 1.693-3.553 2.54-1.437.76-3.974 1.86-1.86.76-6.68 2.705-4.82 1.86-6.68 2.622-5.244 2.114-6.68 3.72-1.27 1.438-1.27 3.298 0 3.13 2.03 4.99 2.114 1.86 5.835 1.86 10.485 0 20.548-11.585h3.637l6.258 14.797v.338l-5.75 1.1-2.537-7.188q-.677-2.875-.846-3.467zm15.12-30.358q0-5.496 3.72-8.88 3.806-3.38 9.98-3.38 11.415 0 19.195 10.57.084-.34.253-1.354.254-1.015.423-1.522l2.537-7.188 5.75 1.1v.338l-6.257 14.798h-3.637q-1.608-2.2-2.96-3.636-1.27-1.438-3.637-3.552-2.284-2.114-5.16-3.213-2.874-1.184-6.002-1.184-3.467 0-5.41 1.943-1.86 1.86-1.86 4.905 0 .844.167 1.52.254.677.76 1.354.51.592.847 1.014.423.423 1.353.93.93.508 1.353.762.424.17 1.608.76 1.184.508 1.522.677 1.015.508 5.327 2.453 4.397 1.86 6.258 2.79 2.114 1.015 2.96 1.522.93.423 2.874 1.86 2.03 1.353 2.96 2.706 1.013 1.27 1.86 3.552.844 2.2.844 4.82v17.59q0 6.426-4.735 10.823-4.65 4.4-12.77 4.4-8.117 0-12.853-4.228-4.735-4.228-4.735-9.978 0-3.637 2.452-5.835 2.453-2.285 6.258-2.285t6.257 2.283q2.45 2.197 2.45 5.834 0 3.298-2.113 5.496-2.114 2.2-5.58 2.537 3.55 1.69 7.61 1.69 4.904 0 7.78-2.79 2.958-2.79 2.958-7.694v-17.84q0-2.114-.676-3.636-.593-1.607-2.03-2.706-1.353-1.184-2.284-1.69-.845-.593-2.62-1.354-1.523-.76-6.09-2.622-4.48-1.86-6.088-2.62l-1.438-.593q-1.438-.68-2.03-1.017-.592-.338-2.03-1.1-1.352-.845-2.03-1.606-.675-.845-1.606-1.945-.93-1.184-1.353-2.536-.337-1.438-.337-3.045zM294.8 482.58q-1.183-1.184-3.128-1.184t-3.213 1.184q-1.186 1.27-1.186 3.214 0 1.945 1.184 3.128 1.267 1.27 3.212 1.27 1.945 0 3.13-1.27 1.267-1.183 1.267-3.128t-1.27-3.214zm39.68-41.942q1.267 1.184 3.212 1.184 1.945 0 3.13-1.184 1.267-1.27 1.267-3.214 0-1.945-1.27-3.128-1.184-1.27-3.13-1.27t-3.212 1.27q-1.185 1.183-1.185 3.128t1.184 3.214zm3.212 4.904q-3.805 0-6.258-2.198-2.452-2.283-2.452-5.92 0-3.636 2.452-5.834 2.453-2.284 6.258-2.284t6.257 2.284q2.45 2.198 2.45 5.834 0 1.945-.59 5.243-.51 3.214-.51 5.074v15.646q2.37 5.665 6.428 9.386 4.143 3.637 8.794 3.637 3.72 0 6.088-2.538 2.368-2.62 2.368-7.864v-36.023h7.187v35.6q0 7.02-3.636 11.67-3.55 4.566-10.316 4.566-10.4 0-16.997-10.74-.592 5.244-4.397 7.865-3.72 2.537-7.948 2.875l-1.522-4.736q6.765-.76 6.765-7.61v-19.196q0-2.79.93-4.82-.423.084-1.353.084zm54.43-4.904q1.27 1.184 3.214 1.184 1.945 0 3.13-1.184 1.268-1.27 1.268-3.214 0-1.945-1.27-3.128-1.183-1.27-3.128-1.27-1.944 0-3.213 1.27-1.184 1.183-1.184 3.128t1.182 3.214zm3.214 4.904q-3.805 0-6.257-2.198-2.454-2.283-2.454-5.92 0-3.636 2.452-5.834 2.45-2.284 6.256-2.284t6.258 2.284q2.452 2.198 2.452 5.834 0 4.398-2.875 9.98-2.875 5.495-2.875 9.216v13.445q0 3.298 2.03 5.074 2.03 1.774 5.073 1.774 2.96 0 4.904-2.03 2.03-2.114 2.03-5.496v-16.575h6.257v16.574q0 3.38 1.945 5.495 2.03 2.03 4.99 2.03 3.043 0 5.073-1.776 2.028-1.777 2.028-5.075v-40.08h7.103v40.08q0 5.244-3.467 8.71-3.467 3.468-9.64 3.468-7.103 0-11.162-6.088-4.06 6.088-11.16 6.088-6.174 0-9.64-3.467-3.468-3.466-3.468-8.71v-13.44q0-2.2 1.1-4.482 1.1-2.368 1.944-3.467.846-1.097 2.706-3.21-.507.083-1.607.083zm66.582-6.004q-1.184-1.268-3.13-1.268-1.943 0-3.212 1.268-1.184 1.184-1.184 3.13 0 1.944 1.184 3.213 1.27 1.185 3.213 1.185t3.127-1.183q1.27-1.268 1.27-3.213t-1.27-3.13zm13.7 41.182v-37.968q0-4.82-2.622-7.273-2.537-2.538-6.85-2.538-3.636 0-6.426 1.606 3.467.338 5.58 2.62 2.2 2.2 2.2 5.497 0 3.636-2.453 5.92-2.452 2.198-6.258 2.198t-6.26-2.198q-2.45-2.284-2.45-5.92 0-6.088 4.48-10.147 4.482-4.06 11.754-4.06 7.526 0 11.924 4.144 4.396 4.06 4.396 10.317v37.8h-7.02zm33.82-10.57q-1.185-1.27-3.13-1.27-1.945 0-3.214 1.27-1.183 1.184-1.183 3.13 0 1.943 1.185 3.212 1.27 1.184 3.214 1.184t3.13-1.184q1.266-1.27 1.266-3.213 0-1.947-1.268-3.13zm-3.13-4.99q3.805 0 6.257 2.284 2.453 2.198 2.453 5.835 0 3.634-2.453 5.917-2.452 2.198-6.257 2.198-4.482 0-7.188-2.706-2.706-2.707-2.706-6.935v-3.297q0-5.16 3.13-8.88 3.212-3.806 9.723-3.806 8.034 0 13.53 4.82 5.58 4.736 8.964 11.754-.506-2.875-.506-4.312v-13.7q0-2.367.17-5.242t.17-4.144v-.93q-6.428 4.736-16.237 4.736-8.795 0-14.29-2.537-5.498-2.623-5.498-6.26 0-4.058 5.327-7.778 5.327-3.72 14.46-3.72 6.51 0 11.247 2.112 4.735 2.114 7.103 5.074 2.283-3.976 2.452-8.796l6.34.592q-.17 3.298-1.69 6.596-1.522 3.213-4.144 5.243 1.607 2.876 1.607 5.92v31.88q0 1.52-1.353 2.706-1.27 1.184-3.468 1.184l-3.213-.254q-.93-3.213-2.455-6.342-1.522-3.13-4.06-6.427-2.45-3.38-6.256-5.41-3.72-2.03-8.204-2.03-2.875 0-4.566 1.437-1.69 1.438-2.113 3.89 1.776-.676 3.72-.676zm-4.06-25.2q0 1.1 1.1 2.115 1.183 1.015 4.227 1.86 3.13.762 7.78.762 9.64 0 14.967-4.99-1.86-3.297-5.834-5.073-3.976-1.86-9.134-1.86-6.004 0-9.556 2.283-3.55 2.283-3.55 4.904zm59.162-.422q-1.184-1.268-3.13-1.268-1.943 0-3.212 1.268-1.184 1.184-1.184 3.13 0 1.944 1.184 3.213 1.27 1.185 3.213 1.185 1.947 0 3.13-1.183 1.27-1.268 1.27-3.213t-1.27-3.13zm13.7 41.182v-37.968q0-4.82-2.622-7.273-2.537-2.538-6.85-2.538-3.636 0-6.426 1.606 3.467.338 5.58 2.62 2.2 2.2 2.2 5.497 0 3.636-2.453 5.92-2.454 2.198-6.26 2.198-3.805 0-6.257-2.198-2.452-2.284-2.452-5.92 0-6.088 4.48-10.147 4.484-4.06 11.756-4.06 7.526 0 11.924 4.144 4.398 4.06 4.398 10.317v37.8h-7.02zm33.82-10.57q-1.185-1.27-3.13-1.27-1.945 0-3.214 1.27-1.183 1.184-1.183 3.13 0 1.943 1.183 3.212 1.27 1.184 3.214 1.184 1.945 0 3.13-1.184 1.267-1.27 1.267-3.213 0-1.947-1.268-3.13zm-3.13-4.99q3.805 0 6.257 2.284 2.453 2.198 2.453 5.835 0 3.634-2.453 5.917-2.452 2.198-6.257 2.198-4.482 0-7.188-2.706-2.706-2.707-2.706-6.935v-3.297q0-5.16 3.13-8.88 3.212-3.806 9.723-3.806 8.032 0 13.53 4.82 5.58 4.736 8.962 11.754-.507-2.875-.507-4.312v-21.902q0-6.004-3.89-9.132-3.89-3.13-10.486-3.13-6.09 0-9.726 3.13-3.636 3.128-4.397 8.54l-7.188-.507q.93-7.02 6.51-11.754 5.58-4.82 14.8-4.82 9.64 0 15.474 4.904 5.92 4.905 5.92 12.77v30.95q0 1.52-1.354 2.705-1.267 1.183-3.466 1.183l-3.213-.254q-.93-3.214-2.45-6.343-1.523-3.13-4.06-6.427-2.452-3.38-6.257-5.41-3.72-2.03-8.203-2.03-2.876 0-4.567 1.437-1.69 1.438-2.114 3.89 1.774-.676 3.72-.676zm54.11-25.622q-1.183-1.268-3.127-1.268-1.945 0-3.214 1.268-1.186 1.184-1.186 3.13 0 1.944 1.184 3.213 1.268 1.185 3.213 1.185t3.13-1.183q1.27-1.268 1.27-3.213t-1.27-3.13zm13.7 41.182v-37.968q0-4.82-2.62-7.273-2.538-2.538-6.85-2.538-3.637 0-6.427 1.606 3.467.338 5.58 2.62 2.2 2.2 2.2 5.497 0 3.636-2.453 5.92-2.452 2.198-6.257 2.198-3.806 0-6.258-2.198-2.452-2.284-2.452-5.92 0-6.088 4.48-10.147 4.483-4.06 11.756-4.06 7.524 0 11.92 4.144 4.398 4.06 4.398 10.317v37.8h-7.02zm31.367-15.813q-1.183-1.27-3.128-1.27-1.947 0-3.216 1.27-1.184 1.184-1.184 3.13 0 1.944 1.185 3.212 1.27 1.182 3.214 1.182t3.126-1.184q1.27-1.27 1.27-3.214 0-1.945-1.27-3.13zm-9.386-2.706q2.454-2.28 6.26-2.28 3.805 0 6.257 2.282 2.452 2.2 2.452 5.836 0 2.706-1.438 4.735-1.437 1.946-3.89 2.792 2.876 1.522 7.19 1.522 5.495 0 8.71-2.79 3.297-2.876 3.297-8.203v-20.97q0-5.582-3.468-8.372-3.467-2.875-9.387-2.875-5.496 0-8.88 2.875-3.38 2.79-4.058 7.78l-7.187-.508q.845-6.51 6.088-10.993 5.243-4.565 14.037-4.565 9.048 0 14.545 4.652 5.496 4.566 5.496 12.007v20.97q0 7.19-5.242 11.67-5.243 4.482-13.953 4.482-8.71 0-14.037-4.143-5.243-4.23-5.243-10.064 0-3.637 2.45-5.836zm58.856 7.95q-1.184-1.27-3.13-1.27-1.944 0-3.212 1.27-1.184 1.184-1.184 3.13 0 1.943 1.184 3.212 1.268 1.184 3.213 1.184t3.13-1.184q1.267-1.27 1.267-3.213 0-1.947-1.268-3.13zm-6.342-29.512q1.268 1.184 3.213 1.184t3.13-1.184q1.267-1.27 1.267-3.214 0-1.945-1.268-3.128-1.184-1.27-3.13-1.27-1.944 0-3.212 1.27-1.184 1.183-1.184 3.128t1.184 3.214zm3.213 4.904q-3.805 0-6.257-2.198-2.453-2.283-2.453-5.92 0-3.636 2.453-5.834 2.452-2.284 6.257-2.284 3.805 0 6.258 2.284 2.452 2.198 2.452 5.834v.423q2.03-2.03 3.213-3.044 1.184-1.1 3.383-2.706 2.283-1.69 4.735-2.452 2.453-.76 5.074-.76 6.934 0 10.57 4.65 3.636 4.566 3.636 11.584v35.6h-7.187v-35.6q0-10.825-8.455-10.825-2.96 0-5.834 1.606-2.874 1.523-6.09 4.23-3.126 2.705-4.31 3.466-.677 2.537-.677 4.144v15.223q0 1.86.93 5.158 1.015 3.215 1.015 5.16 0 3.636-2.452 5.92-2.453 2.197-6.258 2.197t-6.257-2.198q-2.452-2.284-2.452-5.92 0-3.637 2.453-5.835 2.453-2.283 6.258-2.283h.677q-1.1-2.03-1.1-4.735V450.28q0-2.706 1.1-4.736h-.677zm12.77-36.615q2.45-2.283 6.256-2.283t6.258 2.283q2.454 2.2 2.454 5.835 0 3.636-2.452 5.92-2.45 2.198-6.257 2.198-3.805 0-6.257-2.2-2.452-2.282-2.452-5.918t2.452-5.835zm9.47 2.706q-1.27-1.268-3.214-1.268t-3.128 1.268q-1.27 1.184-1.27 3.13 0 1.944 1.27 3.212 1.184 1.184 3.128 1.184 1.945 0 3.214-1.186 1.184-1.268 1.184-3.213t-1.182-3.13zm-5.835-11.247v-14.798h5.412v15.73l-5.412-.932zm31.462 6.004l2.284-4.143q3.805.93 5.92 3.13 2.197 2.197 2.197 5.326v6.342q0 5.75 4.99 5.75.845 0 1.69-.084.93-.17 1.608-.337.76-.17 1.606-.507.93-.423 1.52-.676.677-.255 1.522-.763.93-.507 1.353-.76.423-.254 1.27-.846.93-.675 1.183-.844.252-.17 1.098-.76.846-.677.93-.762l2.537 4.06q-.338.337-3.13 2.367-2.79 2.03-4.903 3.806-2.114 1.69-4.06 4.482-1.86 2.706-1.86 5.158v24.1q0 2.537-.93 4.82.423-.084 1.353-.084 3.805 0 6.258 2.284 2.453 2.198 2.453 5.834 0 3.637-2.452 5.92-2.452 2.198-6.257 2.198t-6.257-2.198q-2.453-2.283-2.453-5.92 0-1.944.508-5.158.593-3.298.593-5.158v-26.637q0-4.65 5.158-9.048h-.337q-4.905 0-7.696-2.37-2.79-2.37-2.79-6.596v-6.85q0-3.974-4.906-5.073zm21.31 63.76q-1.184-1.27-3.13-1.27-1.944 0-3.212 1.27-1.184 1.184-1.184 3.13 0 1.943 1.184 3.212 1.268 1.184 3.213 1.184t3.13-1.184q1.267-1.27 1.267-3.213 0-1.947-1.268-3.13zm32.14 0q-1.185-1.27-3.13-1.27-1.945 0-3.214 1.27-1.183 1.184-1.183 3.13 0 1.943 1.183 3.212 1.27 1.184 3.214 1.184 1.945 0 3.13-1.184 1.267-1.27 1.267-3.213 0-1.947-1.266-3.13zm-9.388-2.706q2.453-2.283 6.258-2.283t6.257 2.285q2.455 2.198 2.455 5.835 0 3.635-2.453 5.918-2.45 2.198-6.256 2.198-5.92 0-9.556-3.636-3.636-3.636-3.636-9.132v-21.986q0-8.034 5.835-13.107 5.834-5.074 15.474-5.074t15.474 5.076q5.92 5.073 5.92 13.107v34.078h-7.02v-34.077q0-6.173-3.89-9.47-3.888-3.3-10.484-3.3t-10.4 3.3q-3.807 3.212-3.807 9.47v18.096q0 1.183-.17 2.705zm7.694-59.362q-.675-.677-1.69-.677t-1.69.677q-.678.676-.678 1.775 0 1.1.677 1.776.674.677 1.69.677t1.69-.677q.677-.676.677-1.776t-.677-1.776zm1.523 11.415q.34-1.69.34-3.636 0-1.097-.255-2.28-1.268 1.014-3.298 1.014-2.2 0-3.636-1.27-1.438-1.352-1.438-3.466t1.438-3.382q1.437-1.353 3.636-1.353 3.13 0 4.99 2.03 1.775 1.944 2.113 5.073.34 2.368.34 3.382v.93q-.086.508-.086.762.846-.17 1.353-.17 5.666 0 8.287-3.045 2.62-3.044 2.62-9.217l5.752.76q0 6.766-4.146 10.91-4.228 4.143-11.5 4.143h-5.75l-.846-1.097.083-.085zm79.034 50.653q-1.184-1.27-3.13-1.27-1.944 0-3.212 1.27-1.184 1.184-1.184 3.13 0 1.943 1.186 3.212 1.268 1.184 3.213 1.184t3.13-1.184q1.266-1.27 1.266-3.213 0-1.947-1.268-3.13zm-3.13-4.99q3.806 0 6.26 2.284 2.45 2.198 2.45 5.835 0 3.634-2.45 5.917-2.454 2.198-6.26 2.198-3.804 0-6.256-2.198-2.45-2.283-2.45-5.92 0-1.944.507-5.158.592-3.3.592-5.16v-21.73q0-3.214 1.182-5.666 1.27-2.452 3.215-3.805 2.03-1.355 4.06-2.03 2.028-.678 3.973-.847l1.522 4.735q-6.765.76-6.765 7.61v19.195q0 2.79-.93 4.82.423-.084 1.353-.084zm-22.24 4.99q-1.182-1.27-3.127-1.27-1.945 0-3.214 1.27-1.184 1.184-1.184 3.13 0 1.943 1.184 3.212 1.27 1.184 3.214 1.184 1.945 0 3.128-1.184 1.27-1.27 1.27-3.213 0-1.947-1.27-3.13zM903 465.16q3.805 0 6.257 2.284 2.452 2.198 2.452 5.835 0 3.634-2.454 5.917-2.452 2.198-6.257 2.198-3.807 0-6.26-2.198-2.45-2.283-2.45-5.92 0-1.944.506-5.158.592-3.3.592-5.16v-21.73q0-3.214 1.183-5.666 1.27-2.452 3.214-3.805 2.03-1.355 4.06-2.03 2.03-.678 3.974-.847l1.522 4.735q-6.765.76-6.765 7.61v19.195q0 2.79-.93 4.82.422-.084 1.353-.084zm57.52 4.99q-1.184-1.27-3.13-1.27-1.944 0-3.212 1.27-1.184 1.184-1.184 3.13 0 1.943 1.184 3.212 1.268 1.184 3.213 1.184 1.947 0 3.13-1.184 1.27-1.27 1.27-3.213 0-1.947-1.27-3.13zm-3.13-4.99q3.807 0 6.26 2.284 2.45 2.198 2.45 5.835 0 3.634-2.45 5.917-2.453 2.198-6.26 2.198-4.48 0-7.186-2.706-2.706-2.707-2.706-6.935v-3.297q0-5.16 3.128-8.88 3.214-3.806 9.725-3.806 8.035 0 13.53 4.82 5.583 4.736 8.965 11.754-.507-2.875-.507-4.312v-21.902q0-6.004-3.89-9.132-3.89-3.13-10.486-3.13-6.087 0-9.723 3.13-3.637 3.128-4.398 8.54l-7.188-.507q.93-7.02 6.51-11.754 5.582-4.82 14.8-4.82 9.64 0 15.474 4.904 5.92 4.905 5.92 12.77v30.95q0 1.52-1.353 2.705-1.27 1.183-3.467 1.183l-3.214-.254q-.93-3.214-2.452-6.343-1.522-3.13-4.06-6.427-2.45-3.38-6.257-5.41-3.72-2.03-8.202-2.03-2.874 0-4.565 1.437-1.692 1.438-2.114 3.89 1.776-.676 3.72-.676zm5.582-57.078q-.676-.677-1.69-.677-1.016 0-1.692.677-.677.676-.677 1.775 0 1.1.677 1.776.676.677 1.69.677 1.016 0 1.692-.677.677-.676.677-1.776t-.68-1.776zm1.522 11.415q.34-1.69.34-3.636 0-1.097-.255-2.28-1.27 1.014-3.3 1.014-2.2 0-3.636-1.27-1.438-1.352-1.438-3.466t1.438-3.382q1.437-1.353 3.636-1.353 3.13 0 4.99 2.03 1.776 1.944 2.114 5.073.338 2.368.338 3.382v.93q-.084.508-.084.762.845-.17 1.353-.17 5.667 0 8.29-3.045 2.62-3.044 2.62-9.217l5.75.76q0 6.766-4.143 10.91-4.228 4.143-11.5 4.143h-5.75l-.846-1.097.085-.085zm48.87 45.41q-1.185-1.27-3.13-1.27-1.945 0-3.213 1.27-1.182 1.184-1.182 3.13 0 1.944 1.184 3.212 1.27 1.182 3.214 1.182 1.945 0 3.13-1.184 1.267-1.27 1.267-3.214.002-1.945-1.267-3.13zm-9.387-2.706q2.452-2.28 6.257-2.28 3.806 0 6.258 2.282 2.452 2.2 2.452 5.836 0 2.706-1.437 4.735-1.438 1.946-3.89 2.792 2.875 1.522 7.188 1.522 5.496 0 8.71-2.79 3.297-2.876 3.297-8.203v-20.97q0-5.582-3.467-8.372-3.467-2.875-9.386-2.875-5.5 0-8.88 2.875-3.384 2.79-4.06 7.78l-7.188-.508q.846-6.51 6.09-10.993 5.24-4.565 14.036-4.565 9.047 0 14.543 4.652 5.498 4.566 5.498 12.007v20.97q0 7.19-5.243 11.67-5.243 4.482-13.953 4.482-8.71 0-14.037-4.143-5.243-4.23-5.243-10.064 0-3.637 2.453-5.836z" style="-inkscape-font-specification:Boon" font-size="101.474"/></g></svg>