<?xml version="1.0" encoding="UTF-8" standalone="no"?>
<!-- Created with Inkscape (http://www.inkscape.org/) -->

<svg
   xmlns:dc="http://purl.org/dc/elements/1.1/"
   xmlns:cc="http://creativecommons.org/ns#"
   xmlns:rdf="http://www.w3.org/1999/02/22-rdf-syntax-ns#"
   xmlns:svg="http://www.w3.org/2000/svg"
   xmlns="http://www.w3.org/2000/svg"
   xmlns:sodipodi="http://sodipodi.sourceforge.net/DTD/sodipodi-0.dtd"
   xmlns:inkscape="http://www.inkscape.org/namespaces/inkscape"
   width="1200"
   height="630"
   viewBox="0 0 1200 630"
   id="svg2"
   version="1.1"
   inkscape:version="0.91 r13725"
   inkscape:export-filename="/home/i/repos/fontuni/fontuni.github.io/_fonts/boon/images/boon-cover.png"
   inkscape:export-xdpi="90"
   inkscape:export-ydpi="90"
   sodipodi:docname="boon-cover.svg">
  <defs
     id="defs4">
    <filter
       style="color-interpolation-filters:sRGB"
       inkscape:label="Drop Shadow"
       id="filter5024">
      <feFlood
         flood-opacity="1"
         flood-color="rgb(221,221,221)"
         result="flood"
         id="feFlood5026" />
      <feComposite
         in="flood"
         in2="SourceGraphic"
         operator="in"
         result="composite1"
         id="feComposite5028" />
      <feGaussianBlur
         in="composite1"
         stdDeviation="3"
         result="blur"
         id="feGaussianBlur5030" />
      <feOffset
         dx="2"
         dy="2"
         result="offset"
         id="feOffset5032" />
      <feComposite
         in="SourceGraphic"
         in2="offset"
         operator="over"
         result="composite2"
         id="feComposite5034" />
    </filter>
    <filter
       style="color-interpolation-filters:sRGB"
       inkscape:label="Drop Shadow"
       id="filter5937">
      <feFlood
         flood-opacity="1"
         flood-color="rgb(221,221,221)"
         result="flood"
         id="feFlood5939" />
      <feComposite
         in="flood"
         in2="SourceGraphic"
         operator="in"
         result="composite1"
         id="feComposite5941" />
      <feGaussianBlur
         in="composite1"
         stdDeviation="2"
         result="blur"
         id="feGaussianBlur5943" />
      <feOffset
         dx="2"
         dy="2"
         result="offset"
         id="feOffset5945" />
      <feComposite
         in="SourceGraphic"
         in2="offset"
         operator="over"
         result="composite2"
         id="feComposite5947" />
    </filter>
    <filter
       style="color-interpolation-filters:sRGB"
       inkscape:label="Drop Shadow"
       id="filter5949">
      <feFlood
         flood-opacity="1"
         flood-color="rgb(221,221,221)"
         result="flood"
         id="feFlood5951" />
      <feComposite
         in="flood"
         in2="SourceGraphic"
         operator="in"
         result="composite1"
         id="feComposite5953" />
      <feGaussianBlur
         in="composite1"
         stdDeviation="2"
         result="blur"
         id="feGaussianBlur5955" />
      <feOffset
         dx="2"
         dy="2"
         result="offset"
         id="feOffset5957" />
      <feComposite
         in="SourceGraphic"
         in2="offset"
         operator="over"
         result="composite2"
         id="feComposite5959" />
    </filter>
    <filter
       style="color-interpolation-filters:sRGB"
       inkscape:label="Drop Shadow"
       id="filter5961">
      <feFlood
         flood-opacity="1"
         flood-color="rgb(221,221,221)"
         result="flood"
         id="feFlood5963" />
      <feComposite
         in="flood"
         in2="SourceGraphic"
         operator="in"
         result="composite1"
         id="feComposite5965" />
      <feGaussianBlur
         in="composite1"
         stdDeviation="2"
         result="blur"
         id="feGaussianBlur5967" />
      <feOffset
         dx="2"
         dy="2"
         result="offset"
         id="feOffset5969" />
      <feComposite
         in="SourceGraphic"
         in2="offset"
         operator="over"
         result="composite2"
         id="feComposite5971" />
    </filter>
  </defs>
  <sodipodi:namedview
     id="base"
     pagecolor="#ffffff"
     bordercolor="#666666"
     borderopacity="1.0"
     inkscape:pageopacity="0.0"
     inkscape:pageshadow="2"
     inkscape:zoom="0.42"
     inkscape:cx="352.0463"
     inkscape:cy="130.60295"
     inkscape:document-units="px"
     inkscape:current-layer="layer1"
     showgrid="false"
     inkscape:window-width="1366"
     inkscape:window-height="718"
     inkscape:window-x="0"
     inkscape:window-y="24"
     inkscape:window-maximized="1"
     inkscape:showpageshadow="false"
     showborder="false" />
  <metadata
     id="metadata7">
    <rdf:RDF>
      <cc:Work
         rdf:about="">
        <dc:format>image/svg+xml</dc:format>
        <dc:type
           rdf:resource="http://purl.org/dc/dcmitype/StillImage" />
        <dc:title></dc:title>
      </cc:Work>
    </rdf:RDF>
  </metadata>
  <g
     style="display:inline"
     transform="translate(0,450)"
     inkscape:label="bg"
     id="g3551"
     inkscape:groupmode="layer"
     sodipodi:insensitive="true">
    <path
       inkscape:connector-curvature="0"
       id="path3553"
       d="M 3.0021132e-6,-450 1200,-450 1200,180 3.0021132e-6,180 Z"
       style="fill:#22aadd;fill-opacity:1;stroke:none;stroke-width:0;stroke-miterlimit:4;stroke-dasharray:none;stroke-opacity:1" />
  </g>
  <g
     inkscape:groupmode="layer"
     id="layer1"
     inkscape:label="fore"
     transform="translate(0,280)">
    <g
       style="font-style:normal;font-weight:normal;font-size:68.30641937px;line-height:125%;font-family:sans-serif;letter-spacing:0px;word-spacing:0px;fill:#ffffff;fill-opacity:0.95;stroke:none;stroke-width:1px;stroke-linecap:butt;stroke-linejoin:miter;stroke-opacity:1"
       id="text4203">
      <path
         d="m 264.99564,-173.00518 0,172.90062487 -11.52671,0 -41.83768,-92.21366787 -41.83768,92.21366787 -11.52671,0 0,-76.84472387 q 0,-7.044099 3.20186,-13.447826 -1.70766,0.426915 -5.33644,0.426915 -9.17867,0 -15.15548,-5.549897 -5.97681,-5.549893 -5.97681,-14.301653 0,-8.75176 5.97681,-14.30166 5.97681,-5.5499 15.15548,-5.5499 9.17868,0 15.15549,5.5499 5.97681,5.5499 5.97681,14.30166 0,5.12298 -2.9884,13.874738 -2.98841,8.75176 -2.98841,14.088199 l 0,48.668325 q 0,6.19027 -0.64037,10.886336 l 37.35507,-83.461908 3.62878,0 3.62878,0 37.35507,82.821535 q -0.64037,-4.696066 -0.64037,-10.245963 l 0,-139.814702 13.02091,0 z m -118.04203,72.36211 q 3.62878,3.415323 9.17867,3.415323 5.5499,0 8.96522,-3.415323 3.62878,-3.62878 3.62878,-9.17867 0,-5.5499 -3.62878,-8.96522 -3.41532,-3.62878 -8.96522,-3.62878 -5.54989,0 -9.17867,3.62878 -3.41532,3.41532 -3.41532,8.96522 0,5.54989 3.41532,9.17867 z"
         style="font-style:normal;font-variant:normal;font-weight:300;font-stretch:normal;font-family:Boon;-inkscape-font-specification:'Boon Light';fill:#ffffff;fill-opacity:0.95"
         id="path4263"
         inkscape:connector-curvature="0" />
      <path
         d="m 300.41626,-91.891308 q 2.13458,-16.863152 15.5824,-28.389852 13.44783,-11.52671 35.64742,-11.52671 23.05341,0 37.14161,11.95362 14.0882,11.74017 14.0882,30.951348 l 0,51.443273 q 0,18.357351 -13.23437,29.6706015 -13.02091,11.313251 -34.79358,11.313251 -21.77267,0 -35.00704,-11.313251 -13.02091,-11.3132505 -13.02091,-29.6706015 l 0,-19.638096 q 0,-8.75176 5.97681,-14.301657 5.97681,-5.549897 15.15549,-5.549897 9.17867,0 15.15548,5.549897 5.97682,5.549897 5.97682,14.301657 0,8.75176 -5.97682,14.301657 -5.97681,5.549897 -15.15548,5.549897 -4.0557,0 -8.53831,-1.494203 0.21346,0.426915 0.21346,1.280745 0,14.728572 9.60559,22.626502 9.81905,7.8979298 25.61491,7.8979298 15.79586,0 25.18799,-7.8979298 9.39214,-7.89793 9.39214,-22.626502 l 0,-51.443273 q 0,-15.582398 -10.24597,-23.907248 -10.24596,-8.5383 -27.53602,-8.5383 -16.43624,0 -26.25528,8.32484 -9.60559,8.32485 -11.52671,22.413047 l -13.44783,-1.280745 z m 36.50124,25.828365 q -3.41532,-3.628778 -8.96521,-3.628778 -5.5499,0 -9.17868,3.628778 -3.41532,3.415321 -3.41532,8.965218 0,5.549897 3.41532,9.178675 3.62878,3.415321 9.17868,3.415321 5.54989,0 8.96521,-3.415321 3.62878,-3.628778 3.62878,-9.178675 0,-5.549897 -3.62878,-8.965218 z"
         style="font-style:normal;font-variant:normal;font-weight:300;font-stretch:normal;font-family:Boon;-inkscape-font-specification:'Boon Light';fill:#ffffff;fill-opacity:0.95"
         id="path4265"
         inkscape:connector-curvature="0" />
      <path
         d="m 450.93721,-0.10455513 0,-76.84472387 q 0,-7.257557 3.20186,-13.661284 -2.56149,0.640373 -5.33644,0.640373 -9.17867,0 -15.15548,-5.549897 -5.97682,-5.549893 -5.97682,-14.301653 0,-8.75176 5.97682,-14.30166 5.97681,-5.5499 15.15548,-5.5499 9.17868,0 15.15549,5.5499 5.97681,5.5499 5.97681,14.30166 0,5.97681 -2.77495,14.301653 -2.77494,8.324845 -2.77494,14.301657 l 0,49.09524 q 0,7.471015 -0.42692,19.424639 26.04182,-25.187993 56.3528,-26.041823 4.48261,-4.055694 4.48261,-8.324845 l 0,-81.113871 13.66128,0 0,78.979295 q 0,6.403727 -7.25756,11.313251 7.47102,1.494203 11.95363,6.830642 4.48261,5.122981 4.48261,12.593996 0,8.7517604 -5.97682,14.3016571 -5.97681,5.5498967 -15.15548,5.5498967 -9.17868,0 -15.15549,-5.5498967 -5.97681,-5.5498967 -5.97681,-14.3016571 0,-5.976812 2.9884,-10.672878 -25.18799,5.763354 -45.03954,29.03022887 l -12.38054,0 z M 535.4664,-27.427123 q -3.41532,-3.628779 -8.96521,-3.628779 -5.5499,0 -9.17868,3.628779 -3.41532,3.415321 -3.41532,8.965217 0,5.549897 3.41532,9.1786756 3.62878,3.415321 9.17868,3.415321 5.54989,0 8.96521,-3.415321 3.62878,-3.6287786 3.62878,-9.1786756 0,-5.549896 -3.62878,-8.965217 z m -95.84244,-73.215947 q 3.62878,3.415323 9.17867,3.415323 5.5499,0 8.96522,-3.415323 3.62878,-3.62878 3.62878,-9.17867 0,-5.5499 -3.62878,-8.96522 -3.41532,-3.62878 -8.96522,-3.62878 -5.54989,0 -9.17867,3.62878 -3.41532,3.41532 -3.41532,8.96522 0,5.54989 3.41532,9.17867 z"
         style="font-style:normal;font-variant:normal;font-weight:300;font-stretch:normal;font-family:Boon;-inkscape-font-specification:'Boon Light';fill:#ffffff;fill-opacity:0.95"
         id="path4267"
         inkscape:connector-curvature="0" />
      <path
         d="m 669.99134,-0.10455513 0,-23.48033187 q 0,-1.921118 0.21346,-28.603314 0.21345,-26.895653 0.21345,-34.793583 0,-14.515116 -4.69606,-23.480336 -4.69607,-9.17867 -13.44783,-10.24596 l -19.21118,16.86315 -1.92112,0 -1.92112,0 -19.21118,-16.86315 q -8.75176,1.06729 -13.66128,10.24596 -4.90953,8.96522 -4.90953,23.480336 0,18.143893 2.34804,33.512838 2.56149,15.155487 2.56149,20.705383 l 0,12.807454 q 0,0.426915 0,1.921118 0.21346,1.280746 0.21346,2.134576 5.97681,-7.684472 21.1323,-18.143893 15.36894,-10.459421 20.27846,-16.009317 -2.77494,0.85383 -6.83064,0.85383 -9.17867,0 -15.15549,-5.549897 -5.97681,-5.549897 -5.97681,-14.301657 0,-8.75176 5.97681,-14.301657 5.97682,-5.549896 15.15549,-5.549896 9.17868,0 15.15549,5.549896 5.97681,5.549897 5.97681,14.301657 0,9.392133 -4.90952,17.503521 -4.90953,8.111387 -12.38054,14.088199 -7.25756,5.763354 -14.94203,11.099793 -7.47102,5.336439 -14.0882,12.167082 -6.40373,6.8306416 -8.5383,14.08819887 l -15.36895,0 q 2.13458,-16.00931787 2.13458,-26.04182287 0,-10.032506 -2.77495,-26.468738 -2.56149,-16.436233 -2.56149,-34.366668 0,-10.459421 2.56149,-19.638096 2.56149,-9.17868 10.24596,-16.43623 7.89793,-7.47102 20.06501,-7.47102 l 19.42464,17.93044 19.42464,-17.93044 q 12.16708,0 19.85155,7.47102 7.89793,7.25755 10.45942,16.43623 2.5615,9.178675 2.5615,19.638096 l 0,86.87722887 -13.44783,0 z M 640.10728,-78.016566 q -3.41532,-3.628779 -8.96522,-3.628779 -5.5499,0 -9.17867,3.628779 -3.41532,3.415321 -3.41532,8.965217 0,5.549897 3.41532,9.178676 3.62877,3.415321 9.17867,3.415321 5.5499,0 8.96522,-3.415321 3.62878,-3.628779 3.62878,-9.178676 0,-5.549896 -3.62878,-8.965217 z"
         style="font-style:normal;font-variant:normal;font-weight:300;font-stretch:normal;font-family:Boon;-inkscape-font-specification:'Boon Light';fill:#ffffff;fill-opacity:0.95"
         id="path4269"
         inkscape:connector-curvature="0" />
      <path
         d="m 670.20464,-169.58986 q -2.77495,-2.77495 -7.0441,-2.77495 -4.26915,0 -6.83064,2.77495 -2.77495,2.56149 -2.77495,6.83064 0,4.26915 2.77495,7.0441 2.56149,2.56149 6.83064,2.56149 4.26915,0 7.0441,-2.56149 2.56149,-2.77495 2.56149,-7.0441 0,-4.26915 -2.56149,-6.83064 z m -24.12071,6.83064 q 0,-7.47101 4.48261,-12.16708 4.48261,-4.69607 13.23437,-4.69607 l 5.76336,0 q 9.17867,0 13.23437,-3.20186 4.05569,-3.20186 4.05569,-10.45942 l 10.45942,1.06729 q 0,16.64969 -21.1323,18.5708 4.05569,4.48261 4.05569,10.88634 0,7.0441 -4.69606,11.52671 -4.90953,4.48261 -12.38054,4.48261 -7.47102,0 -12.16708,-4.48261 -4.90953,-4.48261 -4.90953,-11.52671 z"
         style="font-style:normal;font-variant:normal;font-weight:300;font-stretch:normal;font-family:Boon;-inkscape-font-specification:'Boon Light';fill:#ffffff;fill-opacity:0.95"
         id="path4271"
         inkscape:connector-curvature="0" />
      <path
         d="m 726.2641,-102.35073 q 2.13458,2.34803 5.97681,2.34803 3.84224,0 5.97681,-2.34803 2.13458,-2.34803 2.13458,-6.19027 0,-3.84223 -2.13458,-6.19027 -2.13457,-2.34803 -5.97681,-2.34803 -3.84223,0 -5.97681,2.34803 -2.13458,2.34804 -2.13458,6.19027 0,3.84224 2.13458,6.19027 z m 29.6706,-6.19027 q 0,5.12298 -1.4942,12.807456 -1.4942,7.471014 -1.4942,12.380538 l 0,42.264598 q 0,12.807454 7.47101,18.997724 7.47102,6.190269 20.27847,6.190269 12.80745,0 20.06501,-6.190269 7.47101,-6.19027 7.47101,-18.997724 l 0,-87.090682 27.32257,0 0,87.090682 q 0,19.638096 -15.15548,32.4455503 -15.15549,12.8074539 -39.70311,12.8074539 -24.54762,0 -39.91657,-12.8074539 -15.15548,-12.8074543 -15.15548,-32.4455503 l 0,-35.860871 q 0,-5.549896 2.77495,-10.032505 -8.75176,-1.067288 -14.30166,-6.830642 -5.5499,-5.976812 -5.5499,-14.728574 0,-9.81905 6.61719,-15.79586 6.83064,-5.97681 17.0766,-5.97681 10.24596,0 16.86315,5.97681 6.83064,5.97681 6.83064,15.79586 z"
         style="font-style:normal;font-variant:normal;font-weight:600;font-stretch:normal;font-family:Boon;-inkscape-font-specification:'Boon Semi-Bold';fill:#ffffff;fill-opacity:0.95"
         id="path4273"
         inkscape:connector-curvature="0" />
      <path
         d="m 816.76985,26.791098 q -1.92112,-1.921118 -5.12298,-1.921118 -3.20187,0 -5.12298,1.921118 -1.92112,2.134576 -1.92112,5.122982 0,2.988406 1.92112,4.909524 1.92111,2.134575 5.12298,2.134575 3.20186,0 5.12298,-2.134575 1.92112,-1.921118 1.92112,-4.909524 0,-2.988406 -1.92112,-5.122982 z m -4.69607,38.208904 0,-9.60559 q 0,-1.707661 1.28075,-4.696067 l -1.70766,0 q -8.75176,0 -14.51512,-5.122981 -5.76335,-5.122982 -5.76335,-13.661284 0,-8.538303 5.76335,-13.661285 5.76336,-5.122981 14.51512,-5.122981 8.75176,0 14.51511,5.122981 5.76336,5.122982 5.76336,13.661285 0,4.696066 -0.64038,10.245963 -0.64037,5.763354 -0.64037,9.392133 l 0,13.447826 -18.57081,0 z"
         style="font-style:normal;font-variant:normal;font-weight:600;font-stretch:normal;font-family:Boon;-inkscape-font-specification:'Boon Semi-Bold';fill:#ffffff;fill-opacity:0.95"
         id="path4275"
         inkscape:connector-curvature="0" />
      <path
         d="m 978.73774,26.791098 q -1.92111,-1.921118 -5.12298,-1.921118 -3.20186,0 -5.12298,1.921118 -1.92112,2.134576 -1.92112,5.122982 0,2.988406 1.92112,4.909524 1.92112,2.134575 5.12298,2.134575 3.20187,0 5.12298,-2.134575 1.92112,-1.921118 1.92112,-4.909524 0,-2.988406 -1.92112,-5.122982 z m -19.63809,-8.538303 q 5.76335,-5.122981 14.51511,-5.122981 8.75176,0 14.51512,5.122981 5.76335,5.122982 5.76335,13.661285 0,6.403727 -3.41532,11.099793 l 1.92112,0 3.20186,0 q 21.77271,0 21.77271,-26.468738 l 20.2784,2.134576 q 0,16.863147 -10.6728,26.895653 -10.6729,10.245963 -27.74953,10.245963 l -13.87474,0 q -14.51512,0 -23.26688,-6.403727 -8.75176,-6.190269 -8.75176,-17.50352 0,-8.538303 5.76336,-13.661285 z m -59.55466,-44.185716 q -2.13458,-2.348033 -5.97682,-2.348033 -3.84223,0 -5.97681,2.348033 -2.13457,2.348034 -2.13457,6.19027 0,3.842236 2.13457,6.190269 2.13458,2.348033 5.97681,2.348033 3.84224,0 5.97682,-2.348033 2.13457,-2.348033 2.13457,-6.190269 0,-3.842236 -2.13457,-6.19027 z M 919.61,-132.44825 q 26.04182,0 42.05114,13.66129 16.22277,13.44783 16.22277,34.366667 l 0,49.308697 q 0,10.032506 4.90953,14.515115 5.12298,4.482608 12.59399,4.482608 7.47097,0 12.38057,-4.482608 4.9095,-4.482609 4.9095,-14.515115 l 0,-93.067494 27.3226,0 0,93.067494 q 0,16.436233 -12.1671,27.9629412 -11.9536,11.313251 -32.44557,11.313251 -20.49192,0 -32.659,-11.313251 -12.16709,-11.5267082 -12.16709,-27.9629412 l 0,-49.308697 q 0,-14.0882 -8.32484,-20.918837 -8.32485,-6.83065 -22.6265,-6.83065 -21.77267,0 -28.60332,18.143896 l 29.03023,6.19027 -2.9884,11.31325 -1.06729,-0.213457 q -1.28075,-0.213458 -2.98841,-0.426915 -1.70766,-0.213458 -2.9884,-0.213458 -10.45942,0 -10.45942,12.167081 l 0,13.874742 q 0,5.336439 -2.56149,10.032506 8.96521,1.067288 14.51511,6.830642 5.76335,5.763354 5.76335,14.728572 0,9.8190479 -6.83064,15.7958597 -6.61718,5.9768118 -16.86315,5.9768118 -10.24596,0 -17.0766,-5.9768118 -6.61718,-5.9768118 -6.61718,-15.7958597 0,-5.122982 1.06728,-12.593996 1.28075,-7.684473 1.28075,-12.593997 l 0,-17.50352 q 0,-15.79586 14.30166,-20.705384 l -24.97454,-4.909524 q 2.56149,-18.357348 17.71698,-31.378258 15.15549,-13.02092 40.34348,-13.02092 z"
         style="font-style:normal;font-variant:normal;font-weight:600;font-stretch:normal;font-family:Boon;-inkscape-font-specification:'Boon Semi-Bold';fill:#ffffff;fill-opacity:0.95"
         id="path4277"
         inkscape:connector-curvature="0" />
    </g>
    <g
       style="font-style:normal;font-weight:normal;font-size:40.58958435px;line-height:125%;font-family:sans-serif;letter-spacing:0px;word-spacing:0px;fill:#ffffff;fill-opacity:0.95;stroke:none;stroke-width:1px;stroke-linecap:butt;stroke-linejoin:miter;stroke-opacity:1"
       id="text4211"
       transform="translate(0,5)">
      <path
         d="m 139.99999,131.36854 q 0,-5.58107 3.88984,-9.13266 3.88983,-3.63615 10.65476,-3.63615 6.76493,0 10.65477,3.63615 3.9744,3.55159 3.9744,9.13266 0,2.79053 -1.18387,5.24282 -1.18386,2.36772 -2.87509,4.14352 -1.60667,1.69123 -3.29791,3.38246 -1.69123,1.60667 -2.87509,3.72072 -1.18387,2.02947 -1.18387,4.31264 l 0,23.25445 q 0,2.53685 -0.93017,4.82001 0.4228,-0.0846 1.35298,-0.0846 3.80528,0 6.25756,2.28316 2.45229,2.19861 2.45229,5.83476 0,3.63615 -2.45229,5.91931 -2.45228,2.1986 -6.25756,2.1986 -3.80527,0 -6.25756,-2.1986 -2.45229,-2.28316 -2.45229,-5.91931 0,-1.94492 0.50737,-5.15826 0.59194,-3.29791 0.59194,-5.15826 l 0,-25.7913 q 0,-2.8751 1.26842,-5.24282 1.26842,-2.36773 3.12878,-4.05896 1.86036,-1.7758 3.63615,-3.38247 1.86036,-1.60667 3.12878,-3.63615 1.26843,-2.11404 1.26843,-4.48176 0,-4.05896 -2.28317,-6.08844 -2.1986,-2.11404 -6.173,-2.11404 -3.97439,0 -6.25756,2.11404 -2.1986,2.02948 -2.1986,6.08844 0,2.1986 1.43755,4.22808 l -5.58107,1.86035 q -1.94492,-3.21334 -1.94492,-6.08843 z m 21.30953,53.7812 q -1.18386,-1.26843 -3.12878,-1.26843 -1.94491,0 -3.21334,1.26843 -1.18386,1.18386 -1.18386,3.12878 0,1.94491 1.18386,3.21334 1.26843,1.18386 3.21334,1.18386 1.94492,0 3.12878,-1.18386 1.26843,-1.26843 1.26843,-3.21334 0,-1.94492 -1.26843,-3.12878 z"
         style="font-style:normal;font-variant:normal;font-weight:normal;font-stretch:normal;font-size:101.47396088px;font-family:Boon;-inkscape-font-specification:Boon;fill:#ffffff;fill-opacity:0.95"
         id="path4216"
         inkscape:connector-curvature="0" />
      <path
         d="m 224.05954,212.46314 -5.83475,2.11404 q -7.18774,-9.30178 -7.18774,-21.22497 0,-2.79053 0.33825,-6.17299 -9.72459,10.06283 -20.54848,10.06283 -6.68037,0 -10.65477,-3.2979 -3.88983,-3.38247 -3.88983,-8.96354 0,-7.2723 10.14739,-11.24669 0.33825,-0.0846 0.84562,-0.33825 l 0.50737,-0.16912 q 1.43755,-0.59194 6.34212,-2.53685 4.98914,-1.94492 7.01862,-2.79054 1.77579,-0.76105 2.79053,-1.26842 1.0993,-0.59193 2.53685,-1.69123 1.52211,-1.09931 2.1986,-2.70598 0.76106,-1.60667 0.76106,-3.72071 0,-4.65089 -3.72071,-7.35686 -3.63615,-2.79053 -9.30178,-2.79053 -4.65089,0 -8.54073,1.60667 2.70597,0.76105 4.22808,2.79053 1.60667,2.02948 1.60667,4.90457 0,3.63616 -2.45228,5.91932 -2.45229,2.1986 -6.25756,2.1986 -3.80528,0 -6.25756,-2.1986 -2.45229,-2.28316 -2.45229,-5.91932 0,-5.83475 5.58107,-9.97827 5.58106,-4.22808 14.5446,-4.22808 8.87897,0 14.46004,4.31264 5.58106,4.22809 5.58106,10.73933 0,3.21334 -1.0993,5.75019 -1.0993,2.53685 -3.2979,4.22808 -2.11404,1.69124 -3.55159,2.53685 -1.43755,0.76106 -3.9744,1.86036 -1.86035,0.76105 -6.68037,2.70597 -4.82001,1.86036 -6.68036,2.62141 -5.24283,2.11404 -6.68037,3.72071 -1.26843,1.43755 -1.26843,3.29791 0,3.12878 2.02948,4.98913 2.11404,1.86036 5.83475,1.86036 10.48565,0 20.54848,-11.58494 l 5.24282,0.76105 0,9.55547 q 0,3.46702 0.59193,6.68036 0.59194,3.21335 1.01474,4.90458 0.50737,1.77579 1.94492,4.22808 1.52211,2.53685 1.7758,2.8751 0.25368,0.4228 1.86035,2.62141 l 0,0.33824 z m -42.28082,-51.58259 q 1.26843,1.18386 3.21335,1.18386 1.94491,0 3.12878,-1.18386 1.26842,-1.26843 1.26842,-3.21335 0,-1.94491 -1.26842,-3.12878 -1.18387,-1.26842 -3.12878,-1.26842 -1.94492,0 -3.21335,1.26842 -1.18386,1.18387 -1.18386,3.12878 0,1.94492 1.18386,3.21335 z"
         style="font-style:normal;font-variant:normal;font-weight:normal;font-stretch:normal;font-size:101.47396088px;font-family:Boon;-inkscape-font-specification:Boon;fill:#ffffff;fill-opacity:0.95"
         id="path4218"
         inkscape:connector-curvature="0" />
      <path
         d="m 189.64282,123.0815 q -0.67649,-0.6765 -1.69123,-0.6765 -1.01474,0 -1.69123,0.6765 -0.6765,0.67649 -0.6765,1.77579 0,1.0993 0.6765,1.7758 0.67649,0.67649 1.69123,0.67649 1.01474,0 1.69123,-0.67649 0.6765,-0.6765 0.6765,-1.7758 0,-1.0993 -0.6765,-1.77579 z m 1.52211,11.41582 q 0.33825,-1.69124 0.33825,-3.63615 0,-1.0993 -0.25369,-2.28317 -1.26842,1.01474 -3.2979,1.01474 -2.1986,0 -3.63615,-1.26842 -1.43755,-1.35299 -1.43755,-3.46703 0,-2.11404 1.43755,-3.38246 1.43755,-1.35299 3.63615,-1.35299 3.12878,0 4.98914,2.02948 1.77579,1.94492 2.11404,5.0737 0.33824,2.36772 0.33824,3.38246 0,0.33825 0,0.93018 -0.0846,0.50737 -0.0846,0.76105 0.84562,-0.16912 1.35299,-0.16912 5.66563,0 8.28704,-3.04422 2.62141,-3.04422 2.62141,-9.21722 l 5.75019,0.76106 q 0,6.76493 -4.14352,10.90845 -4.22808,4.14352 -11.50038,4.14352 l -5.75019,0 -0.84562,-1.0993 0.0846,-0.0846 z"
         style="font-style:normal;font-variant:normal;font-weight:normal;font-stretch:normal;font-size:101.47396088px;font-family:Boon;-inkscape-font-specification:Boon;fill:#ffffff;fill-opacity:0.95"
         id="path4220"
         inkscape:connector-curvature="0" />
      <path
         d="m 234.69581,160.88055 q 1.26843,1.18386 3.21334,1.18386 1.94492,0 3.12878,-1.18386 1.26843,-1.26843 1.26843,-3.21335 0,-1.94491 -1.26843,-3.12878 -1.18386,-1.26842 -3.12878,-1.26842 -1.94491,0 -3.21334,1.26842 -1.18386,1.18387 -1.18386,3.12878 0,1.94492 1.18386,3.21335 z m 30.61131,25.19936 q -10.14739,11.16214 -21.56321,11.16214 -6.68037,0 -10.65477,-3.2979 -3.88983,-3.38247 -3.88983,-8.96354 0,-7.2723 10.14739,-11.24669 0.33825,-0.0846 0.84562,-0.33825 l 0.50737,-0.16912 q 1.43755,-0.59194 6.34212,-2.53685 4.98914,-1.94492 7.01862,-2.79054 1.77579,-0.76105 2.79053,-1.26842 1.0993,-0.59193 2.53685,-1.69123 1.52211,-1.09931 2.1986,-2.70598 0.76106,-1.60667 0.76106,-3.72071 0,-4.65089 -3.72072,-7.35686 -3.63615,-2.79053 -9.30178,-2.79053 -4.65089,0 -8.54072,1.60667 2.70597,0.76105 4.22808,2.79053 1.60667,2.02948 1.60667,4.90457 0,3.63616 -2.45229,5.91932 -2.45228,2.1986 -6.25756,2.1986 -3.80527,0 -6.25756,-2.1986 -2.45228,-2.28316 -2.45228,-5.91932 0,-5.83475 5.58106,-9.97827 5.58107,-4.22808 14.5446,-4.22808 8.87898,0 14.46004,4.31264 5.58107,4.22809 5.58107,10.73933 0,3.21334 -1.0993,5.75019 -1.0993,2.53685 -3.2979,4.22808 -2.11404,1.69124 -3.55159,2.53685 -1.43755,0.76106 -3.9744,1.86036 -1.86035,0.76105 -6.68037,2.70597 -4.82001,1.86036 -6.68037,2.62141 -5.24282,2.11404 -6.68037,3.72071 -1.26842,1.43755 -1.26842,3.29791 0,3.12878 2.02948,4.98913 2.11404,1.86036 5.83475,1.86036 10.48564,0 20.54848,-11.58494 l 3.63615,0 6.25756,14.79828 0,0.33825 -5.75019,1.0993 -2.53685,-7.18774 q -0.67649,-2.87509 -0.84562,-3.46703 z"
         style="font-style:normal;font-variant:normal;font-weight:normal;font-stretch:normal;font-size:101.47396088px;font-family:Boon;-inkscape-font-specification:Boon;fill:#ffffff;fill-opacity:0.95"
         id="path4222"
         inkscape:connector-curvature="0" />
      <path
         d="m 280.42516,155.72229 q 0,-5.49651 3.72071,-8.87897 3.80527,-3.38247 9.97827,-3.38247 11.41582,0 19.19549,10.5702 0.0846,-0.33824 0.25369,-1.35298 0.25368,-1.01474 0.42281,-1.52211 l 2.53684,-7.18774 5.7502,1.0993 0,0.33825 -6.25757,14.79828 -3.63615,0 q -1.60667,-2.1986 -2.95965,-3.63615 -1.26843,-1.43754 -3.63615,-3.55159 -2.28317,-2.11404 -5.15826,-3.21334 -2.8751,-1.18386 -6.00388,-1.18386 -3.46703,0 -5.41194,1.94492 -1.86036,1.86035 -1.86036,4.90457 0,0.84562 0.16912,1.52211 0.25369,0.67649 0.76106,1.35299 0.50737,0.59193 0.84561,1.01474 0.42281,0.42281 1.35299,0.93018 0.93018,0.50737 1.35299,0.76105 0.42281,0.16912 1.60667,0.76105 1.18386,0.50737 1.52211,0.6765 1.01474,0.50737 5.32738,2.45229 4.39721,1.86035 6.25756,2.79053 2.11404,1.01474 2.95966,1.52211 0.93018,0.42281 2.87509,1.86035 2.02948,1.35299 2.95966,2.70598 1.01474,1.26842 1.86036,3.55159 0.84561,2.1986 0.84561,4.82001 l 0,17.58882 q 0,6.42668 -4.73545,10.82389 -4.65089,4.3972 -12.7688,4.3972 -8.11792,0 -12.85337,-4.22808 -4.73545,-4.22808 -4.73545,-9.97827 0,-3.63615 2.45228,-5.83475 2.45229,-2.28317 6.25756,-2.28317 3.80528,0 6.25756,2.28317 2.45229,2.1986 2.45229,5.83475 0,3.2979 -2.11404,5.4965 -2.11404,2.19861 -5.58107,2.53685 3.55159,1.69124 7.61055,1.69124 4.90458,0 7.77967,-2.79054 2.95966,-2.79053 2.95966,-7.69511 l 0,-17.8425 q 0,-2.11404 -0.67649,-3.63615 -0.59194,-1.60667 -2.02948,-2.70597 -1.35299,-1.18387 -2.28317,-1.69124 -0.84561,-0.59193 -2.62141,-1.35298 -1.52211,-0.76106 -6.08844,-2.62141 -4.48176,-1.86036 -6.08843,-2.62141 l -1.43755,-0.59194 q -1.43755,-0.67649 -2.02948,-1.01474 -0.59193,-0.33824 -2.02948,-1.0993 -1.35299,-0.84561 -2.02948,-1.60667 -0.67649,-0.84561 -1.60667,-1.94491 -0.93018,-1.18387 -1.35299,-2.53685 -0.33824,-1.43755 -0.33824,-3.04422 z m 14.37547,41.85801 q -1.18386,-1.18387 -3.12878,-1.18387 -1.94491,0 -3.21334,1.18387 -1.18386,1.26842 -1.18386,3.21334 0,1.94492 1.18386,3.12878 1.26843,1.26842 3.21334,1.26842 1.94492,0 3.12878,-1.26842 1.26843,-1.18386 1.26843,-3.12878 0,-1.94492 -1.26843,-3.21334 z"
         style="font-style:normal;font-variant:normal;font-weight:normal;font-stretch:normal;font-size:101.47396088px;font-family:Boon;-inkscape-font-specification:Boon;fill:#ffffff;fill-opacity:0.95"
         id="path4224"
         inkscape:connector-curvature="0" />
      <path
         d="m 334.47853,155.63773 q 1.26843,1.18386 3.21334,1.18386 1.94492,0 3.12878,-1.18386 1.26843,-1.26843 1.26843,-3.21335 0,-1.94491 -1.26843,-3.12878 -1.18386,-1.26842 -3.12878,-1.26842 -1.94491,0 -3.21334,1.26842 -1.18386,1.18387 -1.18386,3.12878 0,1.94492 1.18386,3.21335 z m 3.21334,4.90457 q -3.80527,0 -6.25756,-2.1986 -2.45228,-2.28317 -2.45228,-5.91932 0,-3.63615 2.45228,-5.83475 2.45229,-2.28316 6.25756,-2.28316 3.80528,0 6.25757,2.28316 2.45228,2.1986 2.45228,5.83475 0,1.94492 -0.59193,5.24282 -0.50737,3.21335 -0.50737,5.0737 l 0,15.64391 q 2.36773,5.66562 6.42669,9.38634 4.14352,3.63615 8.79441,3.63615 3.72071,0 6.08843,-2.53685 2.36773,-2.62141 2.36773,-7.86423 l 0,-36.02326 7.18774,0 0,35.60045 q 0,7.01861 -3.63615,11.6695 -3.55159,4.56633 -10.31652,4.56633 -10.40108,0 -16.99689,-10.73933 -0.59193,5.24283 -4.39721,7.86424 -3.72071,2.53684 -7.94879,2.87509 l -1.52211,-4.73545 q 6.76493,-0.76105 6.76493,-7.61055 l 0,-19.19549 q 0,-2.79053 0.93018,-4.82001 -0.42281,0.0846 -1.35299,0.0846 z"
         style="font-style:normal;font-variant:normal;font-weight:normal;font-stretch:normal;font-size:101.47396088px;font-family:Boon;-inkscape-font-specification:Boon;fill:#ffffff;fill-opacity:0.95"
         id="path4226"
         inkscape:connector-curvature="0" />
      <path
         d="m 392.12315,155.63773 q 1.26842,1.18386 3.21334,1.18386 1.94492,0 3.12878,-1.18386 1.26843,-1.26843 1.26843,-3.21335 0,-1.94491 -1.26843,-3.12878 -1.18386,-1.26842 -3.12878,-1.26842 -1.94492,0 -3.21334,1.26842 -1.18386,1.18387 -1.18386,3.12878 0,1.94492 1.18386,3.21335 z m 3.21334,4.90457 q -3.80527,0 -6.25756,-2.1986 -2.45229,-2.28317 -2.45229,-5.91932 0,-3.63615 2.45229,-5.83475 2.45229,-2.28316 6.25756,-2.28316 3.80528,0 6.25756,2.28316 2.45229,2.1986 2.45229,5.83475 0,4.39721 -2.8751,9.97828 -2.87509,5.4965 -2.87509,9.21721 l 0,13.4453 q 0,3.29791 2.02948,5.0737 2.02948,1.7758 5.0737,1.7758 2.95965,0 4.90457,-2.02948 2.02948,-2.11404 2.02948,-5.49651 l 0,-16.57408 6.25756,0 0,16.57408 q 0,3.38247 1.94492,5.49651 2.02948,2.02948 4.98914,2.02948 3.04421,0 5.07369,-1.7758 2.02948,-1.77579 2.02948,-5.0737 l 0,-40.08221 7.10318,0 0,40.08221 q 0,5.24283 -3.46703,8.70985 -3.46702,3.46703 -9.64002,3.46703 -7.10318,0 -11.16214,-6.08844 -4.05896,6.08844 -11.16213,6.08844 -6.173,0 -9.64003,-3.46703 -3.46703,-3.46702 -3.46703,-8.70985 l 0,-13.4453 q 0,-2.1986 1.0993,-4.48176 1.0993,-2.36773 1.94492,-3.46703 0.84562,-1.0993 2.70597,-3.21334 -0.50737,0.0846 -1.60667,0.0846 z"
         style="font-style:normal;font-variant:normal;font-weight:normal;font-stretch:normal;font-size:101.47396088px;font-family:Boon;-inkscape-font-specification:Boon;fill:#ffffff;fill-opacity:0.95"
         id="path4228"
         inkscape:connector-curvature="0" />
      <path
         d="m 461.91821,154.53842 q -1.18387,-1.26842 -3.12878,-1.26842 -1.94492,0 -3.21335,1.26842 -1.18386,1.18387 -1.18386,3.12878 0,1.94492 1.18386,3.21335 1.26843,1.18386 3.21335,1.18386 1.94491,0 3.12878,-1.18386 1.26842,-1.26843 1.26842,-3.21335 0,-1.94491 -1.26842,-3.12878 z m 13.69898,41.18152 0,-37.96817 q 0,-4.82002 -2.62141,-7.2723 -2.53685,-2.53685 -6.84949,-2.53685 -3.63615,0 -6.42669,1.60667 3.46703,0.33824 5.58107,2.62141 2.19861,2.1986 2.19861,5.4965 0,3.63616 -2.45229,5.91932 -2.45229,2.1986 -6.25756,2.1986 -3.80528,0 -6.25756,-2.1986 -2.45229,-2.28316 -2.45229,-5.91932 0,-6.08843 4.48177,-10.14739 4.48176,-4.05896 11.75406,-4.05896 7.52599,0 11.92319,4.14352 4.39721,4.05896 4.39721,10.31652 l 0,37.79905 -7.01862,0 z"
         style="font-style:normal;font-variant:normal;font-weight:normal;font-stretch:normal;font-size:101.47396088px;font-family:Boon;-inkscape-font-specification:Boon;fill:#ffffff;fill-opacity:0.95"
         id="path4230"
         inkscape:connector-curvature="0" />
      <path
         d="m 509.43657,185.14974 q -1.18386,-1.26843 -3.12878,-1.26843 -1.94492,0 -3.21334,1.26843 -1.18387,1.18386 -1.18387,3.12878 0,1.94491 1.18387,3.21334 1.26842,1.18386 3.21334,1.18386 1.94492,0 3.12878,-1.18386 1.26842,-1.26843 1.26842,-3.21334 0,-1.94492 -1.26842,-3.12878 z m -3.12878,-4.98914 q 3.80527,0 6.25756,2.28316 2.45229,2.19861 2.45229,5.83476 0,3.63615 -2.45229,5.91931 -2.45229,2.1986 -6.25756,2.1986 -4.48177,0 -7.18774,-2.70597 -2.70597,-2.70597 -2.70597,-6.93405 l 0,-3.29791 q 0,-5.15826 3.12878,-8.87897 3.21334,-3.80527 9.72459,-3.80527 8.03335,0 13.52986,4.82001 5.58107,4.73545 8.96353,11.75407 -0.50737,-2.8751 -0.50737,-4.31264 l 0,-13.69899 q 0,-2.36773 0.16912,-5.24282 0.16913,-2.8751 0.16913,-4.14352 l 0,-0.93018 q -6.42669,4.73545 -16.23584,4.73545 -8.79441,0 -14.29091,-2.53685 -5.49651,-2.62141 -5.49651,-6.25756 0,-4.05896 5.32738,-7.77967 5.32739,-3.72071 14.46004,-3.72071 6.51125,0 11.2467,2.11404 4.73545,2.11404 7.10318,5.0737 2.28316,-3.9744 2.45229,-8.79441 l 6.34212,0.59193 q -0.16912,3.2979 -1.69123,6.59581 -1.52211,3.21334 -4.14352,5.24282 1.60667,2.8751 1.60667,5.91931 l 0,31.87974 q 0,1.52211 -1.35299,2.70597 -1.26842,1.18387 -3.46703,1.18387 l -3.21334,-0.25369 q -0.93018,-3.21334 -2.45229,-6.34212 -1.52211,-3.12878 -4.05895,-6.42669 -2.45229,-3.38246 -6.25757,-5.41194 -3.72071,-2.02948 -8.20247,-2.02948 -2.8751,0 -4.56633,1.43755 -1.69123,1.43755 -2.11404,3.88983 1.77579,-0.67649 3.72071,-0.67649 z m -4.05896,-25.19937 q 0,1.0993 1.0993,2.11404 1.18386,1.01474 4.22808,1.86036 3.12878,0.76105 7.77967,0.76105 9.64003,0 14.96741,-4.98913 -1.86035,-3.29791 -5.83475,-5.0737 -3.9744,-1.86036 -9.13266,-1.86036 -6.00387,0 -9.55546,2.28317 -3.55159,2.28316 -3.55159,4.90457 z"
         style="font-style:normal;font-variant:normal;font-weight:normal;font-stretch:normal;font-size:101.47396088px;font-family:Boon;-inkscape-font-specification:Boon;fill:#ffffff;fill-opacity:0.95"
         id="path4232"
         inkscape:connector-curvature="0" />
      <path
         d="m 561.41024,154.53842 q -1.18386,-1.26842 -3.12878,-1.26842 -1.94492,0 -3.21334,1.26842 -1.18386,1.18387 -1.18386,3.12878 0,1.94492 1.18386,3.21335 1.26842,1.18386 3.21334,1.18386 1.94492,0 3.12878,-1.18386 1.26843,-1.26843 1.26843,-3.21335 0,-1.94491 -1.26843,-3.12878 z m 13.69899,41.18152 0,-37.96817 q 0,-4.82002 -2.62141,-7.2723 -2.53685,-2.53685 -6.8495,-2.53685 -3.63615,0 -6.42668,1.60667 3.46703,0.33824 5.58107,2.62141 2.1986,2.1986 2.1986,5.4965 0,3.63616 -2.45229,5.91932 -2.45228,2.1986 -6.25756,2.1986 -3.80527,0 -6.25756,-2.1986 -2.45229,-2.28316 -2.45229,-5.91932 0,-6.08843 4.48177,-10.14739 4.48177,-4.05896 11.75407,-4.05896 7.52598,0 11.92319,4.14352 4.3972,4.05896 4.3972,10.31652 l 0,37.79905 -7.01861,0 z"
         style="font-style:normal;font-variant:normal;font-weight:normal;font-stretch:normal;font-size:101.47396088px;font-family:Boon;-inkscape-font-specification:Boon;fill:#ffffff;fill-opacity:0.95"
         id="path4234"
         inkscape:connector-curvature="0" />
      <path
         d="m 608.9286,185.14974 q -1.18386,-1.26843 -3.12878,-1.26843 -1.94491,0 -3.21334,1.26843 -1.18386,1.18386 -1.18386,3.12878 0,1.94491 1.18386,3.21334 1.26843,1.18386 3.21334,1.18386 1.94492,0 3.12878,-1.18386 1.26843,-1.26843 1.26843,-3.21334 0,-1.94492 -1.26843,-3.12878 z m -3.12878,-4.98914 q 3.80528,0 6.25756,2.28316 2.45229,2.19861 2.45229,5.83476 0,3.63615 -2.45229,5.91931 -2.45228,2.1986 -6.25756,2.1986 -4.48176,0 -7.18773,-2.70597 -2.70598,-2.70597 -2.70598,-6.93405 l 0,-3.29791 q 0,-5.15826 3.12878,-8.87897 3.21335,-3.80527 9.72459,-3.80527 8.03336,0 13.52986,4.82001 5.58107,4.73545 8.96354,11.75407 -0.50737,-2.8751 -0.50737,-4.31264 l 0,-21.90147 q 0,-6.00387 -3.88984,-9.13265 -3.88983,-3.12879 -10.48564,-3.12879 -6.08844,0 -9.72459,3.12879 -3.63615,3.12878 -4.3972,8.54072 l -7.18774,-0.50737 q 0.93017,-7.01862 6.51124,-11.75407 5.58107,-4.82001 14.79829,-4.82001 9.64002,0 15.47478,4.90458 5.91931,4.90457 5.91931,12.7688 l 0,30.94956 q 0,1.52211 -1.35298,2.70597 -1.26843,1.18387 -3.46703,1.18387 l -3.21334,-0.25369 q -0.93018,-3.21334 -2.45229,-6.34212 -1.52211,-3.12878 -4.05896,-6.42669 -2.45229,-3.38246 -6.25756,-5.41194 -3.72071,-2.02948 -8.20248,-2.02948 -2.87509,0 -4.56633,1.43755 -1.69123,1.43755 -2.11404,3.88983 1.7758,-0.67649 3.72071,-0.67649 z"
         style="font-style:normal;font-variant:normal;font-weight:normal;font-stretch:normal;font-size:101.47396088px;font-family:Boon;-inkscape-font-specification:Boon;fill:#ffffff;fill-opacity:0.95"
         id="path4236"
         inkscape:connector-curvature="0" />
      <path
         d="m 659.91134,154.53842 q -1.18386,-1.26842 -3.12878,-1.26842 -1.94492,0 -3.21334,1.26842 -1.18386,1.18387 -1.18386,3.12878 0,1.94492 1.18386,3.21335 1.26842,1.18386 3.21334,1.18386 1.94492,0 3.12878,-1.18386 1.26843,-1.26843 1.26843,-3.21335 0,-1.94491 -1.26843,-3.12878 z m 13.69899,41.18152 0,-37.96817 q 0,-4.82002 -2.62142,-7.2723 -2.53684,-2.53685 -6.84949,-2.53685 -3.63615,0 -6.42668,1.60667 3.46703,0.33824 5.58107,2.62141 2.1986,2.1986 2.1986,5.4965 0,3.63616 -2.45229,5.91932 -2.45229,2.1986 -6.25756,2.1986 -3.80527,0 -6.25756,-2.1986 -2.45229,-2.28316 -2.45229,-5.91932 0,-6.08843 4.48177,-10.14739 4.48177,-4.05896 11.75407,-4.05896 7.52598,0 11.92319,4.14352 4.3972,4.05896 4.3972,10.31652 l 0,37.79905 -7.01861,0 z"
         style="font-style:normal;font-variant:normal;font-weight:normal;font-stretch:normal;font-size:101.47396088px;font-family:Boon;-inkscape-font-specification:Boon;fill:#ffffff;fill-opacity:0.95"
         id="path4238"
         inkscape:connector-curvature="0" />
      <path
         d="m 704.97742,179.90691 q -1.18387,-1.26842 -3.12878,-1.26842 -1.94492,0 -3.21335,1.26842 -1.18386,1.18387 -1.18386,3.12879 0,1.94491 1.18386,3.21334 1.26843,1.18386 3.21335,1.18386 1.94491,0 3.12878,-1.18386 1.26842,-1.26843 1.26842,-3.21334 0,-1.94492 -1.26842,-3.12879 z m -9.38635,-2.70597 q 2.45229,-2.28316 6.25757,-2.28316 3.80527,0 6.25756,2.28316 2.45228,2.1986 2.45228,5.83476 0,2.70597 -1.43754,4.73545 -1.43755,1.94491 -3.88984,2.79053 2.8751,1.52211 7.18774,1.52211 5.49651,0 8.70985,-2.79053 3.2979,-2.8751 3.2979,-8.20248 l 0,-20.97129 q 0,-5.58107 -3.46703,-8.3716 -3.46702,-2.8751 -9.38634,-2.8751 -5.4965,0 -8.87897,2.8751 -3.38246,2.79053 -4.05896,7.77967 l -7.18774,-0.50737 q 0.84562,-6.51124 6.08844,-10.99301 5.24282,-4.56633 14.03723,-4.56633 9.0481,0 14.5446,4.65089 5.49651,4.56633 5.49651,12.00775 l 0,20.97129 q 0,7.18774 -5.24282,11.6695 -5.24282,4.48177 -13.95267,4.48177 -8.70985,0 -14.03723,-4.14352 -5.24282,-4.22808 -5.24282,-10.06283 0,-3.63616 2.45228,-5.83476 z"
         style="font-style:normal;font-variant:normal;font-weight:normal;font-stretch:normal;font-size:101.47396088px;font-family:Boon;-inkscape-font-specification:Boon;fill:#ffffff;fill-opacity:0.95"
         id="path4240"
         inkscape:connector-curvature="0" />
      <path
         d="m 754.44599,185.14974 q -1.18386,-1.26843 -3.12878,-1.26843 -1.94492,0 -3.21334,1.26843 -1.18386,1.18386 -1.18386,3.12878 0,1.94491 1.18386,3.21334 1.26842,1.18386 3.21334,1.18386 1.94492,0 3.12878,-1.18386 1.26843,-1.26843 1.26843,-3.21334 0,-1.94492 -1.26843,-3.12878 z m -6.34212,-29.51201 q 1.26842,1.18386 3.21334,1.18386 1.94492,0 3.12878,-1.18386 1.26843,-1.26843 1.26843,-3.21335 0,-1.94491 -1.26843,-3.12878 -1.18386,-1.26842 -3.12878,-1.26842 -1.94492,0 -3.21334,1.26842 -1.18386,1.18387 -1.18386,3.12878 0,1.94492 1.18386,3.21335 z m 3.21334,4.90457 q -3.80527,0 -6.25756,-2.1986 -2.45229,-2.28317 -2.45229,-5.91932 0,-3.63615 2.45229,-5.83475 2.45229,-2.28316 6.25756,-2.28316 3.80527,0 6.25756,2.28316 2.45229,2.1986 2.45229,5.83475 l 0,0.42281 q 2.02948,-2.02948 3.21334,-3.04422 1.18386,-1.0993 3.38247,-2.70597 2.28316,-1.69123 4.73545,-2.45229 2.45228,-0.76105 5.0737,-0.76105 6.93405,0 10.5702,4.65089 3.63615,4.56633 3.63615,11.58494 l 0,35.60045 -7.18774,0 0,-35.60045 q 0,-10.82389 -8.45616,-10.82389 -2.95966,0 -5.83476,1.60667 -2.87509,1.52211 -6.08843,4.22809 -3.12878,2.70597 -4.31265,3.46702 -0.67649,2.53685 -0.67649,4.14352 l 0,7.61055 0,7.61055 q 0,1.86035 0.93018,5.15826 1.01474,3.21334 1.01474,5.15826 0,3.63615 -2.45229,5.91931 -2.45229,2.1986 -6.25756,2.1986 -3.80527,0 -6.25756,-2.1986 -2.45229,-2.28316 -2.45229,-5.91931 0,-3.63615 2.45229,-5.83476 2.45229,-2.28316 6.25756,-2.28316 l 0.67649,0 q -1.0993,-2.02948 -1.0993,-4.73545 l 0,-5.0737 0,-5.0737 q 0,-2.70597 1.0993,-4.73545 l -0.67649,0 z"
         style="font-style:normal;font-variant:normal;font-weight:normal;font-stretch:normal;font-size:101.47396088px;font-family:Boon;-inkscape-font-specification:Boon;fill:#ffffff;fill-opacity:0.95"
         id="path4242"
         inkscape:connector-curvature="0" />
      <path
         d="m 764.0859,123.92711 q 2.45229,-2.28316 6.25756,-2.28316 3.80528,0 6.25756,2.28316 2.45229,2.19861 2.45229,5.83476 0,3.63615 -2.45229,5.91931 -2.45228,2.1986 -6.25756,2.1986 -3.80527,0 -6.25756,-2.1986 -2.45229,-2.28316 -2.45229,-5.91931 0,-3.63615 2.45229,-5.83476 z m 9.4709,2.70598 q -1.26842,-1.26843 -3.21334,-1.26843 -1.94492,0 -3.12878,1.26843 -1.26842,1.18386 -1.26842,3.12878 0,1.94491 1.26842,3.21334 1.18386,1.18386 3.12878,1.18386 1.94492,0 3.21334,-1.18386 1.18387,-1.26843 1.18387,-3.21334 0,-1.94492 -1.18387,-3.12878 z"
         style="font-style:normal;font-variant:normal;font-weight:normal;font-stretch:normal;font-size:101.47396088px;font-family:Boon;-inkscape-font-specification:Boon;fill:#ffffff;fill-opacity:0.95"
         id="path4244"
         inkscape:connector-curvature="0" />
      <path
         d="m 767.72205,115.38639 0,-14.79829 5.41195,0 0,15.72847 -5.41195,-0.93018 z"
         style="font-style:normal;font-variant:normal;font-weight:normal;font-stretch:normal;font-size:101.47396088px;font-family:Boon;-inkscape-font-specification:Boon;fill:#ffffff;fill-opacity:0.95"
         id="path4246"
         inkscape:connector-curvature="0" />
      <path
         d="m 799.18438,121.39026 2.28316,-4.14352 q 3.80528,0.93018 5.91932,3.12878 2.1986,2.19861 2.1986,5.32739 l 0,6.34212 q 0,5.75019 4.98914,5.75019 0.84561,0 1.69123,-0.0846 0.93018,-0.16912 1.60667,-0.33825 0.76105,-0.16912 1.60667,-0.50737 0.93018,-0.42281 1.52211,-0.67649 0.67649,-0.25369 1.52211,-0.76105 0.93018,-0.50737 1.35299,-0.76106 0.4228,-0.25368 1.26842,-0.84562 0.93018,-0.67649 1.18386,-0.84561 0.25369,-0.16913 1.0993,-0.76106 0.84562,-0.67649 0.93018,-0.76105 l 2.53685,4.05896 q -0.33825,0.33824 -3.12878,2.36772 -2.79053,2.02948 -4.90457,3.80528 -2.11404,1.69123 -4.05896,4.48176 -1.86036,2.70597 -1.86036,5.15826 l 0,24.10007 q 0,2.53685 -0.93018,4.82001 0.42281,-0.0846 1.35299,-0.0846 3.80527,0 6.25756,2.28316 2.45229,2.19861 2.45229,5.83476 0,3.63615 -2.45229,5.91931 -2.45229,2.1986 -6.25756,2.1986 -3.80527,0 -6.25756,-2.1986 -2.45229,-2.28316 -2.45229,-5.91931 0,-1.94492 0.50737,-5.15826 0.59193,-3.29791 0.59193,-5.15826 l 0,-26.63692 q 0,-4.65089 5.15826,-9.04809 l -0.33824,0 q -4.90458,0 -7.69511,-2.36773 -2.79054,-2.36772 -2.79054,-6.59581 l 0,-6.84949 q 0,-3.97439 -4.90457,-5.0737 z m 21.30953,63.75948 q -1.18386,-1.26843 -3.12878,-1.26843 -1.94492,0 -3.21334,1.26843 -1.18386,1.18386 -1.18386,3.12878 0,1.94491 1.18386,3.21334 1.26842,1.18386 3.21334,1.18386 1.94492,0 3.12878,-1.18386 1.26843,-1.26843 1.26843,-3.21334 0,-1.94492 -1.26843,-3.12878 z"
         style="font-style:normal;font-variant:normal;font-weight:normal;font-stretch:normal;font-size:101.47396088px;font-family:Boon;-inkscape-font-specification:Boon;fill:#ffffff;fill-opacity:0.95"
         id="path4248"
         inkscape:connector-curvature="0" />
      <path
         d="m 852.63258,185.14974 q -1.18387,-1.26843 -3.12879,-1.26843 -1.94491,0 -3.21334,1.26843 -1.18386,1.18386 -1.18386,3.12878 0,1.94491 1.18386,3.21334 1.26843,1.18386 3.21334,1.18386 1.94492,0 3.12879,-1.18386 1.26842,-1.26843 1.26842,-3.21334 0,-1.94492 -1.26842,-3.12878 z m -9.38635,-2.70598 q 2.45229,-2.28316 6.25756,-2.28316 3.80528,0 6.25757,2.28316 2.45228,2.19861 2.45228,5.83476 0,3.63615 -2.45228,5.91931 -2.45229,2.1986 -6.25757,2.1986 -5.91931,0 -9.55546,-3.63615 -3.63615,-3.63615 -3.63615,-9.13265 l 0,-21.98603 q 0,-8.03335 5.83475,-13.10705 5.83476,-5.0737 15.47478,-5.0737 9.64003,0 15.47478,5.0737 5.91931,5.0737 5.91931,13.10705 l 0,34.07834 -7.01861,0 0,-34.07834 q 0,-6.173 -3.88984,-9.4709 -3.88983,-3.29791 -10.48564,-3.29791 -6.59581,0 -10.40108,3.29791 -3.80527,3.21334 -3.80527,9.4709 l 0,18.09619 q 0,1.18386 -0.16913,2.70597 z"
         style="font-style:normal;font-variant:normal;font-weight:normal;font-stretch:normal;font-size:101.47396088px;font-family:Boon;-inkscape-font-specification:Boon;fill:#ffffff;fill-opacity:0.95"
         id="path4250"
         inkscape:connector-curvature="0" />
      <path
         d="m 850.94131,123.0815 q -0.6765,-0.6765 -1.69124,-0.6765 -1.01474,0 -1.69123,0.6765 -0.67649,0.67649 -0.67649,1.77579 0,1.0993 0.67649,1.7758 0.67649,0.67649 1.69123,0.67649 1.01474,0 1.69124,-0.67649 0.67649,-0.6765 0.67649,-1.7758 0,-1.0993 -0.67649,-1.77579 z m 1.52211,11.41582 q 0.33824,-1.69124 0.33824,-3.63615 0,-1.0993 -0.25368,-2.28317 -1.26843,1.01474 -3.29791,1.01474 -2.1986,0 -3.63615,-1.26842 -1.43754,-1.35299 -1.43754,-3.46703 0,-2.11404 1.43754,-3.38246 1.43755,-1.35299 3.63615,-1.35299 3.12878,0 4.98914,2.02948 1.7758,1.94492 2.11404,5.0737 0.33825,2.36772 0.33825,3.38246 0,0.33825 0,0.93018 -0.0846,0.50737 -0.0846,0.76105 0.84561,-0.16912 1.35298,-0.16912 5.66563,0 8.28704,-3.04422 2.62141,-3.04422 2.62141,-9.21722 l 5.75019,0.76106 q 0,6.76493 -4.14352,10.90845 -4.22808,4.14352 -11.50038,4.14352 l -5.75019,0 -0.84562,-1.0993 0.0846,-0.0846 z"
         style="font-style:normal;font-variant:normal;font-weight:normal;font-stretch:normal;font-size:101.47396088px;font-family:Boon;-inkscape-font-specification:Boon;fill:#ffffff;fill-opacity:0.95"
         id="path4252"
         inkscape:connector-curvature="0" />
      <path
         d="m 931.49691,185.14974 q -1.18386,-1.26843 -3.12878,-1.26843 -1.94492,0 -3.21334,1.26843 -1.18387,1.18386 -1.18387,3.12878 0,1.94491 1.18387,3.21334 1.26842,1.18386 3.21334,1.18386 1.94492,0 3.12878,-1.18386 1.26842,-1.26843 1.26842,-3.21334 0,-1.94492 -1.26842,-3.12878 z m -3.12878,-4.98914 q 3.80527,0 6.25756,2.28316 2.45229,2.19861 2.45229,5.83476 0,3.63615 -2.45229,5.91931 -2.45229,2.1986 -6.25756,2.1986 -3.80528,0 -6.25756,-2.1986 -2.45229,-2.28316 -2.45229,-5.91931 0,-1.94492 0.50737,-5.15826 0.59193,-3.29791 0.59193,-5.15826 l 0,-21.73234 q 0,-3.21335 1.18386,-5.66563 1.26843,-2.45229 3.21335,-3.80528 2.02947,-1.35298 4.05895,-2.02948 2.02948,-0.67649 3.9744,-0.84561 l 1.52211,4.73545 q -6.76493,0.76105 -6.76493,7.61055 l 0,19.19549 q 0,2.79053 -0.93018,4.82001 0.42281,-0.0846 1.35299,-0.0846 z m -22.23971,4.98914 q -1.18386,-1.26843 -3.12878,-1.26843 -1.94492,0 -3.21334,1.26843 -1.18387,1.18386 -1.18387,3.12878 0,1.94491 1.18387,3.21334 1.26842,1.18386 3.21334,1.18386 1.94492,0 3.12878,-1.18386 1.26842,-1.26843 1.26842,-3.21334 0,-1.94492 -1.26842,-3.12878 z m -3.12878,-4.98914 q 3.80527,0 6.25756,2.28316 2.45229,2.19861 2.45229,5.83476 0,3.63615 -2.45229,5.91931 -2.45229,2.1986 -6.25756,2.1986 -3.80528,0 -6.25756,-2.1986 -2.45229,-2.28316 -2.45229,-5.91931 0,-1.94492 0.50737,-5.15826 0.59193,-3.29791 0.59193,-5.15826 l 0,-21.73234 q 0,-3.21335 1.18386,-5.66563 1.26843,-2.45229 3.21335,-3.80528 2.02947,-1.35298 4.05895,-2.02948 2.02948,-0.67649 3.9744,-0.84561 l 1.52211,4.73545 q -6.76493,0.76105 -6.76493,7.61055 l 0,19.19549 q 0,2.79053 -0.93018,4.82001 0.42281,-0.0846 1.35299,-0.0846 z"
         style="font-style:normal;font-variant:normal;font-weight:normal;font-stretch:normal;font-size:101.47396088px;font-family:Boon;-inkscape-font-specification:Boon;fill:#ffffff;fill-opacity:0.95"
         id="path4254"
         inkscape:connector-curvature="0" />
      <path
         d="m 960.52004,185.14974 q -1.18387,-1.26843 -3.12879,-1.26843 -1.94491,0 -3.21334,1.26843 -1.18386,1.18386 -1.18386,3.12878 0,1.94491 1.18386,3.21334 1.26843,1.18386 3.21334,1.18386 1.94492,0 3.12879,-1.18386 1.26842,-1.26843 1.26842,-3.21334 0,-1.94492 -1.26842,-3.12878 z m -3.12879,-4.98914 q 3.80528,0 6.25757,2.28316 2.45228,2.19861 2.45228,5.83476 0,3.63615 -2.45228,5.91931 -2.45229,2.1986 -6.25757,2.1986 -4.48176,0 -7.18773,-2.70597 -2.70598,-2.70597 -2.70598,-6.93405 l 0,-3.29791 q 0,-5.15826 3.12878,-8.87897 3.21335,-3.80527 9.72459,-3.80527 8.03336,0 13.52986,4.82001 5.58107,4.73545 8.96354,11.75407 -0.50737,-2.8751 -0.50737,-4.31264 l 0,-21.90147 q 0,-6.00387 -3.88984,-9.13265 -3.88983,-3.12879 -10.48564,-3.12879 -6.08844,0 -9.72459,3.12879 -3.63615,3.12878 -4.3972,8.54072 l -7.18774,-0.50737 q 0.93018,-7.01862 6.51124,-11.75407 5.58107,-4.82001 14.79829,-4.82001 9.64003,0 15.47478,4.90458 5.91931,4.90457 5.91931,12.7688 l 0,30.94956 q 0,1.52211 -1.35298,2.70597 -1.26843,1.18387 -3.46703,1.18387 l -3.21334,-0.25369 q -0.93018,-3.21334 -2.45229,-6.34212 -1.52211,-3.12878 -4.05896,-6.42669 -2.45229,-3.38246 -6.25756,-5.41194 -3.72071,-2.02948 -8.20248,-2.02948 -2.87509,0 -4.56633,1.43755 -1.69123,1.43755 -2.11404,3.88983 1.7758,-0.67649 3.72071,-0.67649 z"
         style="font-style:normal;font-variant:normal;font-weight:normal;font-stretch:normal;font-size:101.47396088px;font-family:Boon;-inkscape-font-specification:Boon;fill:#ffffff;fill-opacity:0.95"
         id="path4256"
         inkscape:connector-curvature="0" />
      <path
         d="m 962.97225,123.0815 q -0.67649,-0.6765 -1.69123,-0.6765 -1.01474,0 -1.69123,0.6765 -0.6765,0.67649 -0.6765,1.77579 0,1.0993 0.6765,1.7758 0.67649,0.67649 1.69123,0.67649 1.01474,0 1.69123,-0.67649 0.67649,-0.6765 0.67649,-1.7758 0,-1.0993 -0.67649,-1.77579 z m 1.52211,11.41582 q 0.33825,-1.69124 0.33825,-3.63615 0,-1.0993 -0.25369,-2.28317 -1.26842,1.01474 -3.2979,1.01474 -2.1986,0 -3.63615,-1.26842 -1.43755,-1.35299 -1.43755,-3.46703 0,-2.11404 1.43755,-3.38246 1.43755,-1.35299 3.63615,-1.35299 3.12878,0 4.98914,2.02948 1.77579,1.94492 2.11404,5.0737 0.33824,2.36772 0.33824,3.38246 0,0.33825 0,0.93018 -0.0846,0.50737 -0.0846,0.76105 0.84562,-0.16912 1.35299,-0.16912 5.66563,0 8.28704,-3.04422 2.62141,-3.04422 2.62141,-9.21722 l 5.75019,0.76106 q 0,6.76493 -4.14352,10.90845 -4.22808,4.14352 -11.50038,4.14352 l -5.75019,0 -0.84562,-1.0993 0.0846,-0.0846 z"
         style="font-style:normal;font-variant:normal;font-weight:normal;font-stretch:normal;font-size:101.47396088px;font-family:Boon;-inkscape-font-specification:Boon;fill:#ffffff;fill-opacity:0.95"
         id="path4258"
         inkscape:connector-curvature="0" />
      <path
         d="m 1013.3631,179.90691 q -1.1839,-1.26842 -3.1288,-1.26842 -1.9449,0 -3.2133,1.26842 -1.1839,1.18387 -1.1839,3.12879 0,1.94491 1.1839,3.21334 1.2684,1.18386 3.2133,1.18386 1.9449,0 3.1288,-1.18386 1.2684,-1.26843 1.2684,-3.21334 0,-1.94492 -1.2684,-3.12879 z m -9.3863,-2.70597 q 2.4522,-2.28316 6.2575,-2.28316 3.8053,0 6.2576,2.28316 2.4523,2.1986 2.4523,5.83476 0,2.70597 -1.4376,4.73545 -1.4375,1.94491 -3.8898,2.79053 2.8751,1.52211 7.1877,1.52211 5.4965,0 8.7099,-2.79053 3.2979,-2.8751 3.2979,-8.20248 l 0,-20.97129 q 0,-5.58107 -3.4671,-8.3716 -3.467,-2.8751 -9.3863,-2.8751 -5.4965,0 -8.879,2.8751 -3.3824,2.79053 -4.0589,7.77967 l -7.18776,-0.50737 q 0.84566,-6.51124 6.08846,-10.99301 5.2428,-4.56633 14.0372,-4.56633 9.0481,0 14.5446,4.65089 5.4965,4.56633 5.4965,12.00775 l 0,20.97129 q 0,7.18774 -5.2428,11.6695 -5.2428,4.48177 -13.9527,4.48177 -8.7098,0 -14.0372,-4.14352 -5.2428,-4.22808 -5.2428,-10.06283 0,-3.63616 2.4523,-5.83476 z"
         style="font-style:normal;font-variant:normal;font-weight:normal;font-stretch:normal;font-size:101.47396088px;font-family:Boon;-inkscape-font-specification:Boon;fill:#ffffff;fill-opacity:0.95"
         id="path4260"
         inkscape:connector-curvature="0" />
    </g>
  </g>
</svg>
