<svg xmlns="http://www.w3.org/2000/svg" width="350" height="350" viewBox="0 0 350 350"><g fill="#fff" fill-opacity=".9" font-family="Boon" letter-spacing="0" word-spacing="0"><path style="-inkscape-font-specification:Boon" d="M203.626 60.146v42.9h-3.92l-9.798-21.715-9.798 21.716h-3.814V83.98q0-1.59.742-2.966h-.583q-2.383 0-3.919-1.377Q171 78.207 171 75.929q0-2.277 1.536-3.654 1.536-1.43 3.92-1.43 2.383 0 3.919 1.43 1.536 1.377 1.536 3.654 0 1.324-.636 3.39-.636 2.065-.636 3.337v10.222q0 1.059-.211 2.86l8.368-18.908h2.224l8.475 19.067q-.212-1.801-.212-3.02v-32.73h4.343zm-29.183 17.796q.794.741 2.012.741t1.96-.741q.794-.795.794-2.013t-.794-1.96q-.742-.794-1.96-.794t-2.012.794q-.742.742-.742 1.96t.742 2.013zm37.124 2.542q.583-4.29 3.972-7.203 3.443-2.966 9.163-2.966 5.879 0 9.48 3.019 3.602 3.019 3.602 7.892v12.287q0 4.608-3.39 7.574-3.39 2.913-8.95 2.913-5.562 0-8.951-2.913-3.337-2.966-3.337-7.574v-4.449q0-2.277 1.536-3.654 1.536-1.43 3.92-1.43 2.383 0 3.919 1.43 1.535 1.377 1.535 3.654 0 2.278-1.535 3.708-1.536 1.377-3.92 1.377-.476 0-1.218-.106.212 3.178 2.383 4.872 2.225 1.695 5.668 1.695 3.548 0 5.667-1.8 2.171-1.854 2.171-5.297V81.226q0-3.708-2.33-5.615-2.278-1.906-6.25-1.906-3.707 0-5.932 1.906-2.224 1.854-2.701 5.19l-4.502-.317zm9.004 6.62q-.742-.794-1.96-.794t-2.012.795q-.742.741-.742 1.96 0 1.217.742 2.012.794.741 2.012.741t1.96-.741q.794-.795.794-2.013t-.794-1.96zm28.397 15.943V83.98q0-1.59.741-2.966h-.53q-2.383 0-3.919-1.377-1.536-1.43-1.536-3.708 0-2.277 1.536-3.654 1.536-1.43 3.92-1.43 2.383 0 3.919 1.43 1.536 1.377 1.536 3.654 0 1.43-.583 3.443-.582 2.012-.582 3.442v11.229q0 .159-.16 4.925 5.827-5.508 13.083-5.826.582-.741.582-1.641V71.268h4.502V90.76q0 1.642-1.589 2.754 1.748.424 2.755 1.748 1.059 1.271 1.059 3.125 0 2.277-1.536 3.707-1.536 1.377-3.92 1.377-2.383 0-3.919-1.377-1.536-1.43-1.536-3.707 0-1.112.424-2.119-5.72 1.483-10.116 6.78h-4.131zm21.238-6.62q-.741-.795-1.96-.795-1.218 0-2.012.794-.742.742-.742 1.96t.742 2.012q.794.742 2.013.742 1.218 0 1.96-.742.794-.794.794-2.012t-.795-1.96zm-23.039-18.485q.794.741 2.013.741 1.218 0 1.96-.741.794-.795.794-2.013t-.795-1.96q-.741-.794-1.96-.794-1.218 0-2.012.794-.741.742-.741 1.96t.741 2.013zm55.783 25.105v-5.562q0-.688.052-6.779.106-6.09.106-9.004 0-3.495-1.006-5.508-1.006-2.066-2.86-2.33l-4.66 3.919h-1.06l-4.66-3.92q-1.855.265-2.914 2.331-1.06 2.013-1.06 5.508 0 4.396.53 8.104.583 3.707.583 5.031v3.76q1.43-1.747 4.714-4.078 3.337-2.383 4.396-3.495-.742.106-1.06.106-2.383 0-3.919-1.377-1.536-1.43-1.536-3.708 0-2.277 1.536-3.654 1.536-1.43 3.92-1.43 2.383 0 3.919 1.43 1.536 1.377 1.536 3.654 0 2.33-1.165 4.343-1.113 1.96-2.86 3.443-1.695 1.43-3.496 2.754-1.8 1.324-3.337 3.019-1.536 1.642-2.012 3.443h-5.138q.53-3.867.53-6.356 0-2.436-.689-6.515-.635-4.078-.635-8.474 0-1.906.37-3.654.371-1.748 1.219-3.496.9-1.8 2.648-2.86 1.8-1.06 4.29-1.06l4.82 4.344 4.82-4.343q2.489 0 4.29 1.06 1.8 1.058 2.648 2.86.9 1.747 1.27 3.495.371 1.748.371 3.654v21.345h-4.501zm-6.939-18.961q-.741-.795-1.96-.795-1.218 0-2.012.795-.742.741-.742 1.96 0 1.217.742 2.012.794.741 2.013.741 1.218 0 1.96-.741.794-.795.794-2.013t-.795-1.96zm7.574-22.934q-.636-.635-1.589-.635t-1.536.635q-.635.583-.635 1.536 0 .954.635 1.59.583.582 1.536.582.953 0 1.59-.583.582-.635.582-1.589 0-.953-.583-1.536zm-6.09 1.536q0-1.96 1.217-3.23 1.166-1.272 3.443-1.272h1.43q2.172 0 3.178-.741.953-.742.953-2.49l3.284.371q0 2.013-1.324 3.284-1.377 1.271-4.025 1.483.847 1.112.847 2.595 0 1.907-1.218 3.072-1.271 1.112-3.284 1.112-2.012 0-3.23-1.112-1.272-1.165-1.272-3.072z" font-weight="400" font-size="68.096"/><path style="-inkscape-font-specification:'Boon Semi-Bold'" d="M45.967 158.628q1.803 1.983 5.049 1.983 3.245 0 5.049-1.983 1.803-1.984 1.803-5.23 0-3.245-1.803-5.229-1.804-1.983-5.05-1.983-3.245 0-5.048 1.983-1.804 1.984-1.804 5.23 0 3.245 1.804 5.229zm25.064-5.23q0 4.328-1.262 10.82-1.262 6.311-1.262 10.458v35.704q0 10.82 6.311 16.049 6.311 5.23 17.13 5.23 10.82 0 16.95-5.23 6.312-5.23 6.312-16.049v-73.57h23.081v73.571q0 16.59-12.802 27.409-12.803 10.82-33.54 10.82t-33.72-10.82q-12.803-10.82-12.803-27.409v-30.294q0-4.688 2.344-8.475-7.393-.902-12.082-5.77Q31 160.79 31 153.399q0-8.295 5.59-13.344 5.77-5.05 14.426-5.05 8.655 0 14.245 5.05 5.77 5.049 5.77 13.344zm51.392 114.324q-1.623-1.622-4.328-1.622t-4.328 1.622q-1.623 1.804-1.623 4.328 0 2.525 1.623 4.148Q115.39 278 118.095 278t4.328-1.803q1.623-1.623 1.623-4.148 0-2.524-1.623-4.328zM118.456 300v-8.114q0-1.443 1.082-3.968h-1.443q-7.393 0-12.262-4.327-4.868-4.328-4.868-11.54 0-7.214 4.868-11.541 4.869-4.328 12.262-4.328 7.393 0 12.262 4.328 4.869 4.327 4.869 11.54 0 3.967-.541 8.656-.541 4.868-.541 7.934V300h-15.688zm140.792-32.278q-1.623-1.622-4.328-1.622t-4.328 1.622q-1.623 1.804-1.623 4.328 0 2.525 1.623 4.148Q252.215 278 254.92 278t4.328-1.803q1.623-1.623 1.623-4.148 0-2.524-1.623-4.328zm-16.59-7.212q4.869-4.328 12.262-4.328 7.393 0 12.262 4.328 4.869 4.327 4.869 11.54 0 5.41-2.886 9.377h4.328q18.393 0 18.393-22.36l17.13 1.803q0 14.246-9.016 22.72-9.016 8.656-23.441 8.656h-11.721q-12.262 0-19.655-5.41-7.394-5.229-7.394-14.786 0-7.213 4.87-11.54zm-50.31-37.327q-1.803-1.984-5.049-1.984-3.245 0-5.049 1.984-1.803 1.984-1.803 5.23 0 3.245 1.803 5.229 1.804 1.983 5.05 1.983 3.245 0 5.048-1.983 1.804-1.984 1.804-5.23 0-3.245-1.804-5.229zm16.95-89.98q22 0 35.524 11.54 13.704 11.36 13.704 29.032v41.654q0 8.475 4.148 12.262 4.328 3.787 10.639 3.787 6.311 0 10.458-3.787 4.148-3.787 4.148-12.262v-78.62H311v78.62q0 13.885-10.278 23.622-10.098 9.557-27.41 9.557-17.31 0-27.588-9.557-10.279-9.737-10.279-23.622v-41.654q0-11.901-7.032-17.672-7.033-5.77-19.114-5.77-18.393 0-24.163 15.327l24.523 5.23-2.524 9.557-.902-.18q-1.082-.18-2.524-.361-1.443-.18-2.525-.18-8.836 0-8.836 10.278v11.72q0 4.509-2.163 8.476 7.573.901 12.261 5.77 4.87 4.869 4.87 12.442 0 8.295-5.771 13.344-5.59 5.05-14.246 5.05-8.655 0-14.425-5.05-5.59-5.049-5.59-13.344 0-4.327.901-10.639 1.082-6.491 1.082-10.639v-14.786q0-13.344 12.082-17.491l-21.098-4.148q2.164-15.507 14.967-26.507 12.803-11 34.08-11z" font-weight="600" font-size="231.842"/></g></svg>