<svg xmlns="http://www.w3.org/2000/svg">
<defs>
<font id="Boon-Bold" horiz-adv-x="640" >
  <font-face 
    font-family="Boon"
    font-weight="700"
    font-stretch="normal"
    units-per-em="1200"
    panose-1="2 0 5 3 0 0 0 0 0 0"
    ascent="860"
    descent="-340"
    x-height="620"
    cap-height="860"
    bbox="-540 -342 1220 1210"
    underline-thickness="20"
    underline-position="-60"
    unicode-range="U+0020-F73B"
  />
    <missing-glyph />
    <glyph glyph-name="uni0E04" unicode="&#xe04;" horiz-adv-x="630" 
d="M300 612c177 0 290 -103 290 -260v-352h-155v352c0 104 -57 150 -135 150s-140 -51 -140 -150c0 -28 3 -68 7 -101c9 42 22 96 43 126c20 30 52 50 90 50c55 0 100 -45 100 -100s-45 -100 -100 -100c-26 0 -49 10 -67 26c-24 -82 -28 -174 -28 -253h-155c5 38 7 69 7 96
c0 117 -27 131 -27 256c0 143 103 260 270 260zM300 372c-25 0 -45 -20 -45 -45s20 -45 45 -45s45 20 45 45s-20 45 -45 45z" />
    <glyph glyph-name="space" unicode=" " horiz-adv-x="300" 
 />
    <glyph glyph-name="uni0E05" unicode="&#xe05;" horiz-adv-x="630" 
d="M415 615c93 -27 175 -119 175 -233v-382h-145v382c0 58 -15 103 -35 131l-100 -65l-100 65c-39 -34 -50 -72 -50 -131c0 -49 6 -103 14 -142c10 43 23 104 46 137c20 30 52 50 90 50c55 0 100 -45 100 -100s-45 -100 -100 -100c-26 0 -49 10 -67 26
c-24 -82 -28 -174 -28 -253h-155c5 38 7 69 7 96c0 120 -37 151 -37 286c0 100 85 199 185 230l95 -69zM310 372c-25 0 -45 -20 -45 -45s20 -45 45 -45s45 20 45 45s-20 45 -45 45z" />
    <glyph glyph-name="uni0E14" unicode="&#xe14;" horiz-adv-x="630" 
d="M300 612c177 0 290 -103 290 -260v-352h-155v352c0 104 -57 150 -135 150s-140 -51 -140 -150c0 -80 20 -162 30 -210c31 26 71 56 93 86c-47 8 -83 49 -83 99c0 55 45 100 100 100s100 -45 100 -100c0 -155 -195 -239 -195 -327h-155c5 38 7 69 7 96
c0 117 -27 131 -27 256c0 143 103 260 270 260zM300 372c-25 0 -45 -20 -45 -45s20 -45 45 -45s45 20 45 45s-20 45 -45 45z" />
    <glyph glyph-name="uni0E15" unicode="&#xe15;" horiz-adv-x="630" 
d="M415 615c93 -27 175 -119 175 -233v-382h-145v382c0 58 -15 103 -35 131l-100 -65l-100 65c-39 -34 -50 -72 -50 -131c0 -100 18 -165 32 -247c32 27 77 61 101 93c-47 8 -83 49 -83 99c0 55 45 100 100 100s100 -45 100 -100c0 -155 -195 -239 -195 -327h-155
c5 38 7 69 7 96c0 120 -37 151 -37 286c0 100 85 199 185 230l95 -69zM310 372c-25 0 -45 -20 -45 -45s20 -45 45 -45s45 20 45 45s-20 45 -45 45z" />
    <glyph glyph-name="uni0E01" unicode="&#xe01;" horiz-adv-x="610" 
d="M290 612c133 0 270 -71 270 -240v-372h-160v372c0 100 -57 130 -110 130c-40 0 -84 -22 -100 -62l100 -25s-52 -64 -60 -125v-290h-160v270c0 84 50 120 50 120l-100 20c28 90 139 202 270 202z" />
    <glyph glyph-name="uni0E16" unicode="&#xe16;" horiz-adv-x="610" 
d="M70 270c0 84 50 120 50 120l-100 20c28 90 139 202 270 202c133 0 270 -71 270 -240v-372h-160v372c0 100 -57 130 -110 130c-40 0 -84 -22 -100 -62l100 -25s-52 -64 -60 -125v-63c47 -16 80 -61 80 -113c0 -66 -54 -120 -120 -120s-120 54 -120 120v156zM190 154
c-22 0 -40 -18 -40 -40s18 -40 40 -40s40 18 40 40s-18 40 -40 40z" />
    <glyph glyph-name="uni0E28" unicode="&#xe28;" horiz-adv-x="630" 
d="M480 680h150c0 -83 -43 -137 -90 -170c32 -43 50 -96 50 -158v-352h-155v352c0 104 -57 150 -135 150s-140 -51 -140 -150c0 -28 3 -68 7 -101c9 42 22 96 43 126c20 30 52 50 90 50c55 0 100 -45 100 -100s-45 -100 -100 -100c-26 0 -49 10 -67 26
c-24 -82 -28 -174 -28 -253h-155c5 38 7 69 7 96c0 117 -27 131 -27 256c0 143 103 260 270 260c57 0 107 -11 150 -30c19 25 30 57 30 98zM300 372c-25 0 -45 -20 -45 -45s20 -45 45 -45s45 20 45 45s-20 45 -45 45z" />
    <glyph glyph-name="uni0E20" unicode="&#xe20;" 
d="M270 114c0 -66 -54 -120 -120 -120s-120 54 -120 120c0 52 33 97 80 113v43c0 84 60 120 60 120l-120 20c28 90 139 202 270 202c133 0 270 -71 270 -240v-372h-160v372c0 100 -57 130 -110 130c-40 0 -84 -22 -100 -62l120 -25s-62 -64 -70 -125v-176zM150 154
c-22 0 -40 -18 -40 -40s18 -40 40 -40s40 18 40 40s-18 40 -40 40z" />
    <glyph glyph-name="uni0E48" unicode="&#xe48;" horiz-adv-x="0" 
d="M-215 1180h120v-230l-120 40v190z" />
    <glyph glyph-name="uni0E34" unicode="&#xe34;" horiz-adv-x="0" 
d="M-325 910c135 0 210 -102 245 -250c-172 81 -239 85 -440 85c26 84 82 165 195 165zM-325 825c-31 0 -48 -18 -60 -35c72 0 119 -8 195 -45c-50 69 -93 80 -135 80z" />
    <glyph glyph-name="uni0E38" unicode="&#xe38;" horiz-adv-x="0" 
d="M-165 -70c52 0 95 -43 95 -95v-175h-110v81c-45 7 -80 47 -80 94c0 52 43 95 95 95zM-165 -130c-19 0 -35 -16 -35 -35s16 -35 35 -35s35 16 35 35s-16 35 -35 35z" />
    <glyph glyph-name="uni0E35" unicode="&#xe35;" horiz-adv-x="0" 
d="M-220 920l120 -30v-250c-172 81 -239 90 -440 90c26 84 77 160 185 160c107 0 142 -65 185 -140c-22 47 -50 92 -50 130v40zM-340 810c-39 0 -53 -16 -65 -35c68 -5 124 -19 189 -45c-45 56 -83 80 -124 80z" />
    <glyph glyph-name="uni0E48.low" unicode="&#xf705;" horiz-adv-x="0" 
d="M-220 930h130v-240h-130v240z" />
    <glyph glyph-name="uni0E49.low" unicode="&#xf706;" horiz-adv-x="0" 
d="M-320 940c44 0 80 -36 80 -80c0 -57 -38 -90 -38 -90c59 0 122 46 122 140h116c0 -130 -88 -210 -248 -210h-84c-38 0 -48 55 -48 55l48 6c18 2 31 13 36 21c-36 7 -64 39 -64 78c0 44 36 80 80 80zM-320 890c-18 0 -30 -13 -30 -30s12 -30 30 -30c16 0 30 13 30 30
s-14 30 -30 30z" />
    <glyph glyph-name="uni0E4A.low" unicode="&#xf707;" horiz-adv-x="0" 
d="M-376 936c32 0 56 -14 70 -36l28 36h40c38 -14 68 -58 68 -110c0 -38 -12 -60 -12 -60c24 20 36 42 36 164h96c-2 -96 -26 -226 -198 -226l-22 46c12 0 18 26 18 66s-5 52 -16 64l-24 -34h-34c0 8 -19 34 -40 34c-25 0 -32 -17 -34 -34c8 2 12 4 22 4c42 0 76 -34 76 -74
c0 -42 -34 -76 -76 -76c-40 0 -92 26 -92 112c0 66 40 124 94 124zM-378 806c-16 0 -30 -14 -30 -30c0 -18 14 -30 30 -30c18 0 30 12 30 30c0 16 -12 30 -30 30z" />
    <glyph glyph-name="uni0E4B.low" unicode="&#xf708;" horiz-adv-x="0" 
d="M-215 930h130v-85h85v-70h-85v-85h-130v85h-85v70h85v85z" />
    <glyph glyph-name="uni0E4C.low" unicode="&#xf709;" horiz-adv-x="0" 
d="M-180 970h120c-9 -51 -40 -98 -95 -132c13 -16 21 -36 21 -58c0 -50 -41 -90 -90 -90c-50 0 -91 40 -91 90c0 114 128 90 135 190zM-224 814c-17 0 -30 -13 -30 -30s13 -30 30 -30c16 0 30 13 30 30s-14 30 -30 30z" />
    <glyph glyph-name="uni0E10.descless" unicode="&#xf700;" horiz-adv-x="580" 
d="M480 60c0 -62 -200 -66 -200 -66v46c0 50 -3 107 -44 149c-15 -35 -50 -59 -91 -59c-55 0 -100 45 -100 100s45 100 100 100c71 0 137 -54 175 -145v115c0 65 -195 77 -280 85c0 134 120 227 240 227c76 0 131 -37 160 -68c20 27 69 56 100 56v-95
c-31 0 -81 -29 -100 -56c-56 56 -106 78 -160 78c-64 0 -92 -43 -110 -68c175 -18 310 -42 310 -144v-255zM145 270c-22 0 -40 -18 -40 -40s18 -40 40 -40s40 18 40 40s-18 40 -40 40z" />
    <glyph glyph-name="uni0E0D.descless" unicode="&#xf70f;" horiz-adv-x="850" 
d="M560 150c0 -28 1 -58 40 -58s40 30 40 58v440h160v-460c0 -38 -36 -142 -200 -142s-200 104 -200 142v242c0 100 -57 130 -110 130c-40 0 -84 -22 -100 -62l100 -25s-52 -64 -60 -125v-63c47 -16 80 -61 80 -113c0 -66 -54 -120 -120 -120s-120 54 -120 120v156
c0 84 50 120 50 120l-100 20c28 90 139 202 270 202c133 0 270 -71 270 -240v-222zM190 154c-22 0 -40 -18 -40 -40s18 -40 40 -40s40 18 40 40s-18 40 -40 40z" />
    <glyph glyph-name="uni0E36" unicode="&#xe36;" horiz-adv-x="0" 
d="M-150 910c50 0 90 -40 90 -90c0 -43 -30 -79 -71 -88c13 -28 24 -59 31 -92c-172 81 -238 85 -440 85c26 84 82 165 196 165c46 0 77 -12 112 -35c13 33 45 55 82 55zM-150 855c-19 0 -34 -16 -34 -35s15 -35 34 -35c20 0 36 16 36 35s-16 35 -36 35zM-344 805
c-31 0 -48 -18 -60 -35c72 0 118 -8 194 -45c-50 69 -92 80 -134 80z" />
    <glyph glyph-name="uni0E37" unicode="&#xe37;" horiz-adv-x="0" 
d="M-340 960l100 -30v-80c34 -26 47 -60 70 -100c-22 47 -29 92 -30 130v40l100 -30v-250c-172 81 -238 90 -440 90c26 84 68 160 176 160c27 0 50 -13 59 -19c-10 11 -35 32 -35 49v40zM-340 810c-38 0 -52 -16 -64 -35c68 -5 124 -19 188 -45c-44 56 -82 80 -124 80z" />
    <glyph glyph-name="uni0E2D" unicode="&#xe2d;" horiz-adv-x="610" 
d="M300 612c153 0 250 -99 250 -210v-214c0 -162 -107 -200 -240 -200s-239 38 -240 200v82c0 72 58 130 130 130s130 -58 130 -130c0 -61 -42 -112 -99 -126c8 -47 45 -56 79 -56c38 0 79 12 80 72v242c0 68 -34 110 -90 110s-85 -37 -85 -78h-165c0 81 97 178 250 178z
M200 320c-28 0 -50 -22 -50 -50s22 -50 50 -50s50 22 50 50s-22 50 -50 50z" />
    <glyph glyph-name="uni0E4D" unicode="&#xe4d;" horiz-adv-x="0" 
d="M-184 920c68 0 124 -56 124 -125s-56 -125 -124 -125c-70 0 -126 56 -126 125s56 125 126 125zM-184 840c-25 0 -46 -20 -46 -45s21 -45 46 -45c24 0 44 20 44 45s-20 45 -44 45z" />
    <glyph glyph-name="uni0E33" unicode="&#xe33;" horiz-adv-x="500" 
d="M320 0v382c0 88 -20 120 -70 120c-48 0 -65 -37 -65 -88h-165c0 101 67 198 230 198s230 -99 230 -230v-382h-160zM-184 920c68 0 124 -56 124 -125s-56 -125 -124 -125c-70 0 -126 56 -126 125s56 125 126 125zM-184 840c-25 0 -46 -20 -46 -45s21 -45 46 -45
c24 0 44 20 44 45s-20 45 -44 45z" />
    <glyph glyph-name="uni0E32" unicode="&#xe32;" horiz-adv-x="500" 
d="M320 0v382c0 88 -20 120 -70 120c-48 0 -65 -37 -65 -88h-165c0 101 67 198 230 198s230 -99 230 -230v-382h-160z" />
    <glyph glyph-name="uni0E25" unicode="&#xe25;" horiz-adv-x="610" 
d="M300 612c153 0 250 -99 250 -210v-342c0 -64 -160 -66 -160 -66v156c0 50 -32 160 -110 160c-56 0 -94 -28 -100 -100c16 9 35 14 55 14c64 0 115 -51 115 -115s-51 -115 -115 -115c-108 0 -195 74 -195 196c0 124 82 215 210 215c90 0 134 -58 140 -85v82
c0 68 -26 115 -90 115s-85 -42 -85 -83h-165c0 81 97 178 250 178zM235 154c-25 0 -45 -20 -45 -45s20 -45 45 -45s45 20 45 45s-20 45 -45 45z" />
    <glyph glyph-name="uni0E40" unicode="&#xe40;" horiz-adv-x="310" 
d="M50 590h160v-363c47 -16 80 -61 80 -113c0 -66 -54 -120 -120 -120s-120 54 -120 120v476zM170 154c-22 0 -40 -18 -40 -40s18 -40 40 -40s40 18 40 40s-18 40 -40 40z" />
    <glyph glyph-name="uni0E41" unicode="&#xe41;" horiz-adv-x="540" 
d="M290 590h160v-363c47 -16 80 -61 80 -113c0 -66 -54 -120 -120 -120s-120 54 -120 120v476zM410 154c-22 0 -40 -18 -40 -40s18 -40 40 -40s40 18 40 40s-18 40 -40 40zM20 590h160v-363c47 -16 80 -61 80 -113c0 -66 -54 -120 -120 -120s-120 54 -120 120v476zM140 154
c-22 0 -40 -18 -40 -40s18 -40 40 -40s40 18 40 40s-18 40 -40 40z" />
    <glyph glyph-name="uni0E2A" unicode="&#xe2a;" horiz-adv-x="610" 
d="M440 680h150c0 -77 -37 -129 -79 -162c25 -34 39 -74 39 -116v-342c0 -64 -160 -66 -160 -66v156c0 50 -32 160 -110 160c-56 0 -94 -28 -100 -100c16 9 35 14 55 14c64 0 115 -51 115 -115s-51 -115 -115 -115c-108 0 -195 74 -195 196c0 124 82 215 210 215
c90 0 134 -58 140 -85v82c0 68 -26 115 -90 115s-85 -42 -85 -83h-165c0 81 97 178 250 178c43 0 82 -8 116 -22c15 24 24 53 24 90zM235 154c-25 0 -45 -20 -45 -45s20 -45 45 -45s45 20 45 45s-20 45 -45 45z" />
    <glyph glyph-name="uni0E2E" unicode="&#xe2e;" horiz-adv-x="610" 
d="M440 680h150c0 -77 -37 -129 -79 -162c25 -34 39 -74 39 -116v-214c0 -162 -107 -200 -240 -200s-239 38 -240 200v82c0 72 58 130 130 130s130 -58 130 -130c0 -61 -42 -112 -99 -126c8 -47 45 -56 79 -56c38 0 79 12 80 72v242c0 68 -34 110 -90 110s-85 -37 -85 -78
h-165c0 81 97 178 250 178c43 0 82 -8 116 -22c15 24 24 53 24 90zM200 320c-28 0 -50 -22 -50 -50s22 -50 50 -50s50 22 50 50s-22 50 -50 50z" />
    <glyph glyph-name="uni0E1D" unicode="&#xe1d;" horiz-adv-x="690" 
d="M490 860h160v-680c0 -144 -77 -186 -215 -186l-85 246l-75 -246c-133 0 -245 42 -245 186v296c0 72 58 130 130 130s130 -58 130 -130c0 -61 -43 -113 -100 -126v-130c0 -58 8 -74 30 -95l95 265h70l105 -275v745zM160 526c-28 0 -50 -22 -50 -50s22 -50 50 -50
s50 22 50 50s-22 50 -50 50z" />
    <glyph glyph-name="uni0E1A" unicode="&#xe1a;" horiz-adv-x="670" 
d="M150 606c72 0 130 -58 130 -130v-286c1 -78 48 -97 95 -97s94 19 95 97v400h160v-402c0 -162 -122 -200 -255 -200s-255 38 -255 200v162c-57 13 -100 65 -100 126c0 72 58 130 130 130zM150 526c-28 0 -50 -22 -50 -50s22 -50 50 -50s50 22 50 50s-22 50 -50 50z" />
    <glyph glyph-name="uni0E1B" unicode="&#xe1b;" horiz-adv-x="670" 
d="M150 606c72 0 130 -58 130 -130v-286c1 -78 48 -97 95 -97s94 19 95 97v670h160v-672c0 -162 -122 -200 -255 -200s-255 38 -255 200v162c-57 13 -100 65 -100 126c0 72 58 130 130 130zM150 526c-28 0 -50 -22 -50 -50s22 -50 50 -50s50 22 50 50s-22 50 -50 50z" />
    <glyph glyph-name="uni0E49" unicode="&#xe49;" horiz-adv-x="0" 
d="M-270 1210c44 0 80 -36 80 -80c0 -57 -38 -90 -38 -90c59 0 122 46 122 140h116c0 -130 -88 -210 -248 -210h-84c-38 0 -48 55 -48 55l48 6c18 2 31 13 36 21c-36 7 -64 39 -64 78c0 44 36 80 80 80zM-270 1160c-18 0 -30 -13 -30 -30s12 -30 30 -30c16 0 30 13 30 30
s-14 30 -30 30z" />
    <glyph glyph-name="uni0E1C" unicode="&#xe1c;" horiz-adv-x="690" 
d="M490 590h160v-410c0 -144 -77 -186 -215 -186l-85 246l-75 -246c-133 0 -245 42 -245 186v296c0 72 58 130 130 130s130 -58 130 -130c0 -61 -43 -113 -100 -126v-130c0 -58 8 -74 30 -95l95 265h70l105 -275v475zM160 526c-28 0 -50 -22 -50 -50s22 -50 50 -50
s50 22 50 50s-22 50 -50 50z" />
    <glyph glyph-name="uni0E1E" unicode="&#xe1e;" horiz-adv-x="690" 
d="M120 350c-57 13 -100 65 -100 126c0 72 58 130 130 130s130 -58 130 -130v-366l80 390h60l80 -390v480h160v-490c0 -85 -143 -106 -205 -106l-65 326l-65 -326c-62 0 -205 23 -205 106v250zM150 526c-28 0 -50 -22 -50 -50s22 -50 50 -50s50 22 50 50s-22 50 -50 50z" />
    <glyph glyph-name="uni0E1F" unicode="&#xe1f;" horiz-adv-x="690" 
d="M120 350c-57 13 -100 65 -100 126c0 72 58 130 130 130s130 -58 130 -130v-366l80 390h60l80 -390v750h160v-760c0 -85 -143 -106 -205 -106l-65 326l-65 -326c-62 0 -205 23 -205 106v250zM150 526c-28 0 -50 -22 -50 -50s22 -50 50 -50s50 22 50 50s-22 50 -50 50z" />
    <glyph glyph-name="uni0E30" unicode="&#xe30;" horiz-adv-x="540" 
d="M125 590c52 0 95 -43 95 -95c0 -25 -11 -52 -32 -65c9 -9 25 -10 47 -10c81 0 125 95 125 150h120c0 -99 -76 -230 -245 -230c-93 0 -205 39 -205 155c0 52 43 95 95 95zM125 530c-19 0 -35 -16 -35 -35s16 -35 35 -35s35 16 35 35s-16 35 -35 35zM125 280
c52 0 95 -43 95 -95c0 -25 -11 -52 -32 -65c9 -9 25 -10 47 -10c81 0 125 95 125 150h120c0 -99 -76 -230 -245 -230c-93 0 -205 39 -205 155c0 52 43 95 95 95zM125 220c-19 0 -35 -16 -35 -35s16 -35 35 -35s35 16 35 35s-16 35 -35 35z" />
    <glyph glyph-name="uni0E43" unicode="&#xe43;" horiz-adv-x="340" 
d="M170 1052c107 0 175 -85 175 -172c0 -140 -95 -154 -95 -260v-393c47 -16 80 -61 80 -113c0 -66 -54 -120 -120 -120s-120 54 -120 120v506c0 117 161 157 161 260c0 54 -32 106 -81 106c-22 0 -55 -3 -65 -11c56 0 100 -43 100 -95c0 -55 -45 -100 -100 -100
s-105 45 -105 105c0 115 83 167 170 167zM105 925c-25 0 -45 -20 -45 -45s20 -45 45 -45s45 20 45 45s-20 45 -45 45zM210 154c-22 0 -40 -18 -40 -40s18 -40 40 -40s40 18 40 40s-18 40 -40 40z" />
    <glyph glyph-name="uni0E44" unicode="&#xe44;" horiz-adv-x="340" 
d="M-30 1052c72 0 140 -102 140 -102l110 102c47 0 90 -43 90 -90c0 -134 -60 -189 -60 -362v-373c47 -16 80 -61 80 -113c0 -66 -54 -120 -120 -120s-120 54 -120 120v486c7 180 145 262 145 367l-135 -122s-71 117 -130 117v90zM210 154c-22 0 -40 -18 -40 -40
s18 -40 40 -40s40 18 40 40s-18 40 -40 40z" />
    <glyph glyph-name="uni0E29" unicode="&#xe29;" horiz-adv-x="700" 
d="M130 606c72 0 130 -58 130 -130v-286c1 -78 53 -97 100 -97s99 19 100 97v2c-72 11 -180 58 -180 168c0 44 36 80 80 80s80 -36 80 -80c0 -27 -16 -51 -39 -64c20 -15 39 -23 59 -26v320h160v-275c13 15 20 33 20 65h90c0 -66 -40 -123 -110 -163v-29
c0 -162 -127 -200 -260 -200s-260 38 -260 200v162c-57 13 -100 65 -100 126c0 72 58 130 130 130zM130 526c-28 0 -50 -22 -50 -50s22 -50 50 -50s50 22 50 50s-22 50 -50 50zM360 395c-19 0 -35 -16 -35 -35s16 -35 35 -35s35 16 35 35s-16 35 -35 35z" />
    <glyph glyph-name="uni0E42" unicode="&#xe42;" horiz-adv-x="340" 
d="M150 1052c50 0 100 -28 120 -47c17 19 61 37 90 47v-90c-36 -10 -74 -32 -90 -52c-33 36 -74 67 -120 67c-43 0 -71 -25 -80 -47c93 -28 180 -100 180 -270v-433c47 -16 80 -61 80 -113c0 -66 -54 -120 -120 -120s-120 54 -120 120v546c0 159 -9 235 -120 235
c0 82 85 157 180 157zM210 154c-22 0 -40 -18 -40 -40s18 -40 40 -40s40 18 40 40s-18 40 -40 40z" />
    <glyph glyph-name="uni0E21" unicode="&#xe21;" horiz-adv-x="630" 
d="M140 350c-57 13 -100 65 -100 126c0 72 58 130 130 130s130 -58 130 -130v-271c69 -36 106 -89 120 -110v495h160v-500c0 -63 -119 -96 -180 -96c-30 46 -57 88 -101 116c-7 -66 -62 -116 -129 -116c-72 0 -130 58 -130 130c0 61 43 113 100 126v100zM170 526
c-28 0 -50 -22 -50 -50s22 -50 50 -50s50 22 50 50s-22 50 -50 50zM170 174c-28 0 -50 -22 -50 -50s22 -50 50 -50s50 22 50 50s-22 50 -50 50z" />
    <glyph glyph-name="uni0E06" unicode="&#xe06;" horiz-adv-x="630" 
d="M139 606c60 0 75 -63 75 -63l37 63h28c57 -17 106 -80 106 -162c0 -131 -70 -156 -70 -224v-20c66 -36 101 -85 115 -105v495h160v-500c0 -63 -119 -96 -180 -96c-30 46 -57 88 -101 116c-7 -65 -62 -116 -129 -116c-72 0 -130 58 -130 130c0 70 55 127 125 130
c42 64 135 115 135 190c0 56 -13 82 -37 112l-40 -72h-42c-7 23 -14 67 -54 67c-38 0 -57 -59 -57 -102c12 17 32 34 60 34c50 0 90 -40 90 -90s-40 -95 -90 -95c-71 0 -120 59 -120 150c1 49 31 158 119 158zM140 433c-22 0 -40 -18 -40 -40s18 -40 40 -40s40 18 40 40
s-18 40 -40 40zM180 174c-28 0 -50 -22 -50 -50s22 -50 50 -50s50 22 50 50s-22 50 -50 50z" />
    <glyph glyph-name="uni0E31" unicode="&#xe31;" horiz-adv-x="0" 
d="M-335 930c52 0 95 -43 95 -95c0 -25 -11 -52 -32 -65c9 -9 25 -10 47 -10c81 0 125 95 125 150h120c0 -99 -76 -230 -245 -230c-93 0 -205 39 -205 155c0 52 43 95 95 95zM-335 870c-19 0 -35 -16 -35 -35s16 -35 35 -35s35 16 35 35s-16 35 -35 35z" />
    <glyph glyph-name="uni0E4C" unicode="&#xe4c;" horiz-adv-x="0" 
d="M-130 1180h120c-9 -49 -53 -99 -102 -117c11 -15 17 -33 17 -53c0 -50 -40 -90 -90 -90s-90 40 -90 90c0 107 136 85 145 170zM-185 1044c-17 0 -30 -13 -30 -30s13 -30 30 -30s30 13 30 30s-13 30 -30 30z" />
    <glyph glyph-name="uni0E39" unicode="&#xe39;" horiz-adv-x="0" 
d="M-250 -235c1 -16 5 -35 35 -35s34 19 35 35v155h110v-190c0 -25 -31 -70 -145 -70s-145 45 -145 70v10c-45 7 -80 48 -80 95c0 52 43 95 95 95s95 -43 95 -95v-70zM-345 -130c-19 0 -35 -16 -35 -35s16 -35 35 -35s35 16 35 35s-16 35 -35 35z" />
    <glyph glyph-name="uni0E03" unicode="&#xe03;" horiz-adv-x="615" 
d="M129 606c60 0 75 -63 75 -63l37 63h28c57 -17 106 -80 106 -162c0 -131 -70 -157 -70 -225v-54c0 -28 8 -67 60 -67s60 39 60 67v425h160v-450c0 -38 -62 -152 -220 -152s-220 114 -220 152v54c0 97 155 153 155 250c0 56 -13 82 -37 112l-40 -72h-42
c-7 23 -14 67 -54 67c-38 0 -57 -59 -57 -102c12 17 32 34 60 34c50 0 90 -40 90 -90s-40 -95 -90 -95c-71 0 -120 59 -120 150c1 49 31 158 119 158zM130 433c-22 0 -40 -18 -40 -40s18 -40 40 -40s40 18 40 40s-18 40 -40 40z" />
    <glyph glyph-name="uni0E22" unicode="&#xe22;" horiz-adv-x="600" 
d="M190 606c72 0 130 -58 130 -130c0 -58 -46 -107 -80 -119h110v-85c-88 0 -150 -37 -150 -92c0 -49 40 -87 100 -87s90 37 90 37v460h160v-530s-79 -72 -250 -72s-260 77 -260 192c0 55 27 115 95 145c-43 19 -85 65 -85 151c0 67 58 130 140 130zM190 526
c-28 0 -50 -22 -50 -50s22 -50 50 -50s50 22 50 50s-22 50 -50 50z" />
    <glyph glyph-name="uni0E46" unicode="&#xe46;" horiz-adv-x="660" 
d="M195 606c51 0 106 -33 116 -61l54 61h55c57 -17 150 -94 150 -196v-470c0 -153 -137 -280 -300 -280v110c97 0 150 67 150 170v470c0 74 -9 110 -31 120l-61 -70h-58c0 19 -24 73 -72 73c-46 0 -67 -41 -67 -91c6 12 21 24 49 24c50 0 90 -40 90 -90s-40 -90 -90 -90
c-71 0 -120 59 -120 150c0 82 51 170 135 170zM180 416c-22 0 -40 -18 -40 -40s18 -40 40 -40s40 18 40 40s-18 40 -40 40z" />
    <glyph glyph-name="uni0E47" unicode="&#xe47;" horiz-adv-x="0" 
d="M-180 1006h100c0 -72 -68 -145 -140 -145h-130c-48 0 -70 -26 -70 -65c0 -35 32 -52 32 -52l38 56h60c11 -50 38 -83 77 -83c-19 13 -37 34 -37 59c0 39 31 70 70 70s70 -31 70 -70c0 -57 -44 -116 -120 -116c-45 0 -80 28 -100 61l-35 -55c-72 0 -155 41 -155 130
c0 72 68 140 150 140h130c43 0 60 31 60 70zM-180 801c-14 0 -25 -11 -25 -25s11 -25 25 -25s25 11 25 25s-11 25 -25 25z" />
    <glyph glyph-name="uni0E0B" unicode="&#xe0b;" horiz-adv-x="615" 
d="M465 680h150c0 -123 -95 -183 -155 -205c0 0 115 -59 115 -115v-220c0 -38 -62 -152 -220 -152s-220 114 -220 152v54c0 97 155 153 155 250c0 56 -13 82 -37 112l-40 -72h-42c-7 23 -14 67 -54 67c-38 0 -57 -59 -57 -102c12 17 32 34 60 34c50 0 90 -40 90 -90
s-40 -95 -90 -95c-71 0 -120 59 -120 150c1 49 31 158 119 158c60 0 75 -63 75 -63l37 63h28c38 -11 72 -42 91 -86c72 33 115 77 115 160zM120 433c-22 0 -40 -18 -40 -40s18 -40 40 -40s40 18 40 40s-18 40 -40 40zM364 424c-6 -114 -69 -141 -69 -205v-54
c0 -28 8 -67 60 -67s60 39 60 67v195c0 22 -23 48 -51 64z" />
    <glyph glyph-name="uni0E02" unicode="&#xe02;" horiz-adv-x="600" 
d="M184 606c98 0 165 -80 165 -162c0 -131 -59 -131 -59 -225v-54c0 -28 13 -67 60 -67s60 39 60 67v425h160v-450c0 -38 -62 -152 -220 -152s-220 114 -220 152v54c0 124 144 153 144 250c0 59 -40 107 -98 107c-37 0 -64 -19 -76 -40c0 0 17 12 39 12c51 0 96 -32 96 -97
c0 -55 -45 -100 -100 -100s-105 52 -105 115c0 99 72 165 154 165zM135 471c-24 0 -45 -21 -45 -45s21 -45 45 -45s45 21 45 45s-21 45 -45 45z" />
    <glyph glyph-name="uni0E0A" unicode="&#xe0a;" horiz-adv-x="600" 
d="M450 680h150c0 -123 -95 -183 -155 -205c0 0 115 -59 115 -115v-220c0 -38 -62 -152 -220 -152s-220 114 -220 152v54c0 124 144 153 144 250c0 59 -40 107 -98 107c-37 0 -64 -19 -76 -40c0 0 17 12 39 12c51 0 96 -32 96 -97c0 -55 -45 -100 -100 -100
s-105 52 -105 115c0 99 72 165 154 165c69 0 122 -39 148 -91c80 33 128 78 128 165zM125 471c-24 0 -45 -21 -45 -45s21 -45 45 -45s45 21 45 45s-21 45 -45 45zM339 430c-4 -117 -59 -120 -59 -211v-54c0 -28 13 -67 60 -67s60 39 60 67v195c0 25 -30 54 -61 70z" />
    <glyph glyph-name="uni0E19" unicode="&#xe19;" horiz-adv-x="630" 
d="M150 606c72 0 130 -58 130 -130v-356c37 35 81 66 130 100v370h160v-355l-21 -15c31 -15 61 -50 61 -101c0 -69 -56 -125 -125 -125c-59 0 -108 41 -122 96c-34 -28 -94 -70 -113 -96c-61 0 -130 43 -130 106v250c-57 13 -100 65 -100 126c0 72 58 130 130 130zM150 526
c-28 0 -50 -22 -50 -50s22 -50 50 -50s50 22 50 50s-22 50 -50 50zM485 169c-28 0 -50 -22 -50 -50s22 -50 50 -50s50 22 50 50s-22 50 -50 50z" />
    <glyph glyph-name="uni0E23" unicode="&#xe23;" horiz-adv-x="550" 
d="M310 300c0 65 -205 77 -290 85c0 134 120 227 240 227c76 0 131 -37 160 -68c20 27 69 56 100 56v-95c-31 0 -81 -29 -100 -56c-56 56 -106 78 -160 78c-64 0 -92 -43 -110 -68c175 -18 320 -42 320 -144v-201c0 -66 -54 -120 -120 -120s-120 54 -120 120
c0 52 33 97 80 113v73zM350 154c-22 0 -40 -18 -40 -40s18 -40 40 -40s40 18 40 40s-18 40 -40 40z" />
    <glyph glyph-name="uni0E07" unicode="&#xe07;" horiz-adv-x="560" 
d="M360 350c-57 13 -100 65 -100 126c0 72 58 130 130 130s130 -58 130 -130v-362c0 -69 -108 -126 -200 -126l-320 460h160l200 -304v206zM390 526c-28 0 -50 -22 -50 -50s22 -50 50 -50s50 22 50 50s-22 50 -50 50z" />
    <glyph glyph-name="uni0E0E" unicode="&#xe0e;" 
d="M320 612c133 0 270 -71 270 -240v-372v-260c0 -73 -180 -80 -180 -80s-69 37 -126 73c-16 -43 -56 -73 -104 -73c-61 0 -110 49 -110 110s49 110 110 110c29 0 56 -11 75 -30c5 14 10 32 10 50h90c0 -34 -21 -75 -35 -90c56 -37 110 -65 110 -65v255v372
c0 100 -57 130 -110 130c-40 0 -84 -22 -100 -62l120 -25s-62 -64 -70 -125v-176c0 -66 -54 -120 -120 -120s-120 54 -120 120c0 52 33 97 80 113v43c0 84 60 120 60 120l-120 20c28 90 139 202 270 202zM150 154c-22 0 -40 -18 -40 -40s18 -40 40 -40s40 18 40 40
s-18 40 -40 40zM180 -185c-25 0 -45 -20 -45 -45s20 -45 45 -45s45 20 45 45s-20 45 -45 45z" />
    <glyph glyph-name="uni0E2B" unicode="&#xe2b;" horiz-adv-x="630" 
d="M490 612c66 0 120 -54 120 -120c0 -40 -20 -76 -50 -97l20 -10v-385h-160v340s-140 -93 -140 -230v-110h-160v350c-57 13 -100 65 -100 126c0 72 58 130 130 130s130 -58 130 -130v-167c32 43 80 77 117 108c-17 20 -27 46 -27 75c0 66 54 120 120 120zM490 542
c-28 0 -50 -22 -50 -50s22 -50 50 -50s50 22 50 50s-22 50 -50 50zM150 526c-28 0 -50 -22 -50 -50s22 -50 50 -50s50 22 50 50s-22 50 -50 50z" />
    <glyph glyph-name="uni0E3A" unicode="&#xe3a;" horiz-adv-x="0" 
d="M-70 -150c0 -45 -35 -80 -80 -80s-80 35 -80 80s35 80 80 80s80 -35 80 -80z" />
    <glyph glyph-name="uni0E53" unicode="&#xe53;" horiz-adv-x="800" 
d="M510 606h80c114 -39 170 -155 170 -300v-306h-170v306c0 76 -13 139 -25 174l-90 -161h-96c0 43 -32 161 -99 161c-52 0 -70 -97 -70 -180c0 -11 1 -26 3 -41c26 22 60 35 97 35c83 0 150 -67 150 -150s-67 -150 -150 -150c-179 0 -270 125 -270 306
c0 166 120 300 240 300c123 0 151 -120 151 -120zM310 199c-30 0 -55 -25 -55 -55s25 -55 55 -55s55 25 55 55s-25 55 -55 55z" />
    <glyph glyph-name="uni0E24" unicode="&#xe24;" horiz-adv-x="610" 
d="M70 270c0 84 50 120 50 120l-100 20c28 90 139 202 270 202c133 0 270 -71 270 -240v-712h-160v712c0 100 -57 130 -110 130c-40 0 -84 -22 -100 -62l100 -25s-52 -64 -60 -125v-63c47 -16 80 -61 80 -113c0 -66 -54 -120 -120 -120s-120 54 -120 120v156zM190 154
c-22 0 -40 -18 -40 -40s18 -40 40 -40s40 18 40 40s-18 40 -40 40z" />
    <glyph glyph-name="uni0E26" unicode="&#xe26;" 
d="M270 114c0 -66 -54 -120 -120 -120s-120 54 -120 120c0 52 33 97 80 113v43c0 84 60 120 60 120l-120 20c28 90 139 202 270 202c133 0 270 -71 270 -240v-712h-160v712c0 100 -57 130 -110 130c-40 0 -84 -22 -100 -62l120 -25s-62 -64 -70 -125v-176zM150 154
c-22 0 -40 -18 -40 -40s18 -40 40 -40s40 18 40 40s-18 40 -40 40z" />
    <glyph glyph-name="uni0E45" unicode="&#xe45;" horiz-adv-x="290" 
d="M80 -332v714c0 88 -20 120 -70 120c-48 0 -80 -37 -80 -88h-140c0 101 57 198 220 198s230 -99 230 -230v-714h-160z" />
    <glyph glyph-name="uni0E50" unicode="&#xe50;" horiz-adv-x="744" 
d="M372 612c183 0 332 -140 332 -312s-149 -312 -332 -312s-332 140 -332 312s149 312 332 312zM372 502c-84 0 -162 -90 -162 -202s78 -202 162 -202s162 90 162 202s-78 202 -162 202z" />
    <glyph glyph-name="uni0E27" unicode="&#xe27;" horiz-adv-x="550" 
d="M260 612c153 0 240 -101 240 -212v-286c0 -66 -54 -120 -120 -120s-120 54 -120 120c0 52 33 97 80 113v173c0 68 -26 102 -80 102s-75 -46 -75 -87h-165c0 81 87 197 240 197zM380 154c-22 0 -40 -18 -40 -40s18 -40 40 -40s40 18 40 40s-18 40 -40 40z" />
    <glyph glyph-name="uni0E17" unicode="&#xe17;" 
d="M150 606c72 0 130 -58 130 -130v-118c30 66 78 143 140 238c82 0 170 -47 170 -136v-460h-160v460c-61 -75 -150 -273 -150 -390v-70h-160v350c-57 13 -100 65 -100 126c0 72 58 130 130 130zM150 526c-28 0 -50 -22 -50 -50s22 -50 50 -50s50 22 50 50s-22 50 -50 50z
" />
    <glyph glyph-name="uni0E2C" unicode="&#xe2c;" horiz-adv-x="690" 
d="M530 630c65 0 118 -52 120 -117c35 17 60 47 60 47v-120s-21 -23 -60 -36v-304c0 -85 -143 -106 -205 -106l-65 216l-65 -216c-62 0 -205 23 -205 106v250c-57 13 -100 65 -100 126c0 72 58 130 130 130s130 -58 130 -130v-366l90 280h40l90 -280v287
c-47 16 -80 61 -80 113c0 66 54 120 120 120zM530 560c-28 0 -50 -22 -50 -50s22 -50 50 -50s50 22 50 50s-22 50 -50 50zM140 526c-28 0 -50 -22 -50 -50s22 -50 50 -50s50 22 50 50s-22 50 -50 50z" />
    <glyph glyph-name="uni0E18" unicode="&#xe18;" horiz-adv-x="570" 
d="M270 612c76 0 131 -37 160 -68c20 27 69 56 100 56v-95c-31 0 -81 -29 -100 -56c-56 56 -106 73 -160 73c-53 0 -85 -25 -105 -60c175 -18 345 -40 345 -152v-170c0 -48 -48 -152 -225 -152s-225 104 -225 152v170h160v-150c0 -28 16 -62 65 -62c48 0 65 34 65 62v140
c0 65 -235 77 -320 85c0 134 120 227 240 227z" />
    <glyph glyph-name="uni0E10" unicode="&#xe10;" horiz-adv-x="580" 
d="M460 -60c44 0 80 -36 80 -80v-120c0 -73 -125 -80 -125 -80l-73 70l-39 -64h-67l-26 47c-16 -32 -48 -53 -85 -53c-52 0 -95 43 -95 95s43 95 95 95c22 0 43 -8 59 -21c4 16 6 34 6 51h80c0 -46 -14 -74 -30 -100l25 -45l50 80h43l97 -97v62c-42 3 -75 37 -75 80
c0 44 36 80 80 80zM460 -110c-17 0 -30 -13 -30 -30s13 -30 30 -30s30 13 30 30s-13 30 -30 30zM125 -210c-19 0 -35 -16 -35 -35s16 -35 35 -35s35 16 35 35s-16 35 -35 35zM480 60c0 -62 -200 -66 -200 -66v46c0 50 -3 107 -44 149c-15 -35 -50 -59 -91 -59
c-55 0 -100 45 -100 100s45 100 100 100c71 0 137 -54 175 -145v115c0 65 -195 77 -280 85c0 134 120 227 240 227c76 0 131 -37 160 -68c20 27 69 56 100 56v-95c-31 0 -81 -29 -100 -56c-56 56 -106 78 -160 78c-64 0 -92 -43 -110 -68c175 -18 310 -42 310 -144v-255z
M145 270c-22 0 -40 -18 -40 -40s18 -40 40 -40s40 18 40 40s-18 40 -40 40z" />
    <glyph glyph-name="uni0E2F" unicode="&#xe2f;" horiz-adv-x="520" 
d="M110 590c50 0 90 -40 90 -90c0 -36 -28 -73 -55 -75c14 -15 44 -25 65 -25c82 0 140 82 140 170h120v-370c0 -153 -137 -260 -300 -260v110c97 0 140 47 140 150v150s-22 -35 -100 -35c-86 0 -190 58 -190 185c0 50 40 90 90 90zM110 535c-19 0 -35 -16 -35 -35
s16 -35 35 -35s35 16 35 35s-16 35 -35 35z" />
    <glyph glyph-name="uni0E5A" unicode="&#xe5a;" horiz-adv-x="700" 
d="M120 590c50 0 90 -40 90 -90c0 -36 -28 -73 -55 -75c14 -15 44 -25 65 -25c82 0 140 82 140 170h90v-370c0 -153 -107 -260 -270 -260v110c97 0 140 47 140 150v150s-22 -35 -100 -35c-86 0 -190 58 -190 185c0 50 40 90 90 90zM510 570h130v-440
c0 -110 -125 -162 -185 -190l-35 73c40 24 90 74 90 147v410zM120 535c-19 0 -35 -16 -35 -35s16 -35 35 -35s35 16 35 35s-16 35 -35 35z" />
    <glyph glyph-name="uni0E13" unicode="&#xe13;" horiz-adv-x="850" 
d="M290 612c133 0 270 -71 270 -240v-242c13 18 35 57 80 100v360h160v-355l-21 -15c31 -15 61 -50 61 -101c0 -69 -56 -125 -125 -125c-59 0 -108 41 -122 96c-26 -35 -47 -69 -63 -96c-61 0 -130 43 -130 106v272c0 100 -57 130 -110 130c-40 0 -84 -22 -100 -62l100 -25
s-52 -64 -60 -125v-63c47 -16 80 -61 80 -113c0 -66 -54 -120 -120 -120s-120 54 -120 120v156c0 84 50 120 50 120l-100 20c28 90 139 202 270 202zM715 169c-28 0 -50 -22 -50 -50s22 -50 50 -50s50 22 50 50s-22 50 -50 50zM190 154c-22 0 -40 -18 -40 -40s18 -40 40 -40
s40 18 40 40s-18 40 -40 40z" />
    <glyph glyph-name="uni0E08" unicode="&#xe08;" horiz-adv-x="590" 
d="M530 70c0 -72 -185 -76 -185 -76v52c0 67 -14 122 -72 191c-12 -25 -41 -57 -88 -57c-58 0 -105 47 -105 105s47 105 105 105c84 0 152 -86 185 -170v182c0 68 -34 110 -90 110s-85 -37 -85 -78h-165c0 81 97 178 250 178s250 -99 250 -210v-332zM185 330
c-25 0 -45 -20 -45 -45s20 -45 45 -45s45 20 45 45s-20 45 -45 45z" />
    <glyph glyph-name="uni0E0D" unicode="&#xe0d;" horiz-adv-x="850" 
d="M465 -70c52 0 95 -43 95 -95c0 -25 -11 -52 -32 -65c9 -9 25 -10 47 -10c81 0 125 95 125 150h120c0 -99 -76 -230 -245 -230c-93 0 -205 39 -205 155c0 52 43 95 95 95zM465 -130c-19 0 -35 -16 -35 -35s16 -35 35 -35s35 16 35 35s-16 35 -35 35zM560 150
c0 -28 1 -58 40 -58s40 30 40 58v440h160v-460c0 -38 -36 -142 -200 -142s-200 104 -200 142v242c0 100 -57 130 -110 130c-40 0 -84 -22 -100 -62l100 -25s-52 -64 -60 -125v-63c47 -16 80 -61 80 -113c0 -66 -54 -120 -120 -120s-120 54 -120 120v156c0 84 50 120 50 120
l-100 20c28 90 139 202 270 202c133 0 270 -71 270 -240v-222zM190 154c-22 0 -40 -18 -40 -40s18 -40 40 -40s40 18 40 40s-18 40 -40 40z" />
    <glyph glyph-name="uni0E0F" unicode="&#xe0f;" 
d="M320 612c133 0 270 -71 270 -240v-372v-260c0 -73 -195 -80 -195 -80l-50 115l-55 -109h-82l-27 42c-20 -29 -53 -48 -91 -48c-61 0 -110 49 -110 110s49 110 110 110c32 0 62 -14 82 -36c5 10 9 22 9 36h88c0 -48 -18 -80 -44 -105l25 -40l70 135h50l60 -120v250v372
c0 100 -57 130 -110 130c-40 0 -84 -22 -100 -62l120 -25s-62 -64 -70 -125v-176c0 -66 -54 -120 -120 -120s-120 54 -120 120c0 52 33 97 80 113v43c0 84 60 120 60 120l-120 20c28 90 139 202 270 202zM150 154c-22 0 -40 -18 -40 -40s18 -40 40 -40s40 18 40 40
s-18 40 -40 40zM90 -185c-25 0 -45 -20 -45 -45s20 -45 45 -45s45 20 45 45s-20 45 -45 45z" />
    <glyph glyph-name="uni0E4B" unicode="&#xe4b;" horiz-adv-x="0" 
d="M-220 1180h120v-75h80v-60h-80v-95l-120 40v55h-80v60h80v75z" />
    <glyph glyph-name="uni0E0F.shorten" unicode="&#xf73a;" 
d="M320 612c133 0 270 -71 270 -240v-372v-160c0 -73 -195 -80 -195 -80l-50 115l-55 -109h-82l-27 42c-20 -29 -53 -48 -91 -48c-61 0 -110 49 -110 110s49 110 110 110c32 0 62 -14 82 -36c5 10 9 22 9 36h88c0 -48 -18 -80 -44 -105l25 -40l70 135h50l60 -120v150v372
c0 100 -57 130 -110 130c-40 0 -84 -22 -100 -62l120 -25s-62 -64 -70 -125v-176c0 -66 -54 -120 -120 -120s-120 54 -120 120c0 52 33 97 80 113v43c0 84 60 120 60 120l-120 20c28 90 139 202 270 202zM150 154c-22 0 -40 -18 -40 -40s18 -40 40 -40s40 18 40 40
s-18 40 -40 40zM90 -85c-25 0 -45 -20 -45 -45s20 -45 45 -45s45 20 45 45s-20 45 -45 45z" />
    <glyph glyph-name="uni0E0E.shorten" unicode="&#xf73b;" 
d="M320 612c133 0 270 -71 270 -240v-372v-160c0 -73 -180 -80 -180 -80s-69 37 -126 73c-16 -43 -56 -73 -104 -73c-61 0 -110 49 -110 110s49 110 110 110c29 0 56 -11 75 -30c5 14 10 32 10 50h90c0 -34 -21 -75 -35 -90c56 -37 110 -65 110 -65v155v372
c0 100 -57 130 -110 130c-40 0 -84 -22 -100 -62l120 -25s-62 -64 -70 -125v-176c0 -66 -54 -120 -120 -120s-120 54 -120 120c0 52 33 97 80 113v43c0 84 60 120 60 120l-120 20c28 90 139 202 270 202zM150 154c-22 0 -40 -18 -40 -40s18 -40 40 -40s40 18 40 40
s-18 40 -40 40zM180 -85c-25 0 -45 -20 -45 -45s20 -45 45 -45s45 20 45 45s-20 45 -45 45z" />
    <glyph glyph-name="uni0E5B" unicode="&#xe5b;" horiz-adv-x="1340" 
d="M310 612c137 0 220 -108 220 -232c0 -143 -72 -241 -175 -241c-101 0 -155 102 -155 207c0 55 45 100 95 100s90 -45 90 -100c0 -54 -39 -98 -87 -100c9 -22 22 -45 57 -45c46 0 85 70 85 179c0 103 -65 153 -130 153c-98 0 -160 -87 -160 -233c0 -141 94 -232 200 -232
c190 0 250 206 265 492h95l75 -324l70 264h80c19 -83 55 -179 115 -179h170v-90h-170c-97 0 -150 115 -150 115l-65 -256l-90 -1l-70 291c-15 -119 -59 -392 -325 -392c-199 0 -290 165 -290 312c0 187 100 312 250 312zM295 391c-19 0 -35 -20 -35 -45s16 -45 35 -45
s35 20 35 45s-16 45 -35 45z" />
    <glyph glyph-name="uni0E4E" unicode="&#xe4e;" horiz-adv-x="0" 
d="M-280 1140c77 0 140 -63 140 -140h-90c0 39 -22 70 -50 70s-50 -31 -50 -70c0 -36 19 -65 44 -69l-47 -64c-9 14 -22 23 -37 23c-28 0 -50 -31 -50 -70s22 -70 50 -70v-70c-77 0 -140 63 -140 140c0 63 41 116 98 134c-5 14 -8 30 -8 46c0 77 63 140 140 140z" />
    <glyph glyph-name="uni0E4F" unicode="&#xe4f;" horiz-adv-x="760" 
d="M380 600c166 0 300 -134 300 -300s-134 -300 -300 -300s-300 134 -300 300s134 300 300 300zM380 500c-111 0 -200 -89 -200 -200s89 -200 200 -200s200 89 200 200s-89 200 -200 200zM380 430c72 0 130 -58 130 -130s-58 -130 -130 -130s-130 58 -130 130
s58 130 130 130zM380 345c-25 0 -45 -20 -45 -45s20 -45 45 -45s45 20 45 45s-20 45 -45 45z" />
    <glyph glyph-name="uni0E51" unicode="&#xe51;" horiz-adv-x="744" 
d="M370 612c185 0 334 -131 334 -312c0 -196 -111 -360 -332 -360v100c102 0 172 80 172 260c0 122 -66 202 -174 202s-190 -67 -190 -187c0 -80 42 -130 90 -130c17 0 41 0 50 10c-38 12 -75 45 -75 105c0 69 56 125 125 125s125 -56 125 -125c0 -108 -80 -225 -215 -225
c-152 0 -240 114 -240 225c0 172 145 312 330 312zM370 350c-28 0 -50 -22 -50 -50s22 -50 50 -50s50 22 50 50s-22 50 -50 50z" />
    <glyph glyph-name="uni0E52" unicode="&#xe52;" horiz-adv-x="880" 
d="M628 606h42c77 -13 190 -61 190 -206v-310c0 -59 -62 -90 -120 -90h-560c-60 0 -120 30 -120 90v510c0 86 -60 210 -60 210h170s56 -117 60 -210v-500h460v270c0 61 -9 91 -25 129l-60 -80h-86c-8 29 -28 82 -74 82s-60 -64 -60 -112c0 -21 8 -44 12 -51
c14 30 47 61 93 61c72 0 130 -58 130 -130s-63 -130 -135 -130c-163 0 -215 142 -215 246c0 116 72 221 170 221c105 0 131 -84 131 -84zM490 319c-28 0 -50 -22 -50 -50s22 -50 50 -50s50 22 50 50s-22 50 -50 50z" />
    <glyph glyph-name="uni0E54" unicode="&#xe54;" horiz-adv-x="830" 
d="M680 810h170c0 -212 -121 -326 -320 -326h-180c-110 0 -170 -74 -170 -190c1 -67 50 -184 150 -184h115c-41 31 -80 84 -80 164c0 83 64 150 145 150c72 0 130 -58 130 -130s-58 -130 -130 -130c32 -36 79 -54 121 -54h99v-110h-420c-166 0 -300 128 -300 294
s154 300 320 300h200c110 0 150 65 150 216zM510 349c-30 0 -55 -25 -55 -55s25 -55 55 -55s55 25 55 55s-25 55 -55 55z" />
    <glyph glyph-name="uni0E55" unicode="&#xe55;" horiz-adv-x="830" 
d="M680 810h170c0 -212 -121 -326 -320 -326h-180c-110 0 -170 -74 -170 -190c1 -67 50 -184 150 -184h115c-41 31 -80 84 -80 164c0 83 64 150 145 150c72 0 130 -58 130 -130s-58 -130 -130 -130c32 -36 79 -54 121 -54h99v-110h-420c-166 0 -300 128 -300 294
s154 300 320 300h27c-17 21 -27 47 -27 76c0 66 54 120 120 120s120 -54 120 -120c0 -29 -10 -55 -27 -76c100 5 137 71 137 216zM450 710c-22 0 -40 -18 -40 -40s18 -40 40 -40s40 18 40 40s-18 40 -40 40zM510 349c-30 0 -55 -25 -55 -55s25 -55 55 -55s55 25 55 55
s-25 55 -55 55z" />
    <glyph glyph-name="uni0E56" unicode="&#xe56;" horiz-adv-x="770" 
d="M20 690v120c100 0 215 -75 253 -216h117c166 0 320 -134 320 -300s-112 -306 -305 -306s-275 141 -275 246c0 73 59 150 140 150c72 0 130 -58 130 -130c0 -60 -40 -110 -94 -125c25 -24 54 -31 89 -31c101 0 145 97 145 196c0 116 -80 190 -160 190h-194
c-12 70 -63 206 -166 206zM270 309c-30 0 -55 -25 -55 -55s25 -55 55 -55s55 25 55 55s-25 55 -55 55z" />
    <glyph glyph-name="uni0E57" unicode="&#xe57;" horiz-adv-x="990" 
d="M490 606h80c114 -39 170 -155 170 -300v-156c49 33 60 63 60 156v284h170v-284c0 -228 -234 -306 -400 -306v90v216c0 76 -13 139 -25 174l-90 -161h-96c0 43 -32 161 -99 161c-52 0 -70 -97 -70 -180c0 -11 1 -26 3 -41c26 22 60 35 97 35c83 0 150 -67 150 -150
s-67 -150 -150 -150c-179 0 -270 125 -270 306c0 166 120 300 240 300c123 0 151 -120 151 -120zM290 199c-30 0 -55 -25 -55 -55s25 -55 55 -55s55 25 55 55s-25 55 -55 55z" />
    <glyph glyph-name="uni0E58" unicode="&#xe58;" horiz-adv-x="860" 
d="M690 810h170c0 -212 -164 -336 -330 -336h-190c-91 0 -160 -64 -160 -180c0 -99 40 -141 80 -164l55 174h128c0 -98 28 -216 120 -216c43 0 64 34 77 56c-72 0 -130 58 -130 130s58 130 130 130c81 0 140 -77 140 -150c0 -133 -53 -266 -222 -266
c-110 0 -169 55 -195 139l-43 -133c-188 0 -310 134 -310 300s164 300 330 300h190c110 0 160 65 160 216zM640 329c-30 0 -55 -25 -55 -55s25 -55 55 -55s55 25 55 55s-25 55 -55 55z" />
    <glyph glyph-name="uni0E59" unicode="&#xe59;" horiz-adv-x="870" 
d="M710 810h180c0 -184 -51 -470 -280 -470c-21 55 -39 108 -75 140l-40 -55l175 -425h-160l-170 400s-34 80 -100 80c-52 0 -70 -64 -70 -180c0 -49 4 -94 19 -103c3 13 37 57 91 57c72 0 130 -58 130 -130s-58 -130 -130 -130c-166 0 -280 125 -280 306
c0 166 120 300 240 300c123 0 170 -100 170 -100l70 106h70c49 -32 73 -76 90 -106c32 49 70 142 70 310zM280 174c-28 0 -50 -22 -50 -50s22 -50 50 -50s50 22 50 50s-22 50 -50 50z" />
    <glyph glyph-name="uni0E4A" unicode="&#xe4a;" horiz-adv-x="0" 
d="M-296 1206c32 0 56 -14 70 -36l28 36h40c38 -14 68 -58 68 -110c0 -38 -12 -60 -12 -60c24 20 36 42 36 164h96c-2 -96 -26 -226 -198 -226l-22 46c12 0 18 26 18 66s-5 52 -16 64l-24 -34h-34c0 8 -19 34 -40 34c-25 0 -32 -17 -34 -34c8 2 12 4 22 4
c42 0 76 -34 76 -74c0 -42 -34 -76 -76 -76c-40 0 -92 26 -92 112c0 66 40 124 94 124zM-298 1076c-16 0 -30 -14 -30 -30c0 -18 14 -30 30 -30c18 0 30 12 30 30c0 16 -12 30 -30 30z" />
    <glyph glyph-name="uni0E3F" unicode="&#xe3f;" 
d="M230 1040h90v-183c172 -15 250 -88 250 -232c0 -56 -29 -133 -100 -175c114 -39 140 -125 140 -205c0 -175 -133 -245 -270 -245h-20v-180h-90v180h-200v860h200v180zM200 750v-250h60c87 0 140 43 140 125s-45 125 -170 125h-30zM200 390v-270h80c79 0 160 19 160 125
s-67 145 -170 145h-70z" />
    <glyph glyph-name="uni0E11" unicode="&#xe11;" horiz-adv-x="680" 
d="M139 606c60 0 75 -63 75 -63l37 63h28c50 -15 94 -65 104 -132c22 37 48 78 77 122c82 0 170 -47 170 -136v-460h-160v460c-61 -75 -150 -208 -150 -310v-150h-160v194c0 97 150 153 150 250c0 56 -13 82 -37 112l-40 -72h-42c-7 23 -14 67 -54 67
c-38 0 -57 -59 -57 -102c12 17 32 34 60 34c50 0 90 -40 90 -90s-40 -95 -90 -95c-71 0 -120 59 -120 150c1 49 31 158 119 158zM140 433c-22 0 -40 -18 -40 -40s18 -40 40 -40s40 18 40 40s-18 40 -40 40z" />
    <glyph glyph-name="uni0E12" unicode="&#xe12;" horiz-adv-x="850" 
d="M405 615c93 -27 175 -119 175 -233v-177c33 -25 64 -68 80 -90v475h160v-510c0 -63 -79 -86 -140 -86c-15 29 -56 89 -85 115c0 -64 -51 -115 -115 -115s-115 51 -115 115c0 48 28 89 70 106v167c0 58 -15 103 -35 131l-100 -65l-100 65c-39 -34 -50 -72 -50 -131
c0 -100 18 -165 32 -247c32 27 77 61 101 93c-47 8 -83 49 -83 99c0 55 45 100 100 100s100 -45 100 -100c0 -155 -195 -239 -195 -327h-155c5 38 7 69 7 96c0 120 -37 151 -37 286c0 100 85 199 185 230l95 -69zM300 372c-25 0 -45 -20 -45 -45s20 -45 45 -45s45 20 45 45
s-20 45 -45 45zM480 154c-25 0 -45 -20 -45 -45s20 -45 45 -45s45 20 45 45s-20 45 -45 45z" />
    <glyph glyph-name="uni0E0C" unicode="&#xe0c;" horiz-adv-x="850" 
d="M290 612c133 0 270 -71 270 -240v-181c33 -23 63 -52 80 -76v475h160v-510c0 -63 -79 -86 -140 -86c-15 29 -71 89 -100 115c0 -64 -51 -115 -115 -115s-115 51 -115 115c0 48 28 89 70 106v157c0 100 -57 130 -110 130c-40 0 -84 -22 -100 -62l100 -25s-52 -64 -60 -125
v-63c47 -16 80 -61 80 -113c0 -66 -54 -120 -120 -120s-120 54 -120 120v156c0 84 50 120 50 120l-100 20c28 90 139 202 270 202zM190 154c-22 0 -40 -18 -40 -40s18 -40 40 -40s40 18 40 40s-18 40 -40 40zM445 154c-25 0 -45 -20 -45 -45s20 -45 45 -45s45 20 45 45
s-20 45 -45 45z" />
    <glyph glyph-name="uni0E09" unicode="&#xe09;" horiz-adv-x="630" 
d="M300 612c153 0 260 -99 260 -210v-167l-21 -15c31 -15 61 -50 61 -101c0 -69 -56 -125 -125 -125c-59 0 -108 41 -122 96c-34 -28 -84 -70 -103 -96c-61 0 -130 43 -130 106v82c-36 18 -60 55 -60 98c0 61 49 110 110 110s110 -49 110 -110v-150c23 27 96 83 120 100v172
c0 68 -44 110 -100 110s-95 -37 -95 -78h-165c0 81 107 178 260 178zM170 325c-25 0 -45 -20 -45 -45s20 -45 45 -45s45 20 45 45s-20 45 -45 45zM475 169c-28 0 -50 -22 -50 -50s22 -50 50 -50s50 22 50 50s-22 50 -50 50z" />
    <glyph glyph-name="uni0E0A.alt" unicode="&#xe61;" horiz-adv-x="600" 
d="M620 630v-125c-71 0 -135 -5 -185 -45c0 0 125 -30 125 -100v-220c0 -38 -62 -152 -220 -152s-220 114 -220 152v54c0 124 144 153 144 250c0 59 -40 107 -98 107c-37 0 -64 -19 -76 -40c0 0 17 12 39 12c51 0 96 -32 96 -97c0 -55 -45 -100 -100 -100s-105 52 -105 115
c0 99 72 165 154 165c74 0 131 -46 154 -104c58 85 191 128 292 128zM125 471c-24 0 -45 -21 -45 -45s21 -45 45 -45s45 21 45 45s-21 45 -45 45zM338 420c-7 -107 -58 -113 -58 -201v-54c0 -28 13 -67 60 -67s60 39 60 67v195c0 28 -34 47 -62 60z" />
    <glyph glyph-name="uni0E0B.alt" unicode="&#xe62;" horiz-adv-x="615" 
d="M635 630v-125c-71 0 -135 -5 -185 -45c0 0 125 -30 125 -100v-220c0 -38 -62 -152 -220 -152s-220 114 -220 152v54c0 97 155 153 155 250c0 56 -13 82 -37 112l-40 -72h-42c-7 23 -14 67 -54 67c-38 0 -57 -59 -57 -102c12 17 32 34 60 34c50 0 90 -40 90 -90
s-40 -95 -90 -95c-71 0 -120 59 -120 150c1 49 31 158 119 158c60 0 75 -63 75 -63l37 63h28c39 -12 75 -45 93 -92c62 77 187 116 283 116zM120 433c-22 0 -40 -18 -40 -40s18 -40 40 -40s40 18 40 40s-18 40 -40 40zM364 415c-10 -106 -69 -133 -69 -196v-54
c0 -28 8 -67 60 -67s60 39 60 67v195c0 25 -26 42 -51 55z" />
    <glyph glyph-name="uni0E28.alt" unicode="&#xe63;" horiz-adv-x="630" 
d="M650 630v-125c-36 0 -70 -1 -101 -8c27 -40 41 -89 41 -145v-352h-155v352c0 104 -57 150 -135 150s-140 -51 -140 -150c0 -28 3 -68 7 -101c9 42 22 96 43 126c20 30 52 50 90 50c55 0 100 -45 100 -100s-45 -100 -100 -100c-26 0 -49 10 -67 26
c-24 -82 -28 -174 -28 -253h-155c5 38 7 69 7 96c0 117 -27 131 -27 256c0 143 103 260 270 260c58 0 109 -11 151 -31c62 32 137 49 199 49zM300 372c-25 0 -45 -20 -45 -45s20 -45 45 -45s45 20 45 45s-20 45 -45 45z" />
    <glyph glyph-name="uni0E2A.alt" unicode="&#xe64;" horiz-adv-x="610" 
d="M610 630v-125c-30 0 -60 -1 -87 -5c18 -30 27 -63 27 -98v-342c0 -64 -160 -66 -160 -66v156c0 50 -32 160 -110 160c-56 0 -94 -28 -100 -100c16 9 35 14 55 14c64 0 115 -51 115 -115s-51 -115 -115 -115c-108 0 -195 74 -195 196c0 124 82 215 210 215
c90 0 134 -58 140 -85v82c0 68 -26 115 -90 115s-85 -42 -85 -83h-165c0 81 97 178 250 178c47 0 88 -9 123 -25c60 28 129 43 187 43zM235 154c-25 0 -45 -20 -45 -45s20 -45 45 -45s45 20 45 45s-20 45 -45 45z" />
    <glyph glyph-name="uni0E2E.alt" unicode="&#xe66;" horiz-adv-x="610" 
d="M610 630v-125c-30 0 -60 -1 -87 -5c18 -30 27 -63 27 -98v-214c0 -162 -107 -200 -240 -200s-239 38 -240 200v82c0 72 58 130 130 130s130 -58 130 -130c0 -61 -42 -112 -99 -126c8 -47 45 -56 79 -56c38 0 79 12 80 72v242c0 68 -34 110 -90 110s-85 -37 -85 -78h-165
c0 81 97 178 250 178c47 0 88 -9 123 -25c60 28 129 43 187 43zM200 320c-28 0 -50 -22 -50 -50s22 -50 50 -50s50 22 50 50s-22 50 -50 50z" />
    <glyph glyph-name="B" unicode="B" horiz-adv-x="760" 
d="M40 0v860h310c221 0 320 -73 320 -235c0 -56 -29 -133 -100 -175c114 -39 140 -125 140 -205c0 -175 -133 -245 -270 -245h-400zM210 390v-270h160c79 0 170 19 170 125s-77 145 -180 145h-150zM210 500h140c87 0 150 43 150 125s-55 125 -180 125h-110v-250z" />
    <glyph glyph-name="period" unicode="." horiz-adv-x="300" 
d="M240 100c0 -56 -44 -100 -100 -100s-100 44 -100 100s44 100 100 100s100 -44 100 -100z" />
    <glyph glyph-name="x" unicode="x" horiz-adv-x="550" 
d="M190 335l-180 285h170l95 -190l95 190h170l-180 -285l210 -335h-180l-115 230l-115 -230h-180z" />
    <glyph glyph-name="i" unicode="i" horiz-adv-x="300" 
d="M240 820c0 -56 -44 -100 -100 -100s-100 44 -100 100s44 100 100 100s100 -44 100 -100zM60 620h160v-620h-160v620z" />
    <glyph glyph-name="o" unicode="o" horiz-adv-x="660" 
d="M320 638c163 0 290 -117 290 -280v-96c0 -163 -127 -280 -290 -280s-290 117 -290 280v96c0 163 127 280 290 280zM320 528c-87 0 -130 -67 -130 -180v-76c0 -113 43 -180 130 -180s130 67 130 180v76c0 113 -43 180 -130 180z" />
    <glyph glyph-name="O" unicode="O" horiz-adv-x="840" 
d="M410 878c220 0 380 -149 380 -368v-160c0 -219 -160 -368 -380 -368s-380 149 -380 368v160c0 219 160 368 380 368zM410 753c-144 0 -205 -111 -205 -263v-120c0 -152 61 -263 205 -263s205 111 205 263v120c0 152 -61 263 -205 263z" />
    <glyph glyph-name="I" unicode="I" horiz-adv-x="270" 
d="M40 860h170v-860h-170v860z" />
    <glyph glyph-name="X" unicode="X" horiz-adv-x="760" 
d="M20 860h190l165 -265l165 265h190l-255 -390l285 -470h-200l-185 340l-195 -340h-190l285 470z" />
    <glyph glyph-name="H" unicode="H" horiz-adv-x="780" 
d="M40 860h170v-350h330v350h180v-860h-180v390h-330v-390h-170v860z" />
    <glyph glyph-name="P" unicode="P" horiz-adv-x="710" 
d="M50 860h320c221 0 320 -90 320 -260c0 -129 -122 -260 -270 -260h-200v-340h-170v860zM220 750v-300h150c87 0 150 68 150 150s-55 150 -180 150h-120z" />
    <glyph glyph-name="p" unicode="p" horiz-adv-x="670" 
d="M355 -18c-93 0 -159 71 -175 118v-440h-140v960h140v-120c15 37 67 138 175 138c163 0 265 -107 265 -280v-96c0 -173 -102 -280 -265 -280zM330 92c87 0 130 57 130 170v96c0 113 -43 170 -130 170c-77 0 -130 -77 -130 -180v-76c0 -103 53 -180 130 -180z" />
    <glyph glyph-name="K" unicode="K" horiz-adv-x="760" 
d="M50 860h170v-350h20l250 350h200l-300 -390l370 -470h-219l-281 390h-40v-390h-170v860z" />
    <glyph glyph-name="j" unicode="j" horiz-adv-x="300" 
d="M240 820c0 -56 -44 -100 -100 -100s-100 44 -100 100s44 100 100 100s100 -44 100 -100zM60 620h160v-680c0 -197 -137 -280 -300 -280v120c97 0 140 57 140 160v680z" />
    <glyph glyph-name="D" unicode="D" horiz-adv-x="810" 
d="M40 860h270c292 0 450 -186 450 -430c0 -234 -124 -430 -390 -430h-330v860zM210 745v-620h110c180 0 260 116 260 305s-90 315 -300 315h-70z" />
    <glyph glyph-name="E" unicode="E" horiz-adv-x="710" 
d="M40 860h600v-120h-430v-230h360v-120h-360v-260h450v-130h-620v860z" />
    <glyph glyph-name="L" unicode="L" horiz-adv-x="620" 
d="M40 860h170v-735h410v-125h-580v860z" />
    <glyph glyph-name="F" unicode="F" horiz-adv-x="650" 
d="M40 860h600v-120h-430v-230h350v-120h-350v-390h-170v860z" />
    <glyph glyph-name="J" unicode="J" horiz-adv-x="630" 
d="M420 850h170v-608c0 -154 -115 -260 -285 -260s-285 106 -285 290h170c0 -89 29 -170 115 -170s115 77 115 170v578z" />
    <glyph glyph-name="T" unicode="T" horiz-adv-x="630" 
d="M20 860h580v-120h-205v-740h-170v740h-205v120z" />
    <glyph glyph-name="N" unicode="N" horiz-adv-x="780" 
d="M40 860h200l310 -660v660h170v-860h-200l-310 660v-660h-170v860z" />
    <glyph glyph-name="M" unicode="M" horiz-adv-x="940" 
d="M395 0l-185 640v-640h-170v860h230l190 -680l190 680h230v-860h-170v640l-185 -640h-130z" />
    <glyph glyph-name="U" unicode="U" horiz-adv-x="800" 
d="M40 850h175v-480c0 -152 31 -268 175 -268s175 116 175 268v480h175v-520c0 -219 -130 -348 -350 -348s-350 129 -350 348v520z" />
    <glyph glyph-name="b" unicode="b" horiz-adv-x="670" 
d="M355 638c163 0 265 -107 265 -280v-96c0 -173 -102 -280 -265 -280c-108 0 -160 101 -175 138v-120h-140v960h140v-440c16 47 82 118 175 118zM330 528c-77 0 -130 -77 -130 -180v-76c0 -103 53 -180 130 -180c87 0 130 57 130 170v96c0 113 -43 170 -130 170z" />
    <glyph glyph-name="R" unicode="R" horiz-adv-x="720" 
d="M40 860h282c194 0 328 -52 328 -230c0 -86 -55 -172 -130 -210c76 -20 130 -96 130 -240c0 -166 60 -180 60 -180h-180s-50 1 -50 180c0 126 -54 190 -180 190h-90v-370h-170v860zM210 750v-270h120c87 0 150 58 150 140s-35 130 -160 130h-110z" />
    <glyph glyph-name="V" unicode="V" horiz-adv-x="820" 
d="M20 860h190l190 -680l190 680h190l-290 -860h-180z" />
    <glyph glyph-name="Y" unicode="Y" horiz-adv-x="730" 
d="M10 860h180l170 -340l170 340h180l-265 -500v-360h-170v360z" />
    <glyph glyph-name="A" unicode="A" horiz-adv-x="840" 
d="M340 860h160l320 -860h-180l-80 210h-280l-80 -210h-180zM420 650l-110 -330h220z" />
    <glyph glyph-name="Q" unicode="Q" horiz-adv-x="840" 
d="M410 878c220 0 380 -149 380 -368v-160c0 -99 -32 -183 -88 -246l118 -118l-106 -106l-136 135c-50 -21 -106 -33 -168 -33c-220 0 -380 149 -380 368v160c0 219 160 368 380 368zM410 753c-144 0 -205 -111 -205 -263v-120c0 -152 61 -263 205 -263c25 0 47 3 67 9
l-117 118l106 106l121 -122c19 42 28 94 28 152v120c0 152 -61 263 -205 263z" />
    <glyph glyph-name="Z" unicode="Z" horiz-adv-x="780" 
d="M50 860h650v-125l-470 -605h490v-130h-680v130l480 605h-470v125z" />
    <glyph glyph-name="W" unicode="W" horiz-adv-x="1070" 
d="M460 860h130l160 -680l120 680h180l-190 -860h-200l-135 570l-135 -570h-200l-190 860h180l120 -680z" />
    <glyph glyph-name="S" unicode="S" horiz-adv-x="780" 
d="M380 878c209 0 330 -128 330 -278h-175c0 104 -47 168 -155 168c-107 0 -145 -83 -145 -138c0 -71 31 -106 165 -120c159 -17 340 -72 340 -260c0 -187 -156 -268 -350 -268s-350 105 -350 288h175c0 -111 82 -168 175 -168c101 0 175 46 175 148c0 87 -45 116 -205 140
c-129 19 -300 71 -300 240c0 115 111 248 320 248z" />
    <glyph glyph-name="u" unicode="u" 
d="M50 620h160v-352c0 -113 33 -170 110 -170s110 57 110 170v352h160v-382c0 -153 -107 -250 -270 -250s-270 97 -270 250v382z" />
    <glyph glyph-name="C" unicode="C" horiz-adv-x="810" 
d="M400 878c189 0 332 -116 360 -308h-190c-21 101 -66 183 -170 183c-144 0 -195 -111 -195 -263v-120c0 -152 51 -263 195 -263c104 0 169 78 180 183h190c-31 -206 -181 -308 -370 -308c-220 0 -370 149 -370 368v160c0 219 150 368 370 368z" />
    <glyph glyph-name="d" unicode="d" horiz-adv-x="670" 
d="M305 638c93 0 159 -71 175 -118v440h140v-960h-140v120c-15 -37 -67 -138 -175 -138c-163 0 -265 107 -265 280v96c0 173 102 280 265 280zM330 528c-87 0 -130 -57 -130 -170v-96c0 -113 43 -170 130 -170c77 0 130 77 130 180v76c0 103 -53 180 -130 180z" />
    <glyph glyph-name="G" unicode="G" horiz-adv-x="820" 
d="M400 878c189 0 332 -111 360 -308h-190c-21 91 -56 188 -170 188c-144 0 -195 -116 -195 -268v-120c0 -152 51 -268 195 -268c96 0 135 19 190 73v165h-160v120h330v-330c-101 -105 -192 -148 -360 -148c-220 0 -370 149 -370 368v160c0 219 150 368 370 368z" />
    <glyph glyph-name="g" unicode="g" horiz-adv-x="670" 
d="M305 638c128 0 160 -91 175 -128v110h140v-710c0 -153 -107 -250 -280 -250s-280 97 -280 250h160c0 -83 31 -140 120 -140c88 0 120 57 120 140v180c-17 -47 -52 -108 -155 -108c-163 0 -265 117 -265 280v96c0 163 102 280 265 280zM330 528c-77 0 -130 -57 -130 -170
v-96c0 -113 53 -170 130 -170s130 67 130 170v96c0 103 -51 170 -130 170z" />
    <glyph glyph-name="l" unicode="l" horiz-adv-x="280" 
d="M50 960h160v-960h-160v960z" />
    <glyph glyph-name="n" unicode="n" 
d="M40 620h140v-130c16 36 50 142 180 142c115 0 220 -71 220 -232v-400h-160v362c0 123 -22 160 -80 160c-93 0 -140 -88 -140 -192v-330h-160v620z" />
    <glyph glyph-name="m" unicode="m" horiz-adv-x="930" 
d="M335 632c91 0 134 -70 155 -142c15 55 71 142 175 142c109 0 205 -61 205 -222v-410h-160v360c0 136 -29 162 -80 162c-72 0 -90 -82 -90 -182v-340h-160v360c0 123 -39 162 -90 162c-81 0 -90 -99 -90 -182v-340h-160v620h130v-140c6 30 45 152 165 152z" />
    <glyph glyph-name="q" unicode="q" horiz-adv-x="670" 
d="M305 -18c-163 0 -265 107 -265 280v96c0 173 102 280 265 280c108 0 160 -101 175 -138v120h140v-960h-140v440c-16 -47 -82 -118 -175 -118zM330 92c77 0 130 77 130 180v76c0 103 -53 180 -130 180c-87 0 -130 -57 -130 -170v-96c0 -113 43 -170 130 -170z" />
    <glyph glyph-name="a" unicode="a" 
d="M315 638c153 0 255 -97 255 -218v-260c0 -81 60 -160 60 -160h-160s-35 58 -35 100c0 0 -53 -118 -195 -118c-184 0 -210 111 -210 203c0 124 127 195 260 195h120v40c0 58 -33 108 -95 108c-63 0 -95 -50 -95 -108h-170c0 110 112 218 265 218zM290 280
c-71 0 -100 -44 -100 -95c0 -49 41 -93 90 -93c64 0 130 49 130 166v22h-120z" />
    <glyph glyph-name="h" unicode="h" 
d="M40 959h140v-469c16 36 50 142 180 142c115 0 220 -71 220 -232v-400h-160v362c0 123 -22 160 -80 160c-93 0 -140 -88 -140 -192v-330h-160v959z" />
    <glyph glyph-name="e" unicode="e" horiz-adv-x="650" 
d="M320 638c173 0 280 -140 280 -298v-70h-410v-8c0 -113 53 -170 130 -170c63 0 92 39 120 108h160c-30 -119 -133 -218 -280 -218c-173 0 -290 117 -290 280v96c0 148 117 280 290 280zM320 528c-87 0 -121 -65 -130 -148h265c-10 78 -48 148 -135 148z" />
    <glyph glyph-name="c" unicode="c" horiz-adv-x="620" 
d="M315 638c137 0 255 -99 270 -218h-165c-8 69 -51 108 -105 108c-87 0 -125 -67 -125 -170v-96c0 -103 37 -170 125 -170c60 0 92 34 105 108h170c-19 -129 -138 -218 -275 -218c-163 0 -285 117 -285 280v96c0 163 122 280 285 280z" />
    <glyph glyph-name="w" unicode="w" horiz-adv-x="790" 
d="M0 620h160l70 -440l90 440h140l90 -440l70 440h160l-150 -620h-150l-90 420l-90 -420h-150z" />
    <glyph glyph-name="v" unicode="v" horiz-adv-x="630" 
d="M0 620h165l145 -500l145 500h165l-235 -620h-150z" />
    <glyph glyph-name="z" unicode="z" horiz-adv-x="560" 
d="M30 620h480v-120l-340 -380h360v-120h-520v120l340 380h-320v120z" />
    <glyph glyph-name="y" unicode="y" horiz-adv-x="630" 
d="M0 620h170l145 -450l145 450h170l-350 -960h-180l150 340z" />
    <glyph glyph-name="r" unicode="r" horiz-adv-x="410" 
d="M390 502c-138 0 -200 -120 -200 -242v-260h-160v620h160v-150c14 55 87 162 200 162v-130z" />
    <glyph glyph-name="numbersign" unicode="#" horiz-adv-x="930" 
d="M398 960h155l-113 -340h120l113 340h155l-113 -340h155v-110h-184l-49 -130h233v-110h-262l-136 -410h-155l136 410h-120l-136 -410h-155l136 410h-138v110h167l49 130h-216v110h245zM411 510l-49 -130h120l49 130h-120z" />
    <glyph glyph-name="asterisk" unicode="*" horiz-adv-x="460" 
d="M156 875h104v-142l135 44l30 -99l-133 -44l83 -114l-83 -61l-84 115l-84 -115l-83 61l83 114l-134 44l31 99l135 -44v142z" />
    <glyph glyph-name="s" unicode="s" horiz-adv-x="620" 
d="M290 638c153 0 260 -98 260 -218h-160c0 68 -24 113 -100 113c-68 0 -90 -50 -90 -88c0 -42 7 -65 100 -75c103 -11 270 -52 270 -190c0 -137 -128 -198 -270 -198s-270 74 -270 218h170c0 -64 38 -108 100 -108s100 32 100 88c0 58 -46 84 -120 95
c-88 13 -240 39 -240 170c0 94 97 193 250 193z" />
    <glyph glyph-name="f" unicode="f" horiz-adv-x="440" 
d="M440 972v-130c-97 0 -160 -47 -160 -150v-72h150v-100h-150v-520h-160v520h-90v100h90v72c0 178 157 280 320 280z" />
    <glyph glyph-name="t" unicode="t" horiz-adv-x="380" 
d="M265 860v-240h115v-100h-115v-520h-150v520h-115v100h115v240h150z" />
    <glyph glyph-name="k" unicode="k" horiz-adv-x="570" 
d="M50 960h160v-600l180 260h180l-197 -255l217 -365h-170l-129 270l-81 -120v-150h-160v960z" />
    <glyph glyph-name="hyphen" unicode="-" 
d="M40 380h540v-110h-540v110z" />
    <glyph glyph-name="bar" unicode="|" horiz-adv-x="280" 
d="M50 960h160v-1300h-160v1300z" />
    <glyph glyph-name="slash" unicode="/" horiz-adv-x="425" 
d="M330 960h165l-420 -1300h-165z" />
    <glyph glyph-name="colon" unicode=":" horiz-adv-x="320" 
d="M260 510c0 -56 -44 -100 -100 -100s-100 44 -100 100s44 100 100 100s100 -44 100 -100zM260 100c0 -56 -44 -100 -100 -100s-100 44 -100 100s44 100 100 100s100 -44 100 -100z" />
    <glyph glyph-name="backslash" unicode="\" horiz-adv-x="425" 
d="M75 960l420 -1300h-165l-420 1300h165z" />
    <glyph glyph-name="seven" unicode="7" horiz-adv-x="660" 
d="M190 0v180c0 300 240 560 240 560h-390v120h560v-120s-230 -254 -230 -560v-180h-180z" />
    <glyph glyph-name="exclam" unicode="!" horiz-adv-x="300" 
d="M50 960h180v-570l-45 -120h-90l-45 120v570zM240 100c0 -56 -44 -100 -100 -100s-100 44 -100 100s44 100 100 100s100 -44 100 -100z" />
    <glyph glyph-name="quotedbl" unicode="&#x22;" horiz-adv-x="420" 
d="M260 960h140v-160l-20 -120h-100l-20 120v160zM20 960h140v-160l-20 -120h-100l-20 120v160z" />
    <glyph glyph-name="dollar" unicode="$" 
d="M440 220c0 85 -63 129 -130 150c-132 41 -260 134 -260 262c0 131 108 215 219 230v178h90v-178c142 -22 229 -144 231 -262h-170c-1 90 -35 148 -100 148s-110 -42 -110 -116c0 -73 71 -130 140 -152c131 -41 250 -133 250 -260c-1 -140 -130 -217 -245 -230v-170h-90
v170c-148 17 -245 124 -245 260h160c0 -102 66 -146 130 -146s130 48 130 116z" />
    <glyph glyph-name="percent" unicode="%" horiz-adv-x="980" 
d="M240 860c110 0 200 -90 200 -200s-90 -200 -200 -200s-200 90 -200 200s90 200 200 200zM650 860h150l-490 -860h-150zM240 755c-52 0 -95 -43 -95 -95s43 -95 95 -95s95 43 95 95s-43 95 -95 95zM720 400c110 0 200 -90 200 -200s-90 -200 -200 -200s-200 90 -200 200
s90 200 200 200zM720 295c-52 0 -95 -43 -95 -95s43 -95 95 -95s95 43 95 95s-43 95 -95 95z" />
    <glyph glyph-name="ampersand" unicode="&#x26;" horiz-adv-x="804" 
d="M348 878c111 0 219 -77 219 -181c0 -116 -97 -175 -181 -232l169 -214c34 57 49 97 49 159h160c0 -97 -59 -199 -117 -268l117 -142h-181l-44 54c-68 -48 -125 -72 -202 -72c-212 0 -297 102 -297 242c0 110 98 206 174 256c-52 60 -100 119 -100 192
c0 134 123 206 234 206zM350 773c-49 0 -86 -32 -86 -100c0 -47 16 -76 46 -113c64 43 107 82 107 137c0 49 -27 76 -67 76zM281 376c-54 -43 -81 -82 -81 -152c0 -64 56 -122 137 -122c76 0 124 53 124 53z" />
    <glyph glyph-name="quotesingle" unicode="'" horiz-adv-x="240" 
d="M40 960h140v-160l-20 -120h-100l-20 120v160z" />
    <glyph glyph-name="parenleft" unicode="(" horiz-adv-x="490" 
d="M450 1050v-70c-247 -121 -250 -296 -250 -540v-170c0 -244 3 -419 250 -540v-70c-303 40 -410 307 -410 610v170c0 303 107 570 410 610z" />
    <glyph glyph-name="parenright" unicode=")" horiz-adv-x="490" 
d="M40 1050c303 -40 410 -307 410 -610v-170c0 -303 -107 -570 -410 -610v70c247 121 250 296 250 540v170c0 244 -3 419 -250 540v70z" />
    <glyph glyph-name="plus" unicode="+" 
d="M230 575h160v-195h190v-110h-190v-195h-160v195h-190v110h190v195z" />
    <glyph glyph-name="comma" unicode="," horiz-adv-x="300" 
d="M160 200c56 0 100 -44 100 -100c0 -108 -72 -196 -140 -250h-90c33 29 86 99 104 153c-43 12 -74 50 -74 97c0 56 44 100 100 100z" />
    <glyph glyph-name="zero" unicode="0" 
d="M310 878c157 0 280 -125 280 -280v-336c0 -155 -123 -280 -280 -280s-280 125 -280 280v336c0 155 123 280 280 280zM310 758c-97 0 -110 -81 -110 -180v-296c0 -99 13 -180 110 -180s110 81 110 180v296c0 99 -13 180 -110 180z" />
    <glyph glyph-name="one" unicode="1" 
d="M320 860h190v-860h-175v663c-57 -81 -127 -93 -235 -93v110c116 0 220 86 220 180z" />
    <glyph glyph-name="two" unicode="2" 
d="M310 878c157 0 275 -115 275 -270c0 -112 -81 -210 -122 -256l-203 -232h340v-120h-560v120l220 244c44 49 155 159 155 244c0 99 -37 150 -105 150s-110 -61 -110 -160h-170c0 155 123 280 280 280z" />
    <glyph glyph-name="three" unicode="3" 
d="M310 878c148 0 280 -106 280 -250c0 -102 -74 -174 -135 -198c61 -25 145 -95 145 -198c0 -144 -124 -250 -290 -250s-290 106 -290 250h170c0 -91 47 -140 120 -140s120 49 120 140c0 79 -44 143 -120 143h-130v110h130c78 0 110 45 110 143c0 91 -42 140 -110 140
s-110 -49 -110 -140h-170c0 144 132 250 280 250z" />
    <glyph glyph-name="four" unicode="4" 
d="M520 300h110v-110h-110v-190h-160v190h-350v70l340 600h170v-560zM155 300h205v380z" />
    <glyph glyph-name="five" unicode="5" 
d="M95 860h455v-110h-325l-37 -277c19 34 59 69 142 69c157 0 260 -125 260 -280s-123 -280 -280 -280c-177 0 -280 114 -290 248h170c17 -95 62 -128 120 -128c72 0 110 61 110 160s-35 160 -110 160c-60 0 -81 -29 -100 -72l-175 30z" />
    <glyph glyph-name="six" unicode="6" 
d="M310 -18c-157 0 -280 125 -280 280v336c0 155 123 280 280 280s280 -125 280 -280h-170c0 99 -33 160 -110 160c-76 0 -110 -61 -110 -160v-123c31 40 62 67 130 67c157 0 260 -125 260 -280s-123 -280 -280 -280zM310 102c79 0 110 61 110 160s-33 160 -110 160
c-78 0 -110 -61 -110 -160s34 -160 110 -160z" />
    <glyph glyph-name="eight" unicode="8" 
d="M310 878c148 0 280 -104 280 -248c0 -83 -69 -160 -130 -185c61 -25 150 -82 150 -213c0 -144 -123 -250 -300 -250s-300 106 -300 250c0 119 89 188 150 213c-61 25 -130 102 -130 185c0 144 132 248 280 248zM310 768c-62 0 -115 -43 -115 -138c0 -85 40 -137 115 -137
c74 0 115 47 115 137s-53 138 -115 138zM310 387c-80 0 -130 -66 -130 -155c0 -91 50 -135 130 -135c81 0 130 44 130 135s-50 155 -130 155z" />
    <glyph glyph-name="nine" unicode="9" 
d="M310 878c157 0 280 -125 280 -280v-336c0 -155 -123 -280 -280 -280s-280 125 -280 280h170c0 -99 33 -160 110 -160c76 0 110 61 110 160v123c-31 -40 -62 -67 -130 -67c-157 0 -260 125 -260 280s123 280 280 280zM310 758c-79 0 -110 -61 -110 -160s33 -160 110 -160
c78 0 110 61 110 160s-34 160 -110 160z" />
    <glyph glyph-name="semicolon" unicode=";" horiz-adv-x="320" 
d="M270 510c0 -56 -44 -100 -100 -100s-100 44 -100 100s44 100 100 100s100 -44 100 -100zM170 200c56 0 100 -44 100 -100c0 -108 -72 -196 -140 -250h-90c33 29 86 99 104 153c-43 12 -74 50 -74 97c0 56 44 100 100 100z" />
    <glyph glyph-name="less" unicode="&#x3c;" horiz-adv-x="560" 
d="M20 285v80l500 245v-140l-310 -145l310 -145v-140z" />
    <glyph glyph-name="equal" unicode="=" 
d="M40 500h540v-110h-540v110zM40 260h540v-110h-540v110z" />
    <glyph glyph-name="greater" unicode="&#x3e;" horiz-adv-x="560" 
d="M520 285l-500 -245v140l310 145l-310 145v140l500 -245v-80z" />
    <glyph glyph-name="question" unicode="?" horiz-adv-x="630" 
d="M310 878c178 0 280 -133 280 -248c0 -188 -220 -203 -220 -360h-110c0 230 160 208 160 360c0 66 -31 138 -110 138s-120 -59 -120 -188h-170c0 176 112 298 290 298zM420 100c0 -56 -44 -100 -100 -100s-100 44 -100 100s44 100 100 100s100 -44 100 -100z" />
    <glyph glyph-name="at" unicode="@" horiz-adv-x="1240" 
d="M610 960c355 0 580 -247 580 -550v-170c0 -132 -79 -258 -225 -258c-102 0 -176 65 -195 128c-15 -37 -87 -128 -215 -128c-163 0 -275 117 -275 280v96c0 163 112 280 275 280c103 0 188 -61 205 -108v90h140v-440c0 -70 17 -98 65 -98s75 86 75 158v170
c0 244 -182 420 -430 420s-430 -176 -430 -420v-200c0 -244 195 -420 430 -420h250v-130h-250c-359 0 -580 247 -580 550v200c0 303 225 550 580 550zM590 548c-97 0 -130 -77 -130 -190v-96c0 -113 33 -190 130 -190s130 87 130 190v96c0 103 -33 190 -130 190z" />
    <glyph glyph-name="bracketleft" unicode="[" horiz-adv-x="440" 
d="M40 1050h340v-100h-180v-1190h180v-100h-340v1390z" />
    <glyph glyph-name="bracketright" unicode="]" horiz-adv-x="440" 
d="M380 1050v-1390h-340v100h180v1190h-180v100h340z" />
    <glyph glyph-name="asciicircum" unicode="^" horiz-adv-x="540" 
d="M200 860h120l200 -460h-140l-120 290l-120 -290h-140z" />
    <glyph glyph-name="underscore" unicode="_" horiz-adv-x="860" 
d="M10 0h830v-110h-830v110z" />
    <glyph glyph-name="grave" unicode="`" horiz-adv-x="240" 
d="M-20 960h140l120 -180h-120z" />
    <glyph glyph-name="braceleft" unicode="{" horiz-adv-x="500" 
d="M300 1050h160v-100h-120c-36 0 -60 -38 -60 -70v-380c0 -117 -120 -145 -120 -145s120 -28 120 -145v-380c0 -32 24 -70 60 -70h120v-100h-160c-98 0 -180 64 -180 150v400c0 67 -81 115 -120 135v20c39 20 120 68 120 135v400c0 86 82 150 180 150z" />
    <glyph glyph-name="braceright" unicode="}" horiz-adv-x="500" 
d="M180 1050c98 0 180 -64 180 -150v-400c0 -67 81 -115 120 -135v-20c-39 -20 -120 -68 -120 -135v-400c0 -86 -82 -150 -180 -150h-160v100h120c36 0 60 38 60 70v380c0 117 120 145 120 145s-120 28 -120 145v380c0 32 -24 70 -60 70h-120v100h160z" />
    <glyph glyph-name="asciitilde" unicode="~" 
d="M60 360c41 47 83 70 143 70c106 0 150 -80 225 -80c55 0 94 39 132 80v-122c-46 -44 -90 -68 -143 -68c-96 0 -127 80 -224 80c-60 0 -93 -42 -133 -80v120z" />
    <glyph glyph-name="quotedblleft" unicode="&#x201c;" horiz-adv-x="500" 
d="M350 650c-56 0 -100 44 -100 100c0 108 72 196 140 250h90c-33 -29 -86 -99 -104 -153c43 -12 74 -50 74 -97c0 -56 -44 -100 -100 -100zM110 650c-56 0 -100 44 -100 100c0 108 72 196 140 250h90c-33 -29 -86 -99 -104 -153c43 -12 74 -50 74 -97
c0 -56 -44 -100 -100 -100z" />
    <glyph glyph-name="quotedblright" unicode="&#x201d;" horiz-adv-x="500" 
d="M380 1000c56 0 100 -44 100 -100c0 -108 -72 -196 -140 -250h-90c33 29 86 99 104 153c-43 12 -74 50 -74 97c0 56 44 100 100 100zM140 1000c56 0 100 -44 100 -100c0 -108 -72 -196 -140 -250h-90c33 29 86 99 104 153c-43 12 -74 50 -74 97c0 56 44 100 100 100z" />
    <glyph glyph-name="quoteleft" unicode="&#x2018;" horiz-adv-x="300" 
d="M130 650c-56 0 -100 44 -100 100c0 108 72 196 140 250h90c-33 -29 -86 -99 -104 -153c43 -12 74 -50 74 -97c0 -56 -44 -100 -100 -100z" />
    <glyph glyph-name="quoteright" unicode="&#x2019;" horiz-adv-x="300" 
d="M160 1000c56 0 100 -44 100 -100c0 -108 -72 -196 -140 -250h-90c33 29 86 99 104 153c-43 12 -74 50 -74 97c0 56 44 100 100 100z" />
    <glyph glyph-name="afii57929" unicode="&#x2bc;" horiz-adv-x="300" 
d="M160 1000c56 0 100 -44 100 -100c0 -108 -72 -196 -140 -250h-90c33 29 86 99 104 153c-43 12 -74 50 -74 97c0 56 44 100 100 100z" />
    <glyph glyph-name="Euro" unicode="&#x20ac;" 
d="M580 878v-110c-128 0 -243 -89 -270 -218h230v-80h-235v-80h235v-80h-230c27 -129 142 -218 270 -218v-110c-203 0 -422 135 -447 328h-93v80h90v80h-90v80h93c25 193 244 328 447 328z" />
    <glyph glyph-name="yen" unicode="&#xa5;" 
d="M0 860h180l140 -320l140 320h180l-224 -420h184v-80h-190v-100h190v-80h-190v-180h-180v180h-190v80h190v100h-190v80h184z" />
    <glyph glyph-name="sterling" unicode="&#xa3;" 
d="M285 370c0 -101 -13 -191 -60 -260h395v-110h-600v110c94 64 92 173 95 260h-95v80h90v170c1 159 94 258 240 258s239 -111 239 -228h-169c0 63 -10 118 -70 118s-69 -77 -70 -148v-170h230v-80h-225z" />
    <glyph glyph-name="cent" unicode="&#xa2;" 
d="M280 800h90v-166c115 -19 202 -108 215 -214h-165c-8 69 -41 108 -95 108c-87 0 -115 -67 -115 -170v-96c0 -103 27 -170 115 -170c60 0 82 34 95 108h170c-17 -115 -105 -197 -220 -215v-165h-90v165c-138 20 -230 129 -230 277v96c0 148 92 257 230 277v165z" />
    <glyph glyph-name="copyright" unicode="&#xa9;" horiz-adv-x="980" 
d="M480 878c266 0 440 -211 440 -448s-174 -448 -440 -448s-440 211 -440 448s174 448 440 448zM480 788c-201 0 -340 -170 -340 -358s139 -358 340 -358s340 170 340 358s-139 358 -340 358zM490 685c105 0 193 -78 205 -170h-125c-6 53 -38 85 -80 85
c-67 0 -97 -51 -97 -130v-75c0 -79 29 -130 97 -130c46 0 70 28 80 85h130c-15 -99 -105 -170 -210 -170c-125 0 -220 90 -220 215v75c0 125 95 215 220 215z" />
    <glyph glyph-name="registered" unicode="&#xae;" horiz-adv-x="980" 
d="M480 878c266 0 440 -211 440 -448s-174 -448 -440 -448s-440 211 -440 448s174 448 440 448zM480 788c-201 0 -340 -170 -340 -358s139 -358 340 -358s340 170 340 358s-139 358 -340 358zM310 685h155c112 0 195 -38 195 -140c0 -49 -32 -93 -75 -115
c44 -12 75 -47 75 -130c0 -96 35 -110 35 -110h-108s-29 7 -29 110c0 73 -25 100 -98 100h-50v-210h-100v495zM410 615v-145h65c50 0 85 28 85 75s-28 70 -100 70h-50z" />
    <glyph glyph-name="guillemotleft" unicode="&#xab;" horiz-adv-x="560" 
d="M370 320l160 -230h-110l-180 225v10l180 225h110zM170 320l160 -230h-110l-180 225v10l180 225h110z" />
    <glyph glyph-name="guillemotright" unicode="&#xbb;" horiz-adv-x="560" 
d="M390 320l-160 230h110l180 -225v-10l-180 -225h-110zM190 320l-160 230h110l180 -225v-10l-180 -225h-110z" />
    <glyph glyph-name="acute" unicode="&#xb4;" horiz-adv-x="240" 
d="M240 960l-140 -180h-120l120 180h140z" />
    <glyph glyph-name="exclamdown" unicode="&#xa1;" horiz-adv-x="300" 
d="M50 -342v570l45 120h90l45 -120v-570h-180zM240 518c0 -56 -44 -100 -100 -100s-100 44 -100 100s44 100 100 100s100 -44 100 -100z" />
    <glyph glyph-name="brokenbar" unicode="&#xa6;" horiz-adv-x="280" 
d="M50 -340v570h160v-570h-160zM210 390h-160v570h160v-570z" />
    <glyph glyph-name="section" unicode="&#xa7;" horiz-adv-x="780" 
d="M370 878c209 0 330 -128 330 -278h-175c0 104 -47 168 -155 168c-107 0 -145 -83 -145 -138c0 -71 31 -106 165 -120c159 -17 340 -72 340 -260c0 -70 -22 -126 -60 -167c37 -38 60 -88 60 -155c0 -187 -156 -268 -350 -268s-350 105 -350 288h175
c0 -111 82 -168 175 -168c101 0 175 46 175 148c0 87 -45 116 -205 140c-129 19 -300 71 -300 240c0 56 26 116 77 163c-46 36 -77 87 -77 159c0 115 111 248 320 248zM266 407c-29 -29 -41 -68 -41 -99c0 -71 31 -106 165 -120c46 -5 94 -13 139 -27c16 23 26 52 26 89
c0 87 -45 116 -205 140c-27 4 -56 9 -84 17z" />
    <glyph glyph-name="uni00A0" unicode="&#xa0;" horiz-adv-x="300" 
 />
    <glyph glyph-name="endash" unicode="&#x2013;" 
d="M40 380h540v-110h-540v110z" />
    <glyph glyph-name="guilsinglleft" unicode="&#x2039;" horiz-adv-x="360" 
d="M170 320l160 -230h-110l-180 225v10l180 225h110z" />
    <glyph glyph-name="guilsinglright" unicode="&#x203a;" horiz-adv-x="360" 
d="M190 320l-160 230h110l180 -225v-10l-180 -225h-110z" />
    <glyph glyph-name="ellipsis" unicode="&#x2026;" horiz-adv-x="740" 
d="M710 100c0 -56 -44 -100 -100 -100s-100 44 -100 100s44 100 100 100s100 -44 100 -100zM460 100c0 -56 -44 -100 -100 -100s-100 44 -100 100s44 100 100 100s100 -44 100 -100zM210 100c0 -56 -44 -100 -100 -100s-100 44 -100 100s44 100 100 100s100 -44 100 -100z
" />
    <glyph glyph-name="trademark" unicode="&#x2122;" horiz-adv-x="700" 
d="M50 860h230v-50h-80v-270h-70v270h-80v50zM310 860h100l65 -240l65 240h100v-320h-70v240l-70 -240h-50l-70 240v-240h-70v320z" />
    <glyph glyph-name="emdash" unicode="&#x2014;" horiz-adv-x="930" 
d="M40 380h830v-110h-830v110z" />
    <glyph glyph-name="afii00208" unicode="&#x2015;" horiz-adv-x="930" 
d="M40 380h830v-110h-830v110z" />
    </font>
</defs>
</svg>
