<svg xmlns="http://www.w3.org/2000/svg">
<defs>
<font id="Boon-Italic" horiz-adv-x="592" >
  <font-face 
    font-family="Boon"
    font-weight="400"
    font-style="italic"
    font-stretch="normal"
    units-per-em="1200"
    panose-1="2 0 5 3 0 0 0 0 0 0"
    ascent="860"
    descent="-340"
    x-height="620"
    cap-height="860"
    bbox="-427.332 -340 1184.66 1210"
    underline-thickness="20"
    underline-position="-60"
    slope="-12"
    stemh="90"
    stemv="106"
    unicode-range="U+0020-F73B"
  />
    <missing-glyph />
    <glyph glyph-name="uni0E04" unicode="&#xe04;" horiz-adv-x="582" 
d="M417 612c124 0 205 -83 172 -240l-79 -372h-88l79 372c22 104 -29 155 -102 155s-152 -56 -173 -155c-9 -42 -14 -98 -15 -132c19 44 42 103 72 137c25 30 60 50 95 50c51 0 83 -45 71 -100s-63 -100 -114 -100c-24 0 -44 10 -57 26c-40 -82 -62 -174 -79 -253h-107
c13 38 21 69 27 96c25 117 -3 151 24 276c28 133 150 240 274 240zM366 372c-23 0 -46 -20 -51 -45s9 -45 32 -45s46 20 51 45s-9 45 -32 45z" />
    <glyph glyph-name="space" unicode=" " horiz-adv-x="273" 
 />
    <glyph glyph-name="uni0E05" unicode="&#xe05;" horiz-adv-x="582" 
d="M506 615c81 -27 111 -109 87 -223l-83 -392h-88l83 392c12 58 1 107 -23 131l-98 -65l-70 65c-40 -24 -70 -72 -83 -131c-10 -49 -19 -113 -20 -152c18 43 44 104 72 137c25 30 60 50 95 50c51 0 83 -45 71 -100s-63 -100 -114 -100c-24 0 -44 10 -57 26
c-40 -82 -62 -174 -79 -253h-107c13 38 21 69 27 96c26 120 -1 161 28 296c21 100 91 189 191 220l64 -69zM366 372c-23 0 -46 -20 -51 -45s9 -45 32 -45s46 20 51 45s-9 45 -32 45z" />
    <glyph glyph-name="uni0E14" unicode="&#xe14;" horiz-adv-x="582" 
d="M417 612c124 0 205 -83 172 -240l-79 -372h-88l79 372c22 104 -29 155 -102 155s-152 -56 -173 -155c-20 -94 -7 -163 -9 -234c36 28 74 57 103 90c-42 8 -68 49 -57 99c12 55 64 100 115 100s83 -45 71 -100c-33 -155 -238 -239 -257 -327h-100c13 38 21 69 27 96
c25 117 -3 151 24 276c28 133 150 240 274 240zM366 372c-23 0 -46 -20 -51 -45s9 -45 32 -45s46 20 51 45s-9 45 -32 45z" />
    <glyph glyph-name="uni0E15" unicode="&#xe15;" horiz-adv-x="582" 
d="M506 615c81 -27 111 -109 87 -223l-83 -392h-88l83 392c12 58 1 107 -23 131l-98 -65l-70 65c-40 -24 -70 -72 -83 -131c-23 -107 -12 -182 -14 -254c36 28 74 57 103 90c-42 8 -68 49 -57 99c12 55 64 100 115 100s83 -45 71 -100c-33 -155 -238 -239 -257 -327h-100
c13 38 21 69 27 96c26 120 -1 161 28 296c21 100 91 189 191 220l64 -69zM366 372c-23 0 -46 -20 -51 -45s9 -45 32 -45s46 20 51 45s-9 45 -32 45z" />
    <glyph glyph-name="uni0E01" unicode="&#xe01;" horiz-adv-x="564" 
d="M399 612c124 0 205 -83 172 -240l-79 -372h-93l79 372c22 104 -24 155 -97 155c-54 0 -111 -34 -140 -87l88 -25s-69 -63 -82 -125l-62 -290h-93l57 270c18 84 72 120 72 120l-88 20c45 90 144 202 266 202z" />
    <glyph glyph-name="uni0E16" unicode="&#xe16;" horiz-adv-x="564" 
d="M230 214h10c57 0 92 -49 79 -110s-69 -110 -126 -110s-92 49 -79 110l35 166c18 84 72 120 72 120l-88 20c45 90 144 202 266 202c124 0 205 -83 172 -240l-79 -372h-93l79 372c22 104 -24 155 -97 155c-54 0 -111 -34 -140 -87l88 -25s-69 -63 -82 -125zM225 144
c-20 0 -41 -18 -46 -40s9 -40 29 -40s41 18 46 40s-9 40 -29 40z" />
    <glyph glyph-name="uni0E28" unicode="&#xe28;" horiz-adv-x="584" 
d="M617 680h93c-18 -86 -72 -140 -124 -173c13 -36 14 -81 3 -135l-79 -372h-88l79 372c22 104 -29 155 -102 155s-152 -56 -173 -155c-9 -42 -14 -98 -15 -132c19 44 42 103 72 137c25 30 60 50 95 50c51 0 83 -45 71 -100s-63 -100 -114 -100c-24 0 -44 10 -57 26
c-40 -82 -62 -174 -79 -253h-107c13 38 21 69 27 96c25 117 -3 151 24 276c28 133 150 240 274 240c53 0 99 -15 131 -45c34 29 59 66 69 113zM366 372c-23 0 -46 -20 -51 -45s9 -45 32 -45s46 20 51 45s-9 45 -32 45z" />
    <glyph glyph-name="uni0E20" unicode="&#xe20;" 
d="M427 612c124 0 205 -83 172 -240l-79 -372h-93l79 372c22 104 -24 155 -97 155c-54 0 -111 -34 -140 -87l107 -25s-59 -63 -73 -125l-40 -186c-13 -61 -69 -110 -126 -110s-91 49 -78 110s68 110 125 110h9l12 56c18 84 63 120 63 120l-107 20c45 90 144 202 266 202z
M169 144c-20 0 -40 -18 -45 -40s8 -40 28 -40s41 18 46 40s-9 40 -29 40z" />
    <glyph glyph-name="uni0E48" unicode="&#xe48;" horiz-adv-x="1" 
d="M73 1180h75l-49 -230l-66 40z" />
    <glyph glyph-name="uni0E34" unicode="&#xe34;" horiz-adv-x="8" 
d="M-98 910c126 0 173 -102 174 -250c-143 81 -201 100 -388 100c42 84 109 150 214 150zM-113 840c-31 0 -67 -20 -85 -50c67 0 143 -20 206 -57c-20 88 -83 107 -121 107z" />
    <glyph glyph-name="uni0E38" unicode="&#xe38;" horiz-adv-x="3" 
d="M-177 -70c46 0 76 -40 65 -90l-39 -180h-74l19 91c-3 -1 -6 -1 -9 -1c-46 0 -76 40 -65 90s57 90 103 90zM-189 -125c-18 0 -36 -16 -40 -35s8 -35 26 -35s36 16 40 35s-8 35 -26 35z" />
    <glyph glyph-name="uni0E35" unicode="&#xe35;" horiz-adv-x="8" 
d="M30 920l77 -30l-53 -250c-143 81 -201 100 -388 100c42 84 104 150 204 150s131 -70 155 -145c-10 47 -15 82 -4 135zM-136 820c-31 0 -67 -20 -85 -50c67 0 156 -28 219 -65c-33 93 -87 115 -134 115z" />
    <glyph glyph-name="uni0E48.low" unicode="&#xf705;" horiz-adv-x="1" 
d="M16 930h83l-51 -240h-83z" />
    <glyph glyph-name="uni0E49.low" unicode="&#xf706;" horiz-adv-x="0" 
d="M-84 940c41 0 66 -36 57 -80c-12 -57 -67 -105 -67 -105c77 0 144 51 166 155h79c-28 -130 -108 -210 -257 -210h-78c-35 0 -35 45 -35 45l46 6c17 2 31 11 40 31c-32 7 -51 39 -43 78c9 44 51 80 92 80zM-95 890c-16 0 -30 -13 -34 -30s5 -30 21 -30s30 13 34 30
s-5 30 -21 30z" />
    <glyph glyph-name="uni0E4A.low" unicode="&#xf707;" horiz-adv-x="0" 
d="M-129 935c29 0 41 -12 49 -34l33 34h28c32 -14 46 -67 35 -120c-8 -37 -21 -55 -21 -55c28 20 54 47 80 170h69c-22 -96 -53 -227 -213 -227l-8 37c16 0 24 36 32 75c9 40 9 66 -3 75l-33 -30h-28c2 9 -10 30 -28 30c-14 0 -43 -19 -53 -45c9 3 18 5 27 5
c38 0 63 -34 54 -75s-48 -75 -86 -75s-76 25 -58 112c14 66 73 123 124 123zM-172 805c-16 0 -31 -13 -35 -30s6 -30 22 -30s30 13 34 30s-5 30 -21 30z" />
    <glyph glyph-name="uni0E4B.low" unicode="&#xf708;" horiz-adv-x="5" 
d="M22 930h84l-20 -90h80l-13 -60h-79l-19 -90h-84l19 90h-79l13 60h79z" />
    <glyph glyph-name="uni0E4C.low" unicode="&#xf709;" horiz-adv-x="4" 
d="M64 970h83c-21 -56 -58 -108 -127 -143c11 -15 15 -35 10 -57c-9 -44 -50 -80 -91 -80s-72 31 -62 80c25 116 156 88 187 200zM-36 805c-18 0 -36 -16 -40 -35s7 -35 25 -35s36 16 40 35s-7 35 -25 35z" />
    <glyph glyph-name="uni0E10.descless" unicode="&#xf700;" horiz-adv-x="536" 
d="M389 612c71 0 105 -37 125 -68c24 27 67 56 96 56l-18 -85c-29 0 -73 -29 -96 -56c-40 56 -73 78 -123 78c-69 0 -121 -46 -128 -78c159 -18 273 -32 251 -134l-57 -265c-13 -62 -125 -66 -125 -66l10 46c11 50 3 117 -26 159c-21 -35 -59 -59 -97 -59
c-51 0 -84 45 -72 100s63 100 114 100c66 0 112 -74 128 -165l31 145c14 65 -186 67 -263 75c28 134 138 217 250 217zM230 280c-20 0 -40 -18 -45 -40s8 -40 28 -40s41 18 46 40s-9 40 -29 40z" />
    <glyph glyph-name="uni0E0D.descless" unicode="&#xf70f;" horiz-adv-x="787" 
d="M478 372c22 104 -24 155 -97 155c-54 0 -111 -34 -140 -87l88 -25s-69 -63 -82 -125l-17 -76h10c57 0 92 -49 79 -110s-69 -110 -126 -110s-92 49 -79 110l35 166c18 84 72 120 72 120l-88 20c45 90 144 202 266 202c124 0 205 -83 172 -240l-49 -232
c-6 -28 -9 -67 51 -67s73 39 79 67l96 450h93l-98 -460c-8 -38 -36 -142 -189 -142s-135 104 -127 142zM225 144c-20 0 -41 -18 -46 -40s9 -40 29 -40s41 18 46 40s-9 40 -29 40z" />
    <glyph glyph-name="uni0E36" unicode="&#xe36;" horiz-adv-x="9" 
d="M65 910c46 0 75 -40 64 -90c-9 -43 -45 -80 -85 -88c7 -28 10 -59 10 -92c-143 81 -201 100 -388 100c42 84 108 150 208 150c49 0 72 -13 102 -36c19 33 54 56 89 56zM54 860c-20 0 -41 -18 -46 -40s9 -40 29 -40s41 18 46 40s-9 40 -29 40zM-136 820
c-31 0 -67 -20 -85 -50c67 0 152 -23 215 -60c-33 93 -92 110 -130 110z" />
    <glyph glyph-name="uni0E37" unicode="&#xe37;" horiz-adv-x="8" 
d="M-78 960l68 -30l-18 -82c28 -27 39 -62 53 -103c-10 47 -6 82 5 135l9 40l68 -30l-53 -250c-143 81 -201 100 -388 100c42 84 104 150 204 150c34 0 41 -13 49 -18c-4 8 -9 33 -7 43zM-136 820c-31 0 -67 -20 -85 -50c67 0 156 -28 219 -65c-33 93 -87 115 -134 115z" />
    <glyph glyph-name="uni0E2D" unicode="&#xe2d;" horiz-adv-x="564" 
d="M408 612c142 0 193 -99 169 -210l-46 -214c-34 -162 -123 -200 -247 -200s-196 38 -162 200l24 112c13 61 69 110 126 110s92 -49 79 -110s-69 -110 -126 -110h-9l-7 -30c-16 -78 42 -87 93 -87s113 9 131 87l51 242c14 68 -15 125 -94 125s-127 -52 -136 -93h-98
c17 81 110 178 252 178zM258 345c-23 0 -46 -20 -51 -45s9 -45 32 -45s46 20 51 45s-9 45 -32 45z" />
    <glyph glyph-name="uni0E4D" unicode="&#xe4d;" horiz-adv-x="5" 
d="M30 920c64 0 104 -56 89 -125s-78 -125 -142 -125s-105 56 -90 125s79 125 143 125zM16 855c-31 0 -62 -27 -69 -60s12 -60 43 -60s62 27 69 60s-12 60 -43 60z" />
    <glyph glyph-name="uni0E33" unicode="&#xe33;" horiz-adv-x="500" 
d="M307 0l85 402c14 68 -1 125 -71 125s-104 -52 -113 -93h-98c17 81 96 178 229 178s170 -99 146 -210l-85 -402h-93zM30 920c64 0 104 -56 89 -125s-78 -125 -142 -125s-105 56 -90 125s79 125 143 125zM16 855c-31 0 -62 -27 -69 -60s12 -60 43 -60s62 27 69 60
s-12 60 -43 60z" />
    <glyph glyph-name="uni0E32" unicode="&#xe32;" horiz-adv-x="463" 
d="M307 0l85 402c14 68 -1 125 -71 125s-104 -52 -113 -93h-98c17 81 96 178 229 178s170 -99 146 -210l-85 -402h-93z" />
    <glyph glyph-name="uni0E25" unicode="&#xe25;" horiz-adv-x="564" 
d="M408 612c142 0 193 -99 169 -210l-73 -342c-14 -64 -107 -66 -107 -66l40 186c11 50 -9 150 -103 150c-66 0 -128 -53 -146 -140c-4 -21 -6 -41 1 -60c11 32 52 74 100 74c54 0 87 -47 75 -105s-66 -105 -120 -105c-106 1 -175 74 -149 196c26 124 127 215 246 215
c84 0 120 -58 126 -85l17 82c14 68 -15 125 -94 125s-127 -52 -136 -93h-98c17 81 110 178 252 178zM275 139c-20 0 -41 -18 -46 -40s9 -40 29 -40s40 18 45 40s-8 40 -28 40z" />
    <glyph glyph-name="uni0E40" unicode="&#xe40;" horiz-adv-x="286" 
d="M198 590h93l-84 -396c51 0 84 -45 72 -100s-63 -100 -114 -100s-84 45 -72 100zM193 129c-18 0 -36 -16 -40 -35s7 -35 25 -35s36 16 40 35s-7 35 -25 35z" />
    <glyph glyph-name="uni0E41" unicode="&#xe41;" horiz-adv-x="540" 
d="M428 590h93l-84 -396c51 0 84 -45 72 -100s-63 -100 -114 -100s-84 45 -72 100zM423 129c-18 0 -36 -16 -40 -35s7 -35 25 -35s36 16 40 35s-7 35 -25 35zM198 590h93l-84 -396c51 0 84 -45 72 -100s-63 -100 -114 -100s-84 45 -72 100zM193 129c-18 0 -36 -16 -40 -35
s7 -35 25 -35s36 16 40 35s-7 35 -25 35z" />
    <glyph glyph-name="uni0E2A" unicode="&#xe2a;" horiz-adv-x="565" 
d="M599 680h93c-17 -82 -68 -136 -118 -169c11 -33 11 -70 3 -109l-73 -342c-14 -64 -107 -66 -107 -66l40 186c11 50 -9 150 -103 150c-66 0 -128 -53 -146 -140c-4 -21 -6 -41 1 -60c11 32 52 74 100 74c54 0 87 -47 75 -105s-66 -105 -120 -105c-106 1 -175 74 -149 196
c26 124 127 215 246 215c84 0 120 -58 126 -85l17 82c14 68 -15 125 -94 125s-127 -52 -136 -93h-98c17 81 110 178 252 178c56 0 98 -15 126 -41c32 29 56 65 65 109zM275 139c-20 0 -41 -18 -46 -40s9 -40 29 -40s40 18 45 40s-8 40 -28 40z" />
    <glyph glyph-name="uni0E2E" unicode="&#xe2e;" horiz-adv-x="565" 
d="M599 680h93c-17 -82 -68 -136 -118 -169c11 -33 11 -70 3 -109l-46 -214c-34 -162 -123 -200 -247 -200s-196 38 -162 200l24 112c13 61 69 110 126 110s92 -49 79 -110s-69 -110 -126 -110h-9l-7 -30c-16 -78 42 -87 93 -87s113 9 131 87l51 242c14 68 -15 125 -94 125
s-127 -52 -136 -93h-98c17 81 110 178 252 178c56 0 98 -15 126 -41c32 29 56 65 65 109zM258 345c-23 0 -46 -20 -51 -45s9 -45 32 -45s46 20 51 45s-9 45 -32 45z" />
    <glyph glyph-name="uni0E1D" unicode="&#xe1d;" horiz-adv-x="638" 
d="M295 606c57 0 92 -49 79 -110s-69 -110 -126 -110h-9l-9 -42l-35 -164c-12 -58 -7 -71 17 -95l162 305h47l51 -305c16 16 27 37 39 95l145 680h93l-145 -680c-31 -144 -65 -186 -193 -186l-43 256l-134 -256c-124 0 -163 42 -132 186l41 194l26 122c13 61 69 110 126 110
zM281 541c-23 0 -46 -20 -51 -45s9 -45 32 -45s46 20 51 45s-9 45 -32 45z" />
    <glyph glyph-name="uni0E1A" unicode="&#xe1a;" horiz-adv-x="620" 
d="M258 606c57 0 92 -49 79 -110l-71 -336c-16 -78 42 -87 93 -87s112 9 130 87l92 430h93l-86 -402c-34 -162 -123 -200 -247 -200s-196 38 -162 200l42 198h-9c-57 0 -92 49 -79 110s68 110 125 110zM245 541c-23 0 -47 -20 -52 -45s9 -45 32 -45s47 20 52 45
s-9 45 -32 45z" />
    <glyph glyph-name="uni0E1B" unicode="&#xe1b;" horiz-adv-x="620" 
d="M258 606c57 0 92 -49 79 -110l-71 -336c-16 -78 42 -87 93 -87s112 9 130 87l149 700h93l-143 -672c-34 -162 -123 -200 -247 -200s-196 38 -162 200l42 198h-9c-57 0 -92 49 -79 110s68 110 125 110zM245 541c-23 0 -47 -20 -52 -45s9 -45 32 -45s47 20 52 45
s-9 45 -32 45z" />
    <glyph glyph-name="uni0E49" unicode="&#xe49;" horiz-adv-x="7" 
d="M23 1210c41 0 66 -36 57 -80c-12 -57 -67 -105 -67 -105c77 0 144 51 166 155h79c-28 -130 -108 -210 -257 -210h-78c-35 0 -35 45 -35 45l46 6c17 2 31 11 40 31c-32 7 -51 39 -43 78c9 44 51 80 92 80zM12 1160c-16 0 -30 -13 -34 -30s5 -30 21 -30s30 13 34 30
s-5 30 -21 30z" />
    <glyph glyph-name="uni0E1C" unicode="&#xe1c;" horiz-adv-x="638" 
d="M295 606c57 0 92 -49 79 -110s-69 -110 -126 -110h-9l-9 -42l-35 -164c-12 -58 -7 -71 17 -95l162 305h47l51 -305c16 16 27 37 39 95l87 410h93l-87 -410c-31 -144 -65 -186 -193 -186l-43 256l-134 -256c-124 0 -163 42 -132 186l41 194l26 122c13 61 69 110 126 110z
M281 541c-23 0 -46 -20 -51 -45s9 -45 32 -45s46 20 51 45s-9 45 -32 45z" />
    <glyph glyph-name="uni0E1E" unicode="&#xe1e;" horiz-adv-x="639" 
d="M258 606c57 0 92 -49 79 -110l-79 -375l178 379h46l17 -380l100 470h93l-106 -499c-18 -85 -79 -97 -137 -97l-15 386l-180 -386c-58 0 -114 14 -96 97l63 295h-9c-57 0 -92 49 -79 110s68 110 125 110zM245 541c-23 0 -47 -20 -52 -45s9 -45 32 -45s47 20 52 45
s-9 45 -32 45z" />
    <glyph glyph-name="uni0E1F" unicode="&#xe1f;" horiz-adv-x="639" 
d="M258 606c57 0 92 -49 79 -110l-79 -375l178 379h46l17 -380l157 740h93l-163 -769c-18 -85 -79 -97 -137 -97l-15 386l-180 -386c-58 0 -114 14 -96 97l63 295h-9c-57 0 -92 49 -79 110s68 110 125 110zM245 541c-23 0 -47 -20 -52 -45s9 -45 32 -45s47 20 52 45
s-9 45 -32 45z" />
    <glyph glyph-name="uni0E30" unicode="&#xe30;" horiz-adv-x="540" 
d="M296 590c46 0 76 -40 65 -90c-7 -31 -33 -62 -59 -78c5 -10 34 -12 54 -12c84 0 138 105 150 160h84c-21 -99 -108 -230 -249 -230c-57 0 -175 35 -148 160c11 50 57 90 103 90zM285 535c-18 0 -36 -16 -40 -35s7 -35 25 -35s36 16 40 35s-7 35 -25 35zM230 280
c46 0 76 -40 65 -90c-7 -31 -33 -62 -59 -78c5 -10 34 -12 54 -12c84 0 138 105 150 160h84c-21 -99 -108 -230 -249 -230c-57 0 -175 35 -148 160c11 50 57 90 103 90zM219 225c-18 0 -36 -16 -40 -35s7 -35 25 -35s36 16 40 35s-7 35 -25 35z" />
    <glyph glyph-name="uni0E43" unicode="&#xe43;" horiz-adv-x="316" 
d="M372 1052c100 0 135 -85 117 -172c-30 -140 -120 -154 -143 -260l-91 -426c51 0 84 -45 72 -100s-63 -100 -114 -100s-84 45 -72 100l112 526c25 117 148 149 172 260c11 54 -4 112 -65 112c-20 0 -44 -9 -55 -17c52 0 84 -43 73 -95c-12 -55 -64 -100 -115 -100
s-88 45 -75 105c24 115 103 167 184 167zM294 925c-23 0 -46 -20 -51 -45s9 -45 32 -45s47 20 52 45s-10 45 -33 45zM241 129c-18 0 -36 -16 -40 -35s7 -35 25 -35s36 16 40 35s-7 35 -25 35z" />
    <glyph glyph-name="uni0E44" unicode="&#xe44;" horiz-adv-x="316" 
d="M196 1052c67 0 109 -102 109 -102l124 102c44 0 65 -43 55 -90c-28 -134 -105 -189 -142 -362l-86 -406c51 0 83 -45 71 -100s-63 -100 -114 -100s-84 45 -72 100l108 506c45 180 156 272 178 377l-152 -122s-41 117 -96 117zM242 129c-18 0 -36 -16 -40 -35
s7 -35 25 -35s36 16 40 35s-7 35 -25 35z" />
    <glyph glyph-name="uni0E29" unicode="&#xe29;" horiz-adv-x="650" 
d="M258 606c57 0 92 -49 79 -110l-71 -336c-16 -78 42 -87 93 -87s112 9 130 87l6 30c-61 0 -186 43 -159 170c9 44 51 80 92 80s66 -36 57 -80c-7 -35 -39 -66 -74 -72c18 -33 75 -38 97 -38l73 340h93l-67 -313c35 24 57 52 68 103h75c-16 -75 -68 -138 -159 -179l-3 -13
c-34 -162 -123 -200 -247 -200s-196 38 -162 200l42 198h-9c-57 0 -92 49 -79 110s68 110 125 110zM245 541c-23 0 -47 -20 -52 -45s9 -45 32 -45s47 20 52 45s-9 45 -32 45zM418 395c-18 0 -36 -16 -40 -35s7 -35 25 -35s36 16 40 35s-7 35 -25 35z" />
    <glyph glyph-name="uni0E42" unicode="&#xe42;" horiz-adv-x="317" 
d="M364 1052c46 0 86 -28 101 -47c20 19 65 37 94 47l-17 -80c-36 -10 -76 -32 -95 -52c-23 36 -54 67 -97 67c-40 0 -81 -25 -94 -47c81 -28 135 -110 99 -280l-99 -466c51 0 83 -45 71 -100s-63 -100 -114 -100s-84 45 -72 100l121 566c34 159 4 235 -99 235
c17 82 113 157 201 157zM242 129c-18 0 -36 -16 -40 -35s7 -35 25 -35s36 16 40 35s-7 35 -25 35z" />
    <glyph glyph-name="uni0E21" unicode="&#xe21;" horiz-adv-x="583" 
d="M286 606c57 0 92 -49 79 -110l-62 -291c62 -36 99 -75 132 -120l108 505h93l-109 -510c-13 -63 -63 -86 -120 -86c-33 48 -74 94 -114 121c0 -2 -1 -4 -1 -6c-14 -64 -72 -115 -132 -115s-96 51 -82 115s71 115 131 115h5l34 162h-9c-57 0 -92 49 -79 110s69 110 126 110
zM272 541c-23 0 -47 -20 -52 -45s10 -45 33 -45s46 20 51 45s-9 45 -32 45zM194 154c-23 0 -46 -20 -51 -45s9 -45 32 -45s47 20 52 45s-10 45 -33 45z" />
    <glyph glyph-name="uni0E06" unicode="&#xe06;" horiz-adv-x="583" 
d="M267 606c56 0 56 -63 56 -63l48 63h26c49 -17 81 -80 64 -162c-27 -129 -128 -181 -145 -247c55 -34 89 -70 120 -112l107 505h93l-108 -510c-13 -63 -64 -86 -121 -86c-33 48 -73 94 -113 121l-2 -6c-14 -64 -71 -115 -131 -115s-97 51 -83 115s72 115 132 115
c8 0 16 -3 22 -4c36 81 141 137 159 224c12 56 6 82 -10 112l-53 -72h-39c-2 23 1 67 -36 67c-35 0 -65 -59 -74 -102c15 17 37 34 63 34c46 0 75 -40 64 -90s-58 -95 -104 -95c-66 0 -98 59 -79 150c11 49 62 158 144 158zM231 433c-20 0 -41 -18 -46 -40s9 -40 29 -40
s41 18 46 40s-9 40 -29 40zM195 154c-23 0 -47 -20 -52 -45s10 -45 33 -45s46 20 51 45s-9 45 -32 45z" />
    <glyph glyph-name="uni0E31" unicode="&#xe31;" horiz-adv-x="8" 
d="M-92 930c46 0 76 -40 65 -90c-7 -31 -33 -62 -59 -78c5 -10 34 -12 54 -12c84 0 138 105 150 160h84c-21 -99 -108 -230 -249 -230c-57 0 -175 35 -148 160c11 50 57 90 103 90zM-103 875c-18 0 -36 -16 -40 -35s7 -35 25 -35s36 16 40 35s-7 35 -25 35z" />
    <glyph glyph-name="uni0E4C" unicode="&#xe4c;" horiz-adv-x="5" 
d="M154 1180h84c-21 -56 -77 -114 -132 -123c11 -15 15 -35 10 -57c-9 -44 -51 -80 -92 -80s-72 31 -62 80c25 119 160 79 192 180zM49 1035c-18 0 -36 -16 -40 -35s7 -35 25 -35s36 16 40 35s-7 35 -25 35z" />
    <glyph glyph-name="uni0E39" unicode="&#xe39;" horiz-adv-x="6" 
d="M-322 -70c46 0 75 -40 64 -90l-17 -80c-4 -17 -3 -35 30 -35s41 19 44 35l34 160h75l-38 -180c-5 -25 -23 -80 -129 -80s-100 56 -95 80l3 11c-3 -1 -7 -1 -10 -1c-46 0 -75 40 -64 90s57 90 103 90zM-334 -125c-18 0 -36 -16 -40 -35s7 -35 25 -35s36 16 40 35
s-7 35 -25 35z" />
    <glyph glyph-name="uni0E03" unicode="&#xe03;" horiz-adv-x="569" 
d="M267 606c56 0 56 -63 56 -63l48 63h26c49 -17 81 -80 64 -162c-28 -131 -132 -182 -146 -250l-11 -54c-6 -28 -1 -67 50 -67s74 39 80 67l95 450h93l-95 -450c-8 -38 -44 -152 -191 -152s-133 114 -125 152l11 54c21 97 148 153 169 250c12 56 6 82 -10 112l-53 -72h-39
c-2 23 1 67 -36 67c-35 0 -65 -59 -74 -102c15 17 37 34 63 34c46 0 75 -40 64 -90s-58 -95 -104 -95c-66 0 -98 59 -79 150c11 49 62 158 144 158zM231 433c-20 0 -41 -18 -46 -40s9 -40 29 -40s41 18 46 40s-9 40 -29 40z" />
    <glyph glyph-name="uni0E22" unicode="&#xe22;" horiz-adv-x="555" 
d="M318 606c57 0 92 -49 79 -110s-69 -110 -126 -110c-7 0 -18 3 -18 3c15 -30 78 -32 128 -32l-16 -75c-82 0 -154 -29 -172 -112c-11 -53 12 -97 100 -97c80 0 120 37 120 37l102 480h93l-115 -540s-89 -62 -218 -62c-136 0 -199 67 -175 182c12 55 45 115 121 155
c-47 31 -61 84 -46 156c13 61 70 125 143 125zM304 541c-23 0 -46 -20 -51 -45s9 -45 32 -45s47 20 52 45s-10 45 -33 45z" />
    <glyph glyph-name="uni0E46" unicode="&#xe46;" horiz-adv-x="609" 
d="M304 606c47 0 78 -33 81 -61l54 61h51c49 -17 96 -74 74 -176l-104 -490c-33 -153 -158 -280 -310 -280l19 90c90 0 176 87 198 190l104 490c16 74 -3 111 -21 121l-63 -70h-44c4 19 -4 65 -49 65c-47 0 -77 -48 -90 -109c8 12 35 29 61 29c46 0 76 -40 65 -90
s-57 -90 -103 -90c-66 0 -99 59 -80 150c17 82 79 170 157 170zM255 416c-20 0 -41 -18 -46 -40s9 -40 29 -40s40 18 45 40s-8 40 -28 40z" />
    <glyph glyph-name="uni0E47" unicode="&#xe47;" horiz-adv-x="8" 
d="M66 1006h74c-15 -72 -93 -140 -160 -140h-121c-45 0 -72 -31 -80 -70c-7 -35 5 -55 20 -67l50 67h44c-9 -41 5 -80 46 -80c4 0 7 0 11 1c-15 13 -22 34 -17 59c8 39 44 70 80 70s58 -31 50 -70c-12 -57 -65 -116 -136 -116c-42 0 -68 28 -80 61l-40 -55
c-67 0 -108 58 -93 130s82 130 158 130h102c40 0 84 41 92 80zM5 806c-16 0 -31 -13 -35 -30s6 -30 22 -30s30 13 34 30s-5 30 -21 30z" />
    <glyph glyph-name="uni0E0B" unicode="&#xe0b;" horiz-adv-x="570" 
d="M604 680h93c-26 -123 -127 -183 -187 -205c0 0 75 -59 63 -115l-46 -220c-8 -38 -44 -152 -191 -152s-133 114 -125 152l11 54c21 97 148 153 169 250c12 56 6 82 -10 112l-53 -72h-39c-2 23 1 67 -36 67c-35 0 -65 -59 -74 -102c15 17 37 34 63 34c46 0 75 -40 64 -90
s-58 -95 -104 -95c-66 0 -98 59 -79 150c11 49 62 158 144 158c56 0 56 -63 56 -63l48 63h26c33 -11 58 -42 66 -86c68 34 125 84 141 160zM231 433c-20 0 -41 -18 -46 -40s9 -40 29 -40s41 18 46 40s-9 40 -29 40zM455 420c-35 -114 -126 -162 -140 -226l-11 -54
c-6 -28 -1 -67 50 -67s74 39 80 67l46 220c4 18 -8 41 -25 60z" />
    <glyph glyph-name="uni0E02" unicode="&#xe02;" horiz-adv-x="555" 
d="M318 606c91 0 136 -80 119 -162c-28 -131 -116 -156 -136 -250l-12 -54c-6 -28 0 -67 51 -67s73 39 79 67l96 450h93l-96 -450c-8 -38 -43 -152 -190 -152s-134 114 -126 152l12 54c26 124 138 153 159 250c13 59 -15 107 -69 107c-34 0 -63 -19 -79 -40c0 0 19 12 39 12
c47 0 83 -32 69 -97c-12 -55 -64 -100 -115 -100s-86 52 -73 115c21 99 103 165 179 165zM243 471c-22 0 -46 -21 -51 -45s10 -45 32 -45s47 21 52 45s-11 45 -33 45z" />
    <glyph glyph-name="uni0E0A" unicode="&#xe0a;" horiz-adv-x="556" 
d="M590 680h93c-26 -123 -128 -183 -188 -205c0 0 76 -59 64 -115l-47 -220c-8 -38 -43 -152 -190 -152s-134 114 -126 152l12 54c26 124 138 153 159 250c13 59 -15 107 -69 107c-34 0 -63 -19 -79 -40c0 0 19 12 39 12c47 0 83 -32 69 -97c-12 -55 -64 -100 -115 -100
s-86 52 -73 115c21 99 103 165 179 165c64 0 106 -40 118 -92c74 34 137 86 154 166zM243 471c-22 0 -46 -21 -51 -45s10 -45 32 -45s47 21 52 45s-11 45 -33 45zM432 427c-31 -116 -112 -143 -131 -233l-12 -54c-6 -28 0 -67 51 -67s73 39 79 67l47 220c4 20 -12 48 -34 67
z" />
    <glyph glyph-name="uni0E19" unicode="&#xe19;" horiz-adv-x="584" 
d="M268 606c57 0 91 -49 78 -110l-84 -396c54 54 144 109 204 125l77 365h93l-79 -374l-16 -9c26 -20 39 -57 30 -98c-14 -64 -71 -115 -131 -115c-55 0 -92 44 -85 102c-36 -27 -90 -74 -115 -102c-57 0 -86 33 -73 96l63 296h-9c-57 0 -92 49 -79 110s69 110 126 110z
M254 541c-23 0 -47 -20 -52 -45s10 -45 33 -45s46 20 51 45s-9 45 -32 45zM474 154c-23 0 -47 -20 -52 -45s10 -45 33 -45s46 20 51 45s-9 45 -32 45z" />
    <glyph glyph-name="uni0E23" unicode="&#xe23;" horiz-adv-x="509" 
d="M380 612c71 0 105 -37 125 -68c24 27 67 56 96 56l-18 -85c-29 0 -73 -29 -96 -56c-40 56 -73 78 -123 78c-69 0 -121 -46 -128 -78c159 -18 263 -32 241 -134l-47 -221c-13 -61 -68 -110 -125 -110s-92 49 -79 110s68 110 125 110h10l22 106c14 65 -177 67 -254 75
c28 134 139 217 251 217zM337 144c-20 0 -41 -18 -46 -40s9 -40 29 -40s40 18 45 40s-8 40 -28 40z" />
    <glyph glyph-name="uni0E07" unicode="&#xe07;" horiz-adv-x="519" 
d="M473 606c57 0 92 -49 79 -110l-81 -382c-15 -69 -71 -126 -157 -126l-219 460h112l166 -354l62 292h-9c-57 0 -92 49 -79 110s69 110 126 110zM459 541c-23 0 -46 -20 -51 -45s9 -45 32 -45s46 20 51 45s-9 45 -32 45z" />
    <glyph glyph-name="uni0E0E" unicode="&#xe0e;" 
d="M427 612c124 0 205 -83 172 -240l-134 -632c-16 -73 -120 -80 -120 -80s-55 45 -102 85c-27 -47 -66 -85 -121 -85c-57 0 -92 49 -79 110s69 110 126 110c62 0 72 -48 72 -48s23 36 30 68h65c-7 -34 -37 -83 -53 -98c44 -37 86 -77 86 -77l137 647
c22 104 -24 155 -97 155c-54 0 -111 -34 -140 -87l107 -25s-59 -63 -73 -125l-40 -186c-13 -61 -64 -110 -121 -110s-96 49 -83 110s68 110 125 110h9l12 56c18 84 63 120 63 120l-107 20c45 90 144 202 266 202zM169 144c-20 0 -40 -18 -45 -40s8 -40 28 -40s41 18 46 40
s-9 40 -29 40zM156 -180c-26 0 -51 -22 -57 -50s10 -50 36 -50s51 22 57 50s-10 50 -36 50z" />
    <glyph glyph-name="uni0E2B" unicode="&#xe2b;" horiz-adv-x="593" 
d="M576 612c57 0 92 -49 79 -110c-9 -42 -39 -79 -76 -98l25 -9l-84 -395h-93l81 380s-198 -101 -234 -270l-24 -110h-102l82 386h-9c-57 0 -92 49 -79 110s69 110 126 110s91 -49 78 -110l-42 -201c44 55 110 96 157 132c-12 20 -17 46 -11 75c13 61 69 110 126 110z
M562 547c-23 0 -47 -20 -52 -45s10 -45 33 -45s46 20 51 45s-9 45 -32 45zM254 541c-23 0 -47 -20 -52 -45s10 -45 33 -45s46 20 51 45s-9 45 -32 45z" />
    <glyph glyph-name="uni0E3A" unicode="&#xe3a;" horiz-adv-x="3" 
d="M-92 -150c-10 -45 -50 -80 -92 -80s-67 35 -57 80s49 80 91 80s68 -35 58 -80z" />
    <glyph glyph-name="uni0E53" unicode="&#xe53;" horiz-adv-x="741" 
d="M602 606h46c98 -39 116 -155 85 -300l-65 -306h-102l65 306c21 99 35 172 -10 194l-131 -181h-80c15 71 8 181 -54 181c-48 0 -110 -84 -135 -200c-9 -44 -22 -126 -8 -145c21 50 70 99 128 99c67 0 108 -58 93 -130s-81 -130 -148 -130c-154 0 -206 125 -168 306
c35 166 147 300 259 300c114 0 111 -141 111 -141zM324 174c-26 0 -51 -22 -57 -50s10 -50 36 -50s51 22 57 50s-10 50 -36 50z" />
    <glyph glyph-name="uni0E24" unicode="&#xe24;" horiz-adv-x="564" 
d="M230 214h10c57 0 92 -49 79 -110s-69 -110 -126 -110s-92 49 -79 110l35 166c18 84 72 120 72 120l-88 20c45 90 144 202 266 202c124 0 205 -83 172 -240l-151 -712h-93l151 712c22 104 -24 155 -97 155c-54 0 -111 -34 -140 -87l88 -25s-69 -63 -82 -125zM225 144
c-20 0 -41 -18 -46 -40s9 -40 29 -40s41 18 46 40s-9 40 -29 40z" />
    <glyph glyph-name="uni0E26" unicode="&#xe26;" 
d="M427 612c124 0 205 -83 172 -240l-151 -712h-93l151 712c22 104 -24 155 -97 155c-54 0 -111 -34 -140 -87l107 -25s-59 -63 -73 -125l-40 -186c-13 -61 -69 -110 -126 -110s-91 49 -78 110s68 110 125 110h9l12 56c18 84 63 120 63 120l-107 20c45 90 144 202 266 202z
M169 144c-20 0 -40 -18 -45 -40s8 -40 28 -40s41 18 46 40s-9 40 -29 40z" />
    <glyph glyph-name="uni0E45" unicode="&#xe45;" horiz-adv-x="262" 
d="M34 -340l158 742c14 68 -1 125 -71 125s-104 -52 -113 -93h-98c17 81 96 178 229 178s170 -99 146 -210l-158 -742h-93z" />
    <glyph glyph-name="uni0E50" unicode="&#xe50;" horiz-adv-x="689" 
d="M475 612c160 0 261 -140 224 -312s-197 -312 -357 -312s-261 140 -224 312s197 312 357 312zM456 522c-104 0 -209 -99 -235 -222s36 -222 140 -222s209 99 235 222s-36 222 -140 222z" />
    <glyph glyph-name="uni0E27" unicode="&#xe27;" horiz-adv-x="509" 
d="M362 612c142 0 184 -99 160 -210l-63 -298c-13 -61 -69 -110 -126 -110s-92 49 -79 110s69 110 126 110h9l40 188c14 68 -6 125 -85 125s-118 -52 -127 -93h-97c17 81 100 178 242 178zM365 144c-20 0 -41 -18 -46 -40s9 -40 29 -40s41 18 46 40s-9 40 -29 40z" />
    <glyph glyph-name="uni0E17" unicode="&#xe17;" 
d="M277 606c57 0 92 -49 79 -110l-39 -181c62 96 120 180 218 281c76 0 111 -47 92 -136l-98 -460h-93l111 520c-73 -75 -239 -293 -264 -410l-24 -110h-102l82 386h-9c-57 0 -92 49 -79 110s69 110 126 110zM263 541c-23 0 -47 -20 -52 -45s10 -45 33 -45s46 20 51 45
s-9 45 -32 45z" />
    <glyph glyph-name="uni0E2C" unicode="&#xe2c;" horiz-adv-x="641" 
d="M608 630c49 0 81 -42 73 -94c45 22 86 54 86 54l-20 -90s-36 -25 -83 -40l-78 -369c-18 -85 -79 -97 -137 -97l-32 306l-163 -306c-58 0 -114 14 -96 97l63 295h-9c-57 0 -92 49 -79 110s68 110 125 110s92 -49 79 -110l-82 -386l160 290h46l36 -290l68 320
c-51 0 -84 45 -72 100s64 100 115 100zM595 570c-20 0 -41 -18 -46 -40s9 -40 29 -40s41 18 46 40s-9 40 -29 40zM245 541c-23 0 -47 -20 -52 -45s9 -45 32 -45s47 20 52 45s-9 45 -32 45z" />
    <glyph glyph-name="uni0E18" unicode="&#xe18;" horiz-adv-x="527" 
d="M380 612c71 0 105 -37 125 -68c24 27 67 56 96 56l-18 -85c-29 0 -73 -29 -96 -56c-40 56 -73 78 -123 78c-69 0 -120 -43 -127 -75c159 -18 310 -30 286 -142l-39 -180c-10 -48 -58 -152 -223 -152s-168 104 -158 152l38 180h93l-38 -180c-6 -28 11 -67 84 -67
s105 39 111 67l39 180c14 65 -224 67 -301 75c28 134 139 217 251 217z" />
    <glyph glyph-name="uni0E10" unicode="&#xe10;" horiz-adv-x="580" 
d="M401 -60c38 0 63 -34 54 -75l-27 -125c-16 -73 -105 -80 -105 -80l-59 85l-53 -79h-44l-31 47c-20 -31 -53 -53 -87 -53c-46 0 -76 40 -65 90s57 90 103 90c25 0 45 -12 57 -31c11 19 21 46 26 71h56c-10 -46 -38 -94 -58 -120l27 -45l55 85h40l63 -87l16 77
c-36 0 -63 35 -54 75c9 41 48 75 86 75zM393 -100c-18 0 -36 -16 -40 -35s7 -35 25 -35s36 16 40 35s-7 35 -25 35zM76 -210c-20 0 -40 -18 -45 -40s8 -40 28 -40s41 18 46 40s-9 40 -29 40zM389 612c71 0 105 -37 125 -68c24 27 67 56 96 56l-18 -85c-29 0 -73 -29 -96 -56
c-40 56 -73 78 -123 78c-69 0 -121 -46 -128 -78c159 -18 273 -32 251 -134l-57 -265c-13 -62 -125 -66 -125 -66l10 46c11 50 3 117 -26 159c-21 -35 -59 -59 -97 -59c-51 0 -84 45 -72 100s63 100 114 100c66 0 112 -74 128 -165l31 145c14 65 -186 67 -263 75
c28 134 138 217 250 217zM230 280c-20 0 -40 -18 -45 -40s8 -40 28 -40s41 18 46 40s-9 40 -29 40z" />
    <glyph glyph-name="uni0E2F" unicode="&#xe2f;" horiz-adv-x="481" 
d="M236 590c46 0 76 -40 65 -90c-8 -36 -41 -73 -67 -75c5 -10 32 -15 52 -15c78 0 141 72 160 160h74s-37 -177 -87 -410c-33 -153 -158 -280 -310 -280l19 90c90 0 176 87 198 190c31 145 17 80 48 225c-23 -20 -64 -45 -116 -45c-57 0 -165 35 -138 160
c11 50 56 90 102 90zM225 535c-18 0 -36 -16 -40 -35s7 -35 25 -35s36 16 40 35s-7 35 -25 35z" />
    <glyph glyph-name="uni0E5A" unicode="&#xe5a;" horiz-adv-x="602" 
d="M236 590c46 0 76 -40 65 -90c-8 -36 -41 -73 -67 -75c5 -10 32 -15 52 -15c78 0 150 72 169 160h65l-87 -410c-33 -153 -158 -280 -310 -280l17 80c90 0 197 97 219 200l48 225c-23 -20 -83 -45 -135 -45c-57 0 -165 35 -138 160c11 50 56 90 102 90zM576 570h75
l-102 -480c-23 -110 -109 -182 -171 -210l-17 73c42 24 97 64 113 137zM225 535c-18 0 -36 -16 -40 -35s7 -35 25 -35s36 16 40 35s-7 35 -25 35z" />
    <glyph glyph-name="uni0E13" unicode="&#xe13;" horiz-adv-x="788" 
d="M399 612c124 0 205 -83 172 -240c-19 -89 -37 -173 -56 -262c27 41 99 107 157 125l76 355h93l-80 -374l-16 -9c26 -20 39 -57 30 -98c-14 -64 -71 -115 -131 -115c-48 0 -82 34 -85 81c-19 -18 -46 -52 -68 -81c-57 0 -86 33 -73 96l60 282c22 104 -24 155 -97 155
c-54 0 -111 -34 -140 -87l88 -25s-69 -63 -82 -125l-17 -76h10c57 0 92 -49 79 -110s-69 -110 -126 -110s-92 49 -79 110l35 166c18 84 72 120 72 120l-88 20c45 90 144 202 266 202zM678 154c-23 0 -46 -20 -51 -45s9 -45 32 -45s46 20 51 45s-9 45 -32 45zM225 144
c-20 0 -41 -18 -46 -40s9 -40 29 -40s41 18 46 40s-9 40 -29 40z" />
    <glyph glyph-name="uni0E08" unicode="&#xe08;" horiz-adv-x="546" 
d="M389 612c142 0 194 -99 170 -210l-73 -342c-13 -62 -121 -66 -121 -66l9 42c14 67 10 152 -29 221c-16 -25 -50 -57 -94 -57c-54 0 -88 47 -76 105s66 105 120 105c78 0 119 -106 132 -190l39 182c14 68 -16 125 -95 125s-127 -52 -136 -93h-97c17 81 109 178 251 178z
M283 350c-23 0 -47 -20 -52 -45s10 -45 33 -45s46 20 51 45s-9 45 -32 45z" />
    <glyph glyph-name="uni0E0D" unicode="&#xe0d;" horiz-adv-x="850" 
d="M495 -70c46 0 76 -40 65 -90c-7 -31 -33 -62 -59 -78c5 -10 34 -12 54 -12c84 0 138 105 150 160h84c-21 -99 -108 -230 -249 -230c-57 0 -175 35 -148 160c11 50 57 90 103 90zM484 -125c-18 0 -36 -16 -40 -35s7 -35 25 -35s36 16 40 35s-7 35 -25 35zM478 372
c22 104 -24 155 -97 155c-54 0 -111 -34 -140 -87l88 -25s-69 -63 -82 -125l-17 -76h10c57 0 92 -49 79 -110s-69 -110 -126 -110s-92 49 -79 110l35 166c18 84 72 120 72 120l-88 20c45 90 144 202 266 202c124 0 205 -83 172 -240l-49 -232c-6 -28 -9 -67 51 -67
s73 39 79 67l96 450h93l-98 -460c-8 -38 -36 -142 -189 -142s-135 104 -127 142zM225 144c-20 0 -41 -18 -46 -40s9 -40 29 -40s41 18 46 40s-9 40 -29 40z" />
    <glyph glyph-name="uni0E0F" unicode="&#xe0f;" horiz-adv-x="593" 
d="M428 612c124 0 205 -83 172 -240l-134 -632c-16 -73 -129 -80 -129 -80l-43 125l-91 -119h-51l-27 52c-23 -34 -62 -58 -100 -58c-54 0 -87 47 -75 105s66 105 120 105c33 0 59 -18 71 -46c15 16 23 32 28 56h60c-10 -48 -33 -79 -62 -104l22 -46l108 140h29l47 -130
l134 632c22 104 -24 155 -97 155c-54 0 -111 -34 -140 -87l107 -25s-60 -63 -74 -125l-39 -186c-13 -61 -64 -110 -121 -110s-97 49 -84 110s69 110 126 110h9l12 56c18 84 63 120 63 120l-107 20c45 90 144 202 266 202zM170 144c-20 0 -41 -18 -46 -40s9 -40 29 -40
s41 18 46 40s-9 40 -29 40zM58 -185c-26 0 -51 -22 -57 -50s10 -50 36 -50s51 22 57 50s-10 50 -36 50z" />
    <glyph glyph-name="uni0E4B" unicode="&#xe4b;" horiz-adv-x="4" 
d="M70 1180h75l-17 -80h74l-10 -50h-75l-21 -100l-66 40l13 60h-75l11 50h74z" />
    <glyph glyph-name="uni0E0F.shorten" unicode="&#xf73a;" horiz-adv-x="593" 
d="M428 612c124 0 205 -83 172 -240l-113 -532c-16 -73 -129 -80 -129 -80l-43 125l-90 -119h-52l-27 52c-23 -34 -61 -58 -99 -58c-54 0 -88 47 -76 105s66 105 120 105c33 0 59 -18 71 -46c15 16 23 32 28 56h61c-10 -48 -34 -79 -63 -104l22 -46l108 140h29l47 -130
l113 532c22 104 -24 155 -97 155c-54 0 -111 -34 -140 -87l107 -25s-60 -63 -74 -125l-39 -186c-13 -61 -64 -110 -121 -110s-97 49 -84 110s69 110 126 110h9l12 56c18 84 63 120 63 120l-107 20c45 90 144 202 266 202zM170 144c-20 0 -41 -18 -46 -40s9 -40 29 -40
s41 18 46 40s-9 40 -29 40zM80 -85c-26 0 -52 -22 -58 -50s10 -50 36 -50s51 22 57 50s-9 50 -35 50z" />
    <glyph glyph-name="uni0E0E.shorten" unicode="&#xf73b;" 
d="M427 612c124 0 205 -83 172 -240l-113 -532c-16 -73 -119 -80 -119 -80s-56 45 -103 85c-27 -47 -66 -85 -121 -85c-57 0 -91 49 -78 110s68 110 125 110c62 0 72 -48 72 -48s23 36 30 68h65c-7 -34 -37 -83 -53 -98c44 -37 86 -77 86 -77l116 547
c22 104 -24 155 -97 155c-54 0 -111 -34 -140 -87l107 -25s-59 -63 -73 -125l-40 -186c-13 -61 -64 -110 -121 -110s-96 49 -83 110s68 110 125 110h9l12 56c18 84 63 120 63 120l-107 20c45 90 144 202 266 202zM169 144c-20 0 -40 -18 -45 -40s8 -40 28 -40s41 18 46 40
s-9 40 -29 40zM177 -80c-26 0 -51 -22 -57 -50s10 -50 36 -50s51 22 57 50s-10 50 -36 50z" />
    <glyph glyph-name="uni0E5B" unicode="&#xe5b;" horiz-adv-x="1241" 
d="M408 612c127 0 163 -108 137 -232c-30 -143 -100 -231 -198 -231c-100 0 -116 92 -101 163c11 50 59 98 105 98s76 -40 65 -90c-14 -68 -74 -85 -103 -85c5 -22 26 -27 46 -27c54 0 88 63 111 172c22 103 -1 162 -77 162c-90 0 -172 -111 -200 -242
c-30 -141 35 -242 134 -242c184 0 280 308 335 502h70v-350l136 290h46c0 -83 15 -190 71 -190h158l-14 -70h-158c-90 0 -103 130 -103 130l-129 -280l-61 -1l1 311c-39 -119 -135 -412 -367 -412c-185 0 -225 165 -194 312c35 166 160 312 290 312zM340 360
c-20 0 -40 -18 -45 -40s8 -40 28 -40s41 18 46 40s-9 40 -29 40z" />
    <glyph glyph-name="uni0E4E" unicode="&#xe4e;" horiz-adv-x="8" 
d="M2 1113c74 0 120 -65 103 -145h-65c9 41 -16 75 -53 75c-39 0 -77 -34 -86 -75c-4 -18 8 -32 8 -32l32 -40l-58 -55l-30 36s-15 21 -32 21c-37 0 -76 -34 -85 -75s16 -75 53 -75l-15 -70c-74 0 -120 65 -103 145s91 145 165 145c17 80 92 145 166 145z" />
    <glyph glyph-name="uni0E4F" unicode="&#xe4f;" horiz-adv-x="703" 
d="M479 600c154 0 251 -134 216 -300s-189 -300 -343 -300s-250 134 -215 300s188 300 342 300zM462 520c-113 0 -225 -98 -251 -220s45 -220 158 -220s225 98 251 220s-45 220 -158 220zM443 430c67 0 108 -58 93 -130s-81 -130 -148 -130s-108 58 -93 130s81 130 148 130z
M428 360c-31 0 -61 -27 -68 -60s12 -60 43 -60s61 27 68 60s-12 60 -43 60z" />
    <glyph glyph-name="uni0E51" unicode="&#xe51;" horiz-adv-x="689" 
d="M473 612c160 0 264 -131 226 -312c-41 -191 -152 -360 -367 -360l20 95c113 10 211 85 249 265c24 112 -21 222 -147 222s-212 -97 -235 -207c-19 -91 14 -145 76 -145c41 0 68 4 90 27c-52 0 -97 39 -83 103s71 113 129 113c69 0 97 -56 84 -118
c-25 -117 -112 -210 -238 -210c-141 0 -179 119 -155 230c37 172 191 297 351 297zM416 342c-21 0 -43 -19 -48 -42s9 -42 30 -42s43 19 48 42s-9 42 -30 42z" />
    <glyph glyph-name="uni0E52" unicode="&#xe52;" horiz-adv-x="816" 
d="M689 606h35c69 -13 136 -61 105 -206l-66 -310c-13 -59 -49 -90 -103 -90h-502c-56 0 -78 30 -65 90l109 510c18 86 -12 210 -12 210h103s31 -117 11 -210l-109 -510h465l60 280c21 99 22 133 -19 150l-77 -96h-70c9 41 4 97 -53 97c-51 0 -98 -65 -113 -136
c-12 -58 -9 -74 -5 -100c9 40 62 114 134 114c67 0 108 -58 93 -130s-86 -130 -153 -130c-161 0 -170 142 -148 246c25 116 127 221 210 221c98 0 97 -94 97 -94zM500 319c-26 0 -51 -22 -57 -50s10 -50 36 -50s51 22 57 50s-10 50 -36 50z" />
    <glyph glyph-name="uni0E54" unicode="&#xe54;" horiz-adv-x="771" 
d="M868 810h103c-45 -212 -190 -306 -344 -306h-186c-102 0 -197 -94 -222 -210c-13 -67 13 -204 106 -204h125c-32 31 -56 84 -39 164c18 83 92 150 167 150c67 0 108 -58 93 -130s-82 -130 -149 -130c-20 0 -35 11 -35 11c8 -52 88 -65 136 -65h92l-19 -90h-390
c-154 0 -224 128 -189 294s189 300 343 300h186c102 0 190 65 222 216zM562 329c-28 0 -57 -25 -63 -55s11 -55 39 -55s57 25 63 55s-11 55 -39 55z" />
    <glyph glyph-name="uni0E55" unicode="&#xe55;" horiz-adv-x="771" 
d="M868 810h103c-45 -212 -190 -306 -344 -306h-186c-102 0 -197 -94 -222 -210c-13 -67 13 -204 106 -204h125c-32 31 -56 84 -39 164c18 83 92 150 167 150c67 0 108 -58 93 -130s-82 -130 -149 -130c-20 0 -35 11 -35 11c8 -52 88 -65 136 -65h92l-19 -90h-390
c-154 0 -224 128 -189 294s189 300 343 300h78c-9 21 -12 48 -6 76c15 72 81 130 148 130s109 -58 94 -130c-3 -16 -9 -31 -17 -45c52 33 91 93 111 185zM663 720c-26 0 -51 -22 -57 -50s10 -50 36 -50s51 22 57 50s-10 50 -36 50zM562 329c-28 0 -57 -25 -63 -55
s11 -55 39 -55s57 25 63 55s-11 55 -39 55z" />
    <glyph glyph-name="uni0E56" unicode="&#xe56;" horiz-adv-x="714" 
d="M187 710l22 100c93 0 184 -75 189 -216h109c154 0 250 -134 215 -300s-151 -306 -330 -306s-226 141 -204 246c16 73 88 150 163 150c67 0 108 -58 93 -130s-82 -130 -149 -130c15 -34 71 -46 116 -46c122 0 188 117 209 216c25 116 -30 210 -132 210h-181
c4 70 -24 206 -120 206zM335 309c-28 0 -57 -25 -63 -55s11 -55 39 -55s57 25 63 55s-11 55 -39 55z" />
    <glyph glyph-name="uni0E57" unicode="&#xe57;" horiz-adv-x="917" 
d="M602 606h46c98 -39 116 -155 85 -300l-39 -186c53 33 94 93 114 186l60 284h103l-61 -284c-45 -212 -190 -306 -344 -306l19 90l46 216c21 99 35 172 -10 194l-131 -181h-80c15 71 8 181 -54 181c-48 0 -110 -84 -135 -200c-9 -44 -22 -126 -8 -145c21 50 70 99 128 99
c67 0 108 -58 93 -130s-81 -130 -148 -130c-154 0 -206 125 -168 306c35 166 147 300 259 300c114 0 111 -141 111 -141zM324 174c-26 0 -51 -22 -57 -50s10 -50 36 -50s51 22 57 50s-10 50 -36 50z" />
    <glyph glyph-name="uni0E58" unicode="&#xe58;" horiz-adv-x="798" 
d="M868 810h103c-45 -212 -190 -306 -344 -306h-186c-102 0 -197 -94 -222 -210c-21 -99 18 -163 63 -185l100 185h101c-21 -98 -2 -216 84 -216c48 0 85 25 116 77c0 0 -20 -11 -40 -11c-67 0 -108 58 -93 130s81 130 148 130c75 0 115 -77 99 -150
c-28 -133 -106 -266 -263 -266c-102 0 -140 82 -146 166l-84 -160c-154 0 -222 134 -187 300s189 300 343 300h186c102 0 190 65 222 216zM683 329c-28 0 -57 -25 -63 -55s11 -55 39 -55s57 25 63 55s-11 55 -39 55z" />
    <glyph glyph-name="uni0E59" unicode="&#xe59;" horiz-adv-x="789" 
d="M887 810h102c-39 -184 -131 -490 -355 -490c18 87 14 148 -13 180l-86 -100l68 -400h-102l-73 400s-11 100 -72 100c-48 0 -110 -84 -135 -200c-9 -44 -22 -126 -8 -145c21 50 70 99 128 99c67 0 108 -58 93 -130s-81 -130 -148 -130c-154 0 -206 125 -168 306
c35 166 147 300 259 300c114 0 137 -100 137 -100l88 106h46c49 -26 78 -71 79 -156c67 34 124 192 160 360zM324 174c-26 0 -51 -22 -57 -50s10 -50 36 -50s51 22 57 50s-10 50 -36 50z" />
    <glyph glyph-name="uni0E4A" unicode="&#xe4a;" horiz-adv-x="7" 
d="M8 1205c29 0 41 -12 49 -34l33 34h28c32 -14 46 -67 35 -120c-8 -37 -21 -55 -21 -55c28 20 54 47 80 170h69c-22 -96 -53 -227 -213 -227l-8 37c16 0 24 36 32 75c9 40 9 66 -3 75l-33 -30h-28c2 9 -10 30 -28 30c-14 0 -43 -19 -53 -45c9 3 18 5 27 5
c38 0 63 -34 54 -75s-48 -75 -86 -75s-76 25 -58 112c14 66 73 123 124 123zM-35 1075c-16 0 -31 -13 -35 -30s6 -30 22 -30s30 13 34 30s-5 30 -21 30z" />
    <glyph glyph-name="uni0E3F" unicode="&#xe3f;" horiz-adv-x="593" 
d="M446 1010h75l-33 -153c139 -3 180 -113 154 -237c-12 -56 -54 -128 -129 -170c98 -39 103 -130 86 -210c-36 -168 -160 -240 -265 -240h-28l-32 -150h-74l32 150h-186l182 860h186zM311 770l-59 -280h84l59 280h-84zM469 766l-59 -275c71 8 121 64 137 139
c15 70 -2 122 -78 136zM233 400l-64 -300h84l64 300h-84zM391 400l-64 -300c73 0 153 40 174 140c20 95 -21 156 -110 160z" />
    <glyph glyph-name="uni0E11" unicode="&#xe11;" horiz-adv-x="630" 
d="M267 606c56 0 56 -63 56 -63l48 63h26c46 -16 77 -72 66 -147l119 137c76 0 92 -47 73 -136l-98 -460h-93l107 500c-133 -152 -240 -271 -250 -320l-38 -180h-102s27 129 41 194c21 97 148 153 169 250c12 56 6 82 -10 112l-53 -72h-39c-2 23 1 67 -36 67
c-35 0 -65 -59 -74 -102c15 17 37 34 63 34c46 0 75 -40 64 -90s-58 -95 -104 -95c-66 0 -98 59 -79 150c11 49 62 158 144 158zM231 433c-20 0 -41 -18 -46 -40s9 -40 29 -40s41 18 46 40s-9 40 -29 40z" />
    <glyph glyph-name="uni0E12" unicode="&#xe12;" horiz-adv-x="787" 
d="M506 615c81 -27 112 -109 88 -223l-37 -172c41 -34 65 -76 85 -125l105 495h93l-108 -510c-13 -63 -54 -86 -111 -86c-10 40 -37 100 -58 121l-2 -6c-14 -64 -71 -115 -131 -115s-97 51 -83 115c13 62 69 112 127 115l36 168c12 58 -4 107 -28 131l-102 -65l-75 65
c-40 -24 -70 -72 -83 -131c-23 -107 -12 -182 -14 -254c36 28 73 57 102 90c-42 8 -67 49 -56 99c12 55 64 100 115 100s83 -45 71 -100c-33 -155 -238 -239 -257 -327h-101c13 38 21 69 27 96c26 120 0 161 29 296c21 100 91 189 191 220l69 -69zM357 372
c-23 0 -47 -20 -52 -45s10 -45 33 -45s46 20 51 45s-9 45 -32 45zM464 154c-23 0 -46 -20 -51 -45s9 -45 32 -45s46 20 51 45s-9 45 -32 45z" />
    <glyph glyph-name="uni0E0C" unicode="&#xe0c;" horiz-adv-x="787" 
d="M399 612c124 0 205 -83 172 -240l-32 -152c43 -24 85 -86 101 -135l108 505h93l-109 -510c-13 -63 -63 -86 -120 -86c-8 29 -29 89 -50 115c-14 -64 -72 -115 -132 -115s-96 51 -82 115c11 52 50 95 97 110l33 153c22 104 -24 155 -97 155c-54 0 -111 -34 -140 -87
l88 -25s-69 -63 -82 -125c-5 -25 -12 -51 -17 -76h10c57 0 92 -49 79 -110s-69 -110 -126 -110s-92 49 -79 110c12 55 23 111 35 166c18 84 72 120 72 120l-88 20c45 90 144 202 266 202zM464 154c-23 0 -46 -20 -51 -45s9 -45 32 -45s46 20 51 45s-9 45 -32 45zM225 144
c-20 0 -41 -18 -46 -40s9 -40 29 -40s41 18 46 40s-9 40 -29 40z" />
    <glyph glyph-name="uni0E09" unicode="&#xe09;" horiz-adv-x="583" 
d="M408 612c142 0 193 -99 169 -210l-40 -186l-15 -9c26 -20 39 -57 30 -98c-14 -64 -72 -115 -132 -115c-48 0 -82 34 -85 81c-21 -18 -60 -52 -87 -81c-57 0 -84 39 -71 102l20 94c-51 0 -84 45 -72 100s64 100 115 100s83 -45 71 -100l-41 -194c35 41 123 107 176 129
l38 177c14 68 -15 125 -94 125s-127 -52 -136 -93h-98c17 81 110 178 252 178zM228 335c-23 0 -47 -20 -52 -45s10 -45 33 -45s46 20 51 45s-9 45 -32 45zM454 154c-23 0 -46 -20 -51 -45s9 -45 32 -45s47 20 52 45s-10 45 -33 45z" />
    <glyph glyph-name="uni0E0A.alt" unicode="&#xe61;" horiz-adv-x="557" 
d="M691 630l-20 -95c-66 0 -131 -25 -186 -65c0 0 89 -40 74 -110l-47 -220c-8 -38 -43 -152 -190 -152s-134 114 -126 152l12 54c26 124 138 153 159 250c13 59 -15 107 -69 107c-34 0 -63 -19 -79 -40c0 0 19 12 39 12c47 0 83 -32 69 -97c-12 -55 -64 -100 -115 -100
s-86 52 -73 115c21 99 103 165 179 165c64 0 106 -40 119 -92c69 73 168 116 254 116zM243 471c-22 0 -46 -21 -51 -45s10 -45 32 -45s47 21 52 45s-11 45 -33 45zM434 431c-31 -120 -114 -146 -133 -237l-12 -54c-6 -28 -9 -67 51 -67s73 39 79 67l47 220
c5 23 -12 50 -32 71z" />
    <glyph glyph-name="uni0E0B.alt" unicode="&#xe62;" horiz-adv-x="571" 
d="M705 630l-20 -95c-66 0 -131 -25 -186 -65c0 0 89 -40 74 -110l-46 -220c-8 -38 -44 -152 -191 -152s-133 114 -125 152l11 54c21 97 148 153 169 250c12 56 6 82 -10 112l-53 -72h-39c-2 23 1 67 -36 67c-35 0 -65 -59 -74 -102c15 17 37 34 63 34c46 0 75 -40 64 -90
s-58 -95 -104 -95c-66 0 -98 59 -79 150c11 49 62 158 144 158c56 0 56 -63 56 -63l48 63h26c31 -11 56 -40 65 -81c69 66 162 105 243 105zM231 433c-20 0 -41 -18 -46 -40s9 -40 29 -40s41 18 46 40s-9 40 -29 40zM456 422c-34 -115 -127 -164 -141 -228l-11 -54
c-6 -28 -1 -67 50 -67s74 39 80 67l46 220c4 20 -8 43 -24 62z" />
    <glyph glyph-name="uni0E28.alt" unicode="&#xe63;" horiz-adv-x="584" 
d="M718 630l-20 -95c-49 -1 -82 -18 -108 -42c9 -33 9 -74 -1 -121l-79 -372h-88l79 372c22 104 -29 155 -102 155s-152 -56 -173 -155c-9 -42 -14 -98 -15 -132c19 44 42 103 72 137c25 30 60 50 95 50c51 0 83 -45 71 -100s-63 -100 -114 -100c-24 0 -44 10 -57 26
c-40 -82 -62 -174 -79 -253h-107c13 38 21 69 27 96c25 117 -3 151 24 276c28 133 150 240 274 240c59 0 108 -18 139 -54c37 39 101 72 162 72zM366 372c-23 0 -46 -20 -51 -45s9 -45 32 -45s46 20 51 45s-9 45 -32 45z" />
    <glyph glyph-name="uni0E2A.alt" unicode="&#xe64;" horiz-adv-x="566" 
d="M700 630l-20 -95c-45 -1 -78 -16 -103 -37c8 -29 7 -62 0 -96l-73 -342c-14 -64 -107 -66 -107 -66l40 186c11 50 -9 150 -103 150c-66 0 -128 -53 -146 -140c-4 -21 -6 -41 1 -60c11 32 52 74 100 74c54 0 87 -47 75 -105s-66 -105 -120 -105c-106 1 -175 74 -149 196
c26 124 127 215 246 215c84 0 120 -58 126 -85l17 82c14 68 -15 125 -94 125s-127 -52 -136 -93h-98c17 81 110 178 252 178c62 0 106 -19 135 -49c38 37 98 67 157 67zM275 139c-20 0 -41 -18 -46 -40s9 -40 29 -40s40 18 45 40s-8 40 -28 40z" />
    <glyph glyph-name="uni0E2E.alt" unicode="&#xe66;" horiz-adv-x="565" 
d="M700 630l-20 -95c-45 -1 -78 -16 -103 -37c8 -29 7 -62 0 -96l-46 -214c-34 -162 -123 -200 -247 -200s-196 38 -162 200l24 112c13 61 69 110 126 110s92 -49 79 -110s-69 -110 -126 -110h-9l-7 -30c-16 -78 42 -87 93 -87s113 9 131 87l51 242c14 68 -15 125 -94 125
s-127 -52 -136 -93h-98c17 81 110 178 252 178c62 0 106 -19 135 -49c38 37 98 67 157 67zM258 345c-23 0 -46 -20 -51 -45s9 -45 32 -45s46 20 51 45s-9 45 -32 45z" />
    <glyph glyph-name="B" unicode="B" horiz-adv-x="704" 
d="M55 0l182 860h270c206 0 257 -103 228 -240c-12 -56 -54 -128 -129 -170c98 -39 103 -130 86 -210c-37 -175 -157 -240 -284 -240h-353zM242 400l-64 -300h223c73 0 165 34 188 140s-37 160 -133 160h-214zM261 490h205c81 0 152 58 169 140s-22 140 -138 140h-176z" />
    <glyph glyph-name="period" unicode="." horiz-adv-x="276" 
d="M220 80c-10 -45 -49 -80 -91 -80s-67 35 -57 80s49 80 91 80s67 -35 57 -80z" />
    <glyph glyph-name="x" unicode="x" horiz-adv-x="495" 
d="M260 335l-101 285h99l75 -220l168 220h99l-223 -285l118 -335h-103l-87 270l-201 -270h-104z" />
    <glyph glyph-name="i" unicode="i" horiz-adv-x="269" 
d="M363 780c-10 -45 -48 -80 -88 -80s-65 35 -55 80s49 80 89 80s64 -35 54 -80zM213 620h89l-132 -620h-89z" />
    <glyph glyph-name="o" unicode="o" horiz-adv-x="593" 
d="M423 638c146 0 218 -117 183 -280c-11 -52 -10 -44 -21 -96c-35 -163 -155 -280 -301 -280s-218 117 -183 280c11 52 10 44 21 96c35 163 155 280 301 280zM404 548c-96 0 -169 -77 -193 -190c-11 -52 -10 -44 -21 -96c-24 -113 17 -190 113 -190s169 77 193 190
c11 52 10 44 21 96c24 113 -17 190 -113 190z" />
    <glyph glyph-name="O" unicode="O" horiz-adv-x="778" 
d="M567 878c205 0 301 -159 254 -378l-29 -140c-47 -219 -211 -378 -416 -378s-301 159 -254 378l30 140c47 219 210 378 415 378zM546 778c-134 0 -255 -126 -287 -278l-30 -140c-32 -152 35 -278 169 -278s255 126 287 278l29 140c32 152 -34 278 -168 278z" />
    <glyph glyph-name="I" unicode="I" horiz-adv-x="247" 
d="M246 860h103l-183 -860h-102z" />
    <glyph glyph-name="X" unicode="X" horiz-adv-x="706" 
d="M220 860h126l120 -310l252 310h125l-329 -390l184 -470h-126l-141 385l-305 -385h-126l384 470z" />
    <glyph glyph-name="H" unicode="H" horiz-adv-x="722" 
d="M237 860h103l-77 -360h391l76 360h103l-183 -860h-102l85 400h-391l-85 -400h-102z" />
    <glyph glyph-name="P" unicode="P" horiz-adv-x="658" 
d="M246 860h279c206 0 253 -123 224 -260c-27 -129 -145 -240 -283 -240h-223l-77 -360h-102zM330 770l-68 -320h214c81 0 156 78 173 160s-17 160 -133 160h-186z" />
    <glyph glyph-name="p" unicode="p" horiz-adv-x="602" 
d="M297 -18c-92 0 -129 61 -134 108l-92 -430h-89l204 960h80l-23 -110c21 37 78 128 193 128c146 0 214 -117 179 -280l-21 -96c-35 -163 -151 -280 -297 -280zM312 72c87 0 169 77 193 190l21 96c24 113 -26 190 -113 190s-171 -87 -193 -190l-21 -96
c-22 -103 26 -190 113 -190z" />
    <glyph glyph-name="K" unicode="K" horiz-adv-x="678" 
d="M237 860h103l-77 -360h84l327 360h121l-350 -380l251 -480h-130l-203 400h-121l-85 -400h-102z" />
    <glyph glyph-name="j" unicode="j" horiz-adv-x="268" 
d="M361 780c-10 -45 -48 -80 -88 -80s-64 35 -54 80s48 80 88 80s64 -35 54 -80zM212 620h89s-97 -453 -145 -680c-33 -153 -155 -280 -301 -280l19 90c87 0 171 87 193 190z" />
    <glyph glyph-name="D" unicode="D" horiz-adv-x="750" 
d="M237 860h233c272 0 360 -186 308 -430c-50 -234 -188 -430 -435 -430h-288zM321 770l-143 -670h177c167 0 272 141 312 330s-12 340 -207 340h-139z" />
    <glyph glyph-name="E" unicode="E" horiz-adv-x="657" 
d="M237 860h521l-21 -100h-419l-55 -260h363l-21 -100h-363l-63 -295h437l-22 -105h-539z" />
    <glyph glyph-name="L" unicode="L" horiz-adv-x="575" 
d="M237 860h103l-162 -760h400l-21 -100h-502z" />
    <glyph glyph-name="F" unicode="F" horiz-adv-x="602" 
d="M237 860h521l-21 -100h-419l-55 -260h363l-21 -100h-363l-85 -400h-102z" />
    <glyph glyph-name="J" unicode="J" horiz-adv-x="583" 
d="M589 850h102l-127 -598c-33 -154 -151 -270 -290 -270s-208 116 -175 270h102c-21 -99 14 -170 94 -170s146 71 167 170z" />
    <glyph glyph-name="T" unicode="T" horiz-adv-x="584" 
d="M201 860h539l-21 -100h-218l-162 -760h-102l161 760h-218z" />
    <glyph glyph-name="N" unicode="N" horiz-adv-x="722" 
d="M237 860h112l235 -690l146 690h103l-183 -860h-112l-234 690l-147 -690h-102z" />
    <glyph glyph-name="M" unicode="M" horiz-adv-x="862" 
d="M385 0l-81 690l-147 -690h-102l182 860h140l81 -710l384 710h130l-183 -860h-93l147 690l-375 -690h-83z" />
    <glyph glyph-name="U" unicode="U" horiz-adv-x="741" 
d="M235 850h107l-104 -490c-32 -152 7 -278 141 -278s227 126 259 278l104 490h107l-104 -490c-47 -219 -182 -378 -387 -378s-274 159 -227 378z" />
    <glyph glyph-name="b" unicode="b" horiz-adv-x="602" 
d="M436 638c146 0 214 -117 179 -280l-21 -96c-35 -163 -151 -280 -297 -280c-115 0 -133 91 -139 128l-23 -110h-80l204 960h89l-92 -430c25 47 88 108 180 108zM413 548c-87 0 -171 -87 -193 -190l-21 -96c-22 -103 26 -190 113 -190s169 77 193 190l21 96
c24 113 -26 190 -113 190z" />
    <glyph glyph-name="R" unicode="R" horiz-adv-x="667" 
d="M237 860h261c198 0 249 -98 220 -235c-18 -86 -94 -157 -172 -195c66 -20 108 -106 77 -250c-35 -166 17 -180 17 -180h-111s-46 1 -8 180c27 126 -15 210 -132 210h-149l-83 -390h-102zM321 770l-62 -290h167c81 0 172 63 189 145s-20 145 -136 145h-158z" />
    <glyph glyph-name="V" unicode="V" horiz-adv-x="761" 
d="M201 860h121l75 -740l390 740h121l-471 -860h-130z" />
    <glyph glyph-name="Y" unicode="Y" horiz-adv-x="678" 
d="M192 860h130l113 -390l278 390h130l-376 -500l-77 -360h-111l76 360z" />
    <glyph glyph-name="A" unicode="A" horiz-adv-x="779" 
d="M517 860h112l124 -860h-117l-23 240h-344l-125 -240h-117zM547 740l-231 -410h288z" />
    <glyph glyph-name="Q" unicode="Q" horiz-adv-x="779" 
d="M567 878c205 0 301 -159 254 -378l-29 -140c-22 -104 -72 -195 -139 -261l100 -139l-91 -80l-106 147c-55 -29 -115 -45 -180 -45c-205 0 -301 159 -254 378l30 140c47 219 210 378 415 378zM546 778c-134 0 -255 -126 -287 -278l-30 -140c-32 -152 35 -278 169 -278
c35 0 70 9 102 24l-89 124l91 80l93 -130c43 49 76 112 90 180l29 140c32 152 -34 278 -168 278z" />
    <glyph glyph-name="Z" unicode="Z" horiz-adv-x="722" 
d="M247 860h567l-21 -100l-587 -660h465l-21 -100h-595l21 100l596 660h-447z" />
    <glyph glyph-name="W" unicode="W" horiz-adv-x="993" 
d="M629 860h83l17 -710l300 710h111l-368 -860h-131l-19 630l-288 -630h-130l-3 860h112l-3 -710z" />
    <glyph glyph-name="S" unicode="S" horiz-adv-x="722" 
d="M530 878c194 0 261 -128 229 -278h-107c24 114 -23 188 -141 188s-192 -92 -206 -158c-17 -81 41 -116 163 -130c144 -17 284 -62 244 -250c-40 -187 -183 -268 -363 -268s-285 105 -246 288h107c-26 -121 38 -188 160 -188s211 56 235 168c23 107 -51 126 -195 150
c-116 19 -248 61 -212 230c24 115 138 248 332 248z" />
    <glyph glyph-name="u" unicode="u" horiz-adv-x="575" 
d="M195 620h89l-76 -362c-24 -113 9 -180 96 -180s150 67 174 180l76 362h89l-76 -362c-33 -153 -136 -270 -282 -270s-199 117 -166 270z" />
    <glyph glyph-name="C" unicode="C" horiz-adv-x="751" 
d="M558 878c176 0 265 -117 255 -288h-121c4 109 -50 188 -156 188c-134 0 -245 -126 -277 -278l-30 -140c-32 -152 25 -278 159 -278c106 0 209 69 245 188h121c-68 -186 -211 -288 -387 -288c-205 0 -292 159 -245 378l30 140c47 219 201 378 406 378z" />
    <glyph glyph-name="d" unicode="d" horiz-adv-x="602" 
d="M419 638c92 0 129 -61 134 -108l92 430h89l-204 -960h-81l24 110c-21 -37 -78 -128 -193 -128c-146 0 -214 117 -179 280l21 96c35 163 151 280 297 280zM404 548c-87 0 -169 -77 -193 -190l-21 -96c-24 -113 26 -190 113 -190s171 87 193 190l21 96
c22 103 -26 190 -113 190z" />
    <glyph glyph-name="G" unicode="G" horiz-adv-x="760" 
d="M558 878c176 0 265 -117 255 -288h-121c4 109 -50 188 -156 188c-134 0 -245 -126 -277 -278l-30 -140c-32 -152 25 -278 159 -278c101 0 190 53 242 132l23 106h-167l21 100h269l-53 -251c-87 -98 -186 -187 -356 -187c-205 0 -292 159 -245 378l30 140
c47 219 201 378 406 378z" />
    <glyph glyph-name="g" unicode="g" horiz-adv-x="602" 
d="M419 638c115 0 133 -91 139 -128l23 110h80l-151 -710c-33 -153 -131 -250 -286 -250s-213 97 -180 250h89c-22 -103 12 -160 110 -160s156 57 178 160l38 180c-25 -47 -88 -108 -180 -108c-146 0 -213 117 -178 280l21 96c35 163 151 280 297 280zM404 548
c-87 0 -169 -77 -193 -190l-21 -96c-24 -113 26 -190 113 -190s171 87 193 190l20 96c22 103 -25 190 -112 190z" />
    <glyph glyph-name="l" unicode="l" horiz-adv-x="252" 
d="M277 960h89l-204 -960h-89z" />
    <glyph glyph-name="n" unicode="n" horiz-adv-x="575" 
d="M186 620h80l-27 -130c22 36 101 142 218 142c103 0 165 -71 131 -232l-85 -400h-89l77 362c26 123 4 180 -70 180c-115 0 -185 -108 -207 -212l-70 -330h-89z" />
    <glyph glyph-name="m" unicode="m" horiz-adv-x="835" 
d="M426 632c82 0 114 -70 118 -142c25 55 85 142 178 142c98 0 162 -61 128 -222l-87 -410h-89l80 380c29 136 -27 162 -73 162c-65 0 -126 -82 -147 -182l-76 -360h-89l80 380c26 123 -27 162 -73 162c-73 0 -138 -99 -156 -182l-76 -360h-89l131 620h80l-27 -130
c12 30 70 142 187 142z" />
    <glyph glyph-name="q" unicode="q" horiz-adv-x="602" 
d="M280 -18c-146 0 -214 117 -179 280l21 96c35 163 151 280 297 280c115 0 133 -91 139 -128l23 110h80l-204 -960h-89l92 430c-25 -47 -88 -108 -180 -108zM303 72c87 0 171 87 193 190l21 96c22 103 -26 190 -113 190s-169 -77 -193 -190l-21 -96
c-24 -113 26 -190 113 -190z" />
    <glyph glyph-name="a" unicode="a" horiz-adv-x="574" 
d="M418 638c137 0 191 -97 167 -208l-58 -270c-17 -81 2 -160 2 -160h-89s-8 68 1 110c0 0 -63 -128 -193 -128c-156 0 -185 101 -165 193c26 124 137 195 256 195h144l13 60c14 68 -13 118 -97 118s-132 -50 -146 -118h-98c23 110 126 208 263 208zM322 290
c-64 0 -132 -28 -150 -115c-17 -78 30 -103 95 -103c91 0 167 70 194 196l5 22h-144z" />
    <glyph glyph-name="h" unicode="h" horiz-adv-x="575" 
d="M259 960h89l-100 -470c22 36 92 142 209 142c103 0 165 -71 131 -232l-85 -400h-89l77 362c26 123 4 180 -70 180c-115 0 -185 -108 -207 -212l-70 -330h-89z" />
    <glyph glyph-name="e" unicode="e" horiz-adv-x="584" 
d="M423 638c155 0 204 -140 170 -298l-13 -60h-386l-4 -18c-24 -113 17 -190 113 -190c75 0 120 49 160 118h98c-52 -119 -145 -208 -277 -208c-155 0 -218 117 -183 280l21 96c31 148 146 280 301 280zM404 548c-105 0 -163 -85 -191 -178h301c10 88 -4 178 -110 178z" />
    <glyph glyph-name="c" unicode="c" horiz-adv-x="556" 
d="M419 638c123 0 191 -89 179 -208h-93c7 69 -40 118 -106 118c-96 0 -164 -77 -188 -190l-21 -96c-24 -113 12 -190 108 -190c70 0 129 44 156 118h98c-44 -129 -150 -208 -273 -208c-146 0 -213 117 -178 280l21 96c35 163 151 280 297 280z" />
    <glyph glyph-name="w" unicode="w" horiz-adv-x="711" 
d="M150 620h90l-7 -500l209 500h81l-2 -500l205 500h90l-267 -620h-99l-1 460l-197 -460h-99z" />
    <glyph glyph-name="v" unicode="v" horiz-adv-x="567" 
d="M150 620h94l56 -520l277 520h95l-343 -620h-99z" />
    <glyph glyph-name="z" unicode="z" horiz-adv-x="504" 
d="M177 620h396l-19 -90l-400 -440h324l-19 -90h-432l19 90l400 440h-288z" />
    <glyph glyph-name="y" unicode="y" horiz-adv-x="567" 
d="M150 620h99l61 -495l263 495h99l-523 -960h-98l183 340z" />
    <glyph glyph-name="r" unicode="r" horiz-adv-x="368" 
d="M455 532c-124 0 -226 -130 -252 -252l-59 -280h-89l131 620h89l-31 -150c24 55 130 162 232 162z" />
    <glyph glyph-name="numbersign" unicode="#" horiz-adv-x="862" 
d="M601 960h98l-180 -350h149l179 350h98l-179 -350h153l-19 -90h-181l-77 -150h226l-19 -90h-253l-216 -420h-98l216 420h-149l-215 -420h-98l216 420h-138l19 90h165l77 150h-210l19 90h237zM473 520l-77 -150h148l78 150h-149z" />
    <glyph glyph-name="asterisk" unicode="*" horiz-adv-x="426" 
d="M316 860h69l-31 -148l140 46l6 -70l-140 -46l55 -119l-64 -43l-56 119l-106 -119l-46 43l105 119l-120 46l36 70l121 -46z" />
    <glyph glyph-name="s" unicode="s" horiz-adv-x="556" 
d="M396 638c137 0 194 -98 171 -208h-89c14 68 -16 123 -100 123s-130 -60 -140 -108c-11 -52 26 -75 107 -85c90 -11 215 -42 186 -180c-29 -137 -138 -198 -265 -198s-208 74 -180 208h98c-16 -74 27 -118 101 -118s133 32 149 108c14 68 -58 94 -122 105
c-76 13 -191 29 -163 160c18 84 110 193 247 193z" />
    <glyph glyph-name="f" unicode="f" horiz-adv-x="395" 
d="M566 972l-19 -90c-87 0 -172 -87 -194 -190l-15 -72h144l-17 -80h-144l-115 -540h-89l115 540h-90l17 80h90l15 72c33 153 156 280 302 280z" />
    <glyph glyph-name="t" unicode="t" horiz-adv-x="377" 
d="M407 860l-51 -240h108l-17 -80h-108l-115 -540h-89l115 540h-108l17 80h108l51 240h89z" />
    <glyph glyph-name="k" unicode="k" horiz-adv-x="485" 
d="M259 960h89l-131 -615l288 275h103l-249 -240l154 -380h-95l-124 325l-102 -95l-48 -230h-89z" />
    <glyph glyph-name="hyphen" unicode="-" 
d="M133 370h465l-19 -90h-465z" />
    <glyph glyph-name="bar" unicode="|" horiz-adv-x="256" 
d="M277 960h93l-276 -1300h-93z" />
    <glyph glyph-name="slash" unicode="/" horiz-adv-x="397" 
d="M540 960h98l-667 -1300h-98z" />
    <glyph glyph-name="colon" unicode=":" horiz-adv-x="294" 
d="M317 490c-10 -45 -50 -80 -92 -80s-67 35 -57 80s49 80 91 80s68 -35 58 -80zM230 80c-10 -45 -50 -80 -92 -80s-67 35 -57 80s49 80 91 80s68 -35 58 -80z" />
    <glyph glyph-name="backslash" unicode="\" horiz-adv-x="397" 
d="M247 960l114 -1300h-97l-115 1300h98z" />
    <glyph glyph-name="seven" unicode="7" horiz-adv-x="611" 
d="M203 0l39 180c64 300 337 580 337 580h-363l21 100h484l-21 -100s-282 -274 -347 -580l-38 -180h-112z" />
    <glyph glyph-name="exclam" unicode="!" horiz-adv-x="276" 
d="M220 80c-10 -45 -49 -80 -91 -80s-67 35 -57 80s49 80 91 80s67 -35 57 -80zM256 860h112l-107 -500l-39 -120h-84l12 120z" />
    <glyph glyph-name="quotedbl" unicode="&#x22;" horiz-adv-x="400" 
d="M419 960h93l-34 -160l-35 -120h-75l17 120zM259 960h93l-34 -160l-35 -120h-75l17 120z" />
    <glyph glyph-name="dollar" unicode="$" horiz-adv-x="593" 
d="M483 220c20 93 -57 139 -115 160c-114 41 -196 124 -169 252c28 131 132 215 238 230l32 148h74l-31 -148c127 -22 168 -144 145 -262h-102c18 90 -19 168 -95 168c-82 0 -143 -62 -159 -136c-21 -98 65 -140 124 -162c113 -41 187 -123 160 -250
c-31 -140 -152 -217 -262 -230l-30 -140h-75l30 140c-134 17 -187 124 -158 260h102c-22 -102 28 -166 113 -166c86 0 164 68 178 136z" />
    <glyph glyph-name="percent" unicode="%" horiz-adv-x="909" 
d="M405 860c102 0 167 -90 144 -200s-127 -200 -229 -200s-166 90 -143 200s126 200 228 200zM805 860h102l-638 -860h-102zM386 770c-57 0 -113 -49 -126 -110s22 -110 79 -110s113 49 126 110s-22 110 -79 110zM754 400c102 0 166 -90 143 -200s-126 -200 -228 -200
s-167 90 -144 200s127 200 229 200zM735 310c-57 0 -113 -49 -126 -110s22 -110 79 -110s113 49 126 110s-22 110 -79 110z" />
    <glyph glyph-name="ampersand" unicode="&#x26;" horiz-adv-x="745" 
d="M509 878c103 0 169 -77 147 -181c-25 -116 -133 -175 -223 -232l139 -264c44 57 74 125 87 187h102c-21 -97 -75 -191 -144 -260l74 -128h-126l-35 54c-73 -48 -150 -72 -222 -72c-142 0 -236 102 -206 242c23 110 135 206 216 256c-36 60 -68 119 -52 192
c28 134 140 206 243 206zM493 793c-68 0 -120 -52 -134 -120c-12 -55 24 -106 44 -143c69 43 144 94 160 167c12 57 -23 96 -70 96zM351 406c-59 -43 -131 -112 -146 -182c-21 -99 48 -152 123 -152c57 0 116 23 166 56z" />
    <glyph glyph-name="quotesingle" unicode="'" horiz-adv-x="220" 
d="M259 960h93l-34 -160l-35 -120h-75l17 120z" />
    <glyph glyph-name="parenleft" unicode="(" horiz-adv-x="453" 
d="M345 -340c-273 40 -297 307 -233 610l36 170c64 303 202 570 492 610l-12 -60c-217 -40 -335 -306 -387 -550l-36 -170c-52 -244 -47 -510 153 -550z" />
    <glyph glyph-name="parenright" unicode=")" horiz-adv-x="453" 
d="M-36 -340l13 60c217 40 334 306 386 550l37 170c52 244 47 510 -153 550l13 60c273 -40 297 -307 233 -610l-37 -170c-64 -303 -202 -570 -492 -610z" />
    <glyph glyph-name="plus" unicode="+" 
d="M363 575h93l-44 -205h186l-19 -90h-186l-43 -205h-93l43 205h-186l19 90h186z" />
    <glyph glyph-name="comma" unicode="," horiz-adv-x="276" 
d="M163 160c46 0 66 -45 56 -90c-24 -114 -104 -193 -149 -220h-65c46 36 106 103 117 157c-33 0 -59 30 -50 73c10 45 49 80 91 80z" />
    <glyph glyph-name="zero" unicode="0" 
d="M474 878c146 0 215 -125 182 -280l-71 -336c-33 -155 -156 -280 -302 -280s-215 125 -182 280l72 336c33 155 155 280 301 280zM453 778c-90 0 -157 -81 -178 -180l-72 -336c-21 -99 12 -180 102 -180s156 81 177 180l72 336c21 99 -11 180 -101 180z" />
    <glyph glyph-name="one" unicode="1" horiz-adv-x="589" 
d="M515 860h121l-183 -860h-107l146 683c-67 -81 -160 -103 -260 -103l22 100c108 0 241 86 261 180z" />
    <glyph glyph-name="two" unicode="2" horiz-adv-x="593" 
d="M474 878c146 0 217 -115 184 -270c-26 -122 -113 -200 -161 -246l-281 -262h344l-22 -100h-483l21 100l295 274c51 49 165 140 185 234c21 99 -13 170 -103 170s-157 -81 -178 -180h-102c33 155 155 280 301 280z" />
    <glyph glyph-name="three" unicode="3" horiz-adv-x="593" 
d="M474 878c138 0 220 -106 189 -250c-22 -102 -85 -164 -149 -198c49 -35 96 -95 74 -198c-31 -144 -150 -250 -304 -250s-229 106 -198 250h102c-19 -91 35 -150 117 -150s162 59 181 150c17 79 -47 148 -118 148h-111l21 100h112c73 0 149 50 170 148
c19 91 -25 150 -107 150s-153 -59 -172 -150h-102c31 144 157 250 295 250z" />
    <glyph glyph-name="four" unicode="4" horiz-adv-x="593" 
d="M526 290h102l-19 -90h-102l-43 -200h-102l43 200h-335l13 60l452 600h112zM205 290h219l87 410z" />
    <glyph glyph-name="five" unicode="5" 
d="M289 860h386l-21 -100h-303l-102 -297c25 34 83 79 154 79c146 0 215 -125 182 -280s-155 -280 -301 -280c-165 0 -220 104 -201 238h102c-4 -95 30 -138 120 -138s157 81 178 180s-12 180 -102 180c-78 0 -122 -49 -149 -92l-101 30z" />
    <glyph glyph-name="six" unicode="6" horiz-adv-x="640" 
d="M329 -18c-146 0 -215 125 -182 280l71 336c33 155 156 280 302 280s215 -125 182 -280h-102c21 99 -12 180 -102 180s-156 -81 -177 -180l-27 -123c37 40 91 67 154 67c146 0 215 -125 182 -280s-155 -280 -301 -280zM350 82c90 0 157 81 178 180s-11 180 -101 180
s-157 -81 -178 -180s11 -180 101 -180z" />
    <glyph glyph-name="eight" unicode="8" horiz-adv-x="593" 
d="M474 878c138 0 220 -104 189 -248c-18 -83 -77 -150 -141 -185c49 -35 103 -82 75 -213c-31 -144 -148 -250 -313 -250s-238 106 -207 250c25 119 102 178 166 213c-49 35 -81 102 -63 185c31 144 156 248 294 248zM454 783c-84 0 -157 -58 -177 -153
c-18 -85 27 -147 113 -147s157 57 176 147s-27 153 -112 153zM372 397c-90 0 -174 -76 -193 -165c-19 -91 37 -150 126 -150s171 59 190 150s-33 165 -123 165z" />
    <glyph glyph-name="nine" unicode="9" 
d="M474 878c146 0 215 -125 182 -280l-71 -336c-33 -155 -156 -280 -302 -280s-215 125 -182 280h102c-21 -99 12 -180 102 -180s156 81 177 180l27 123c-37 -40 -91 -67 -154 -67c-146 0 -215 125 -182 280s155 280 301 280zM453 778c-90 0 -157 -81 -178 -180
s11 -180 101 -180s157 81 178 180s-11 180 -101 180z" />
    <glyph glyph-name="semicolon" unicode=";" horiz-adv-x="320" 
d="M261 570c42 0 67 -35 57 -80s-49 -80 -91 -80s-68 35 -58 80s50 80 92 80zM173 160c46 0 66 -45 56 -90c-24 -114 -104 -193 -149 -220h-65c46 36 106 103 117 157c-33 0 -59 30 -50 73c10 45 49 80 91 80z" />
    <glyph glyph-name="less" unicode="&#x3c;" horiz-adv-x="518" 
d="M97 285l17 80l476 225l-22 -100l-360 -165l290 -165l-21 -100z" />
    <glyph glyph-name="equal" unicode="=" horiz-adv-x="640" 
d="M159 490h465l-19 -90h-465zM107 250h465l-19 -90h-465z" />
    <glyph glyph-name="greater" unicode="&#x3e;" horiz-adv-x="518" 
d="M525 285l-476 -225l21 100l361 165l-290 165l21 100l380 -225z" />
    <glyph glyph-name="question" unicode="?" horiz-adv-x="583" 
d="M474 878c166 0 213 -133 189 -248c-40 -188 -238 -200 -278 -390h-84c55 259 228 238 260 390c14 66 -9 158 -106 158s-165 -74 -189 -188h-102c32 150 144 278 310 278zM331 160c42 0 67 -35 57 -80s-49 -80 -91 -80s-68 35 -58 80s50 80 92 80z" />
    <glyph glyph-name="at" unicode="@" horiz-adv-x="1150" 
d="M816 960c263 0 415 -216 356 -492c-4 -19 -9 -38 -15 -58l-53 -170c-45 -148 -148 -258 -284 -258c-95 0 -120 65 -118 128c-26 -37 -94 -128 -213 -128c-139 0 -199 98 -169 240c3 13 5 26 10 40l30 96c50 163 181 280 333 280c96 0 129 -61 130 -108l27 90h93
l-136 -440c-2 -6 -4 -11 -5 -17c-11 -52 5 -91 46 -91c75 0 141 96 163 168l53 170c5 17 10 34 13 50c47 223 -60 410 -289 410c-246 0 -485 -216 -561 -460l-62 -200c-5 -17 -10 -34 -13 -50c-47 -223 60 -410 289 -410h233l-29 -90h-232c-263 0 -415 216 -356 492
c4 19 9 38 15 58l62 200c94 303 400 550 682 550zM670 548c-90 0 -183 -77 -217 -190l-30 -96c-3 -9 -4 -18 -6 -26c-21 -99 23 -164 106 -164c90 0 185 87 217 190l29 96c2 7 5 14 6 21c20 94 -21 169 -105 169z" />
    <glyph glyph-name="bracketleft" unicode="[" horiz-adv-x="406" 
d="M278 1050h279l-18 -85h-186l-260 -1220h186l-18 -85h-279z" />
    <glyph glyph-name="bracketright" unicode="]" horiz-adv-x="406" 
d="M557 1050l-296 -1390h-279l18 85h186l260 1220h-186l18 85h279z" />
    <glyph glyph-name="asciicircum" unicode="^" horiz-adv-x="501" 
d="M387 860h74l89 -460h-93l-60 330l-201 -330h-93z" />
    <glyph glyph-name="underscore" unicode="_" horiz-adv-x="798" 
d="M27 0h735l-19 -90h-735z" />
    <glyph glyph-name="grave" unicode="`" horiz-adv-x="222" 
d="M204 960h93l73 -180h-74z" />
    <glyph glyph-name="braceleft" unicode="{" horiz-adv-x="463" 
d="M484 1050h130l-17 -80h-130c-33 0 -64 -38 -71 -70l-85 -400c-25 -117 -124 -145 -124 -145s87 -28 62 -145l-85 -400c-7 -32 8 -70 41 -70h130l-17 -80h-130c-91 0 -135 64 -117 150l85 400c14 67 -51 115 -83 135l5 20c41 20 126 68 140 135l85 400
c18 86 90 150 181 150z" />
    <glyph glyph-name="braceright" unicode="}" horiz-adv-x="463" 
d="M408 1050c91 0 135 -64 117 -150l-85 -400c-14 -67 51 -115 83 -135l-4 -20c-41 -20 -127 -68 -141 -135l-85 -400c-18 -86 -89 -150 -180 -150h-131l17 80h131c33 0 63 38 70 70l85 400c25 117 124 145 124 145s-87 28 -62 145l85 400c7 32 -8 70 -41 70h-130l17 80h130
z" />
    <glyph glyph-name="asciitilde" unicode="~" 
d="M129 350c48 47 92 70 148 70c99 0 122 -80 192 -80c51 0 96 39 140 80l-22 -102c-52 -44 -98 -68 -147 -68c-89 0 -102 80 -192 80c-56 0 -95 -42 -140 -80z" />
    <glyph glyph-name="quotedblleft" unicode="&#x201c;" horiz-adv-x="462" 
d="M274 680c-46 0 -66 45 -56 90c24 114 104 193 149 220h65c-46 -36 -106 -103 -117 -157c33 0 59 -30 50 -73c-10 -45 -49 -80 -91 -80zM460 680c-46 0 -66 45 -56 90c24 114 104 193 149 220h65c-46 -36 -106 -103 -117 -157c33 0 59 -30 50 -73c-10 -45 -49 -80 -91 -80
z" />
    <glyph glyph-name="quotedblright" unicode="&#x201d;" horiz-adv-x="500" 
d="M533 960c46 0 66 -45 56 -90c-24 -114 -104 -193 -149 -220h-65c46 36 106 103 117 157c-33 0 -59 30 -50 73c10 45 49 80 91 80zM333 960c46 0 66 -45 56 -90c-24 -114 -104 -193 -149 -220h-65c46 36 106 103 117 157c-33 0 -59 30 -50 73c10 45 49 80 91 80z" />
    <glyph glyph-name="quoteleft" unicode="&#x2018;" horiz-adv-x="276" 
d="M274 680c-46 0 -66 45 -56 90c24 114 104 193 149 220h65c-46 -36 -106 -103 -117 -157c33 0 59 -30 50 -73c-10 -45 -49 -80 -91 -80z" />
    <glyph glyph-name="quoteright" unicode="&#x2019;" horiz-adv-x="300" 
d="M333 960c46 0 66 -45 56 -90c-24 -114 -104 -193 -149 -220h-65c46 36 106 103 117 157c-33 0 -59 30 -50 73c10 45 49 80 91 80z" />
    <glyph glyph-name="afii57929" unicode="&#x2bc;" horiz-adv-x="300" 
d="M333 960c46 0 66 -45 56 -90c-24 -114 -104 -193 -149 -220h-65c46 36 106 103 117 157c-33 0 -59 30 -50 73c10 45 49 80 91 80z" />
    <glyph glyph-name="Euro" unicode="&#x20ac;" 
d="M706 878l-21 -100c-119 0 -265 -99 -318 -228h232l-17 -80h-237l-17 -80h237l-17 -80h-232c-2 -129 102 -228 221 -228l-21 -100c-189 0 -327 135 -309 328h-87l17 80h84l17 80h-83l17 80h86c64 193 259 328 448 328z" />
    <glyph glyph-name="yen" unicode="&#xa5;" horiz-adv-x="594" 
d="M192 860h111l94 -390l260 390h111l-288 -420h162l-17 -80h-195l-22 -100h196l-17 -80h-196l-38 -180h-111l38 180h-195l17 80h195l21 100h-195l17 80h162z" />
    <glyph glyph-name="sterling" unicode="&#xa3;" horiz-adv-x="593" 
d="M297 370c-21 -101 -58 -211 -116 -280h386l-19 -90h-521l19 90c101 64 127 193 148 280h-88l17 80h84l36 170c35 159 123 258 259 258s180 -111 155 -228h-102c13 63 10 138 -72 138c-86 0 -122 -97 -138 -168l-36 -170h214l-17 -80h-209z" />
    <glyph glyph-name="cent" unicode="&#xa2;" 
d="M427 770h75l-29 -135c103 -15 153 -98 142 -205h-97c7 69 -33 118 -101 118c-100 0 -160 -77 -184 -190l-21 -96c-24 -113 4 -190 104 -190c73 0 123 44 151 118h102c-40 -116 -125 -192 -234 -206l-29 -134h-74l28 134c-125 18 -173 129 -141 278l21 96
c32 149 127 260 259 278z" />
    <glyph glyph-name="copyright" unicode="&#xa9;" horiz-adv-x="908" 
d="M632 878c236 0 345 -211 295 -448s-250 -448 -486 -448s-345 211 -295 448s250 448 486 448zM617 808c-193 0 -364 -179 -406 -378s52 -378 245 -378s364 179 406 378s-52 378 -245 378zM591 685c98 0 150 -68 142 -160h-74c6 53 -31 90 -83 90c-76 0 -129 -58 -147 -145
l-16 -75c-18 -87 9 -145 85 -145c56 0 101 33 122 90h79c-35 -99 -118 -160 -216 -160c-116 0 -171 90 -144 215l15 75c27 125 121 215 237 215z" />
    <glyph glyph-name="registered" unicode="&#xae;" horiz-adv-x="908" 
d="M632 878c236 0 345 -211 295 -448s-250 -448 -486 -448s-345 211 -295 448s250 448 486 448zM617 808c-193 0 -364 -179 -406 -378s52 -378 245 -378s364 179 406 378s-52 378 -245 378zM442 685h149c107 0 146 -55 129 -135c-11 -52 -43 -93 -89 -115
c39 -12 59 -50 41 -135c-17 -82 9 -110 9 -110h-79s-23 26 -5 110c16 74 3 105 -66 105h-79l-45 -215h-70zM650 550c10 49 -14 75 -91 75h-60l-34 -160h88c47 0 87 37 97 85z" />
    <glyph glyph-name="guillemotleft" unicode="&#xab;" horiz-adv-x="560" 
d="M416 320l100 -230h-75l-119 225l2 10l215 225h74zM216 320l100 -230h-75l-119 225l2 10l215 225h74z" />
    <glyph glyph-name="guillemotright" unicode="&#xbb;" horiz-adv-x="560" 
d="M453 320l-197 -230h74l215 225l2 10l-119 225h-75zM253 320l-197 -230h74l215 225l2 10l-119 225h-75z" />
    <glyph glyph-name="acute" unicode="&#xb4;" horiz-adv-x="222" 
d="M409 960l-169 -180h-74l150 180h93z" />
    <glyph glyph-name="exclamdown" unicode="&#xa1;" horiz-adv-x="276" 
d="M297 440c10 45 -15 80 -57 80s-82 -35 -92 -80s16 -80 58 -80s81 35 91 80zM1 -340h112l106 500l11 120h-83l-40 -120z" />
    <glyph glyph-name="brokenbar" unicode="&#xa6;" horiz-adv-x="256" 
d="M1 -340l123 580h93l-123 -580h-93zM247 380h-93l123 580h93z" />
    <glyph glyph-name="section" unicode="&#xa7;" horiz-adv-x="722" 
d="M525 856c194 0 261 -128 229 -278h-107c24 114 -23 188 -141 188s-192 -92 -206 -158c-17 -81 41 -116 163 -130c144 -17 285 -62 245 -250c-14 -65 -40 -117 -76 -157c20 -35 25 -82 12 -143c-40 -187 -184 -268 -364 -268s-285 105 -246 288h107
c-26 -121 38 -188 160 -188s212 56 236 168c23 107 -52 126 -196 150c-116 19 -247 61 -211 230c11 52 40 108 87 154c-26 33 -38 80 -24 146c24 115 138 248 332 248zM295 407c-32 -31 -51 -68 -58 -99c-17 -81 41 -116 163 -130c57 -7 114 -18 158 -41c20 25 35 55 43 91
c23 107 -52 126 -196 150c-37 6 -76 15 -110 29z" />
    <glyph glyph-name="uni00A0" unicode="&#xa0;" horiz-adv-x="300" 
 />
    <glyph glyph-name="endash" unicode="&#x2013;" 
d="M133 370h465l-19 -90h-465z" />
    <glyph glyph-name="guilsinglleft" unicode="&#x2039;" horiz-adv-x="332" 
d="M216 320l100 -230h-75l-119 225l2 10l215 225h74z" />
    <glyph glyph-name="guilsinglright" unicode="&#x203a;" horiz-adv-x="332" 
d="M253 320l-197 -230h74l215 225l2 10l-119 225h-75z" />
    <glyph glyph-name="ellipsis" unicode="&#x2026;" horiz-adv-x="740" 
d="M660 80c-10 -45 -49 -80 -91 -80s-67 35 -57 80s49 80 91 80s67 -35 57 -80zM440 80c-10 -45 -49 -80 -91 -80s-67 35 -57 80s49 80 91 80s67 -35 57 -80zM220 80c-10 -45 -49 -80 -91 -80s-67 35 -57 80s49 80 91 80s67 -35 57 -80z" />
    <glyph glyph-name="trademark" unicode="&#x2122;" horiz-adv-x="648" 
d="M237 860h205l-9 -40h-79l-59 -280h-47l60 280h-79zM479 860h61l23 -260l135 260h60l-68 -320h-46l51 240l-126 -240h-37l-23 240l-51 -240h-47z" />
  </font>
</defs>
</svg>
