<?xml version="1.0" encoding="UTF-8" standalone="no"?>
<!-- Created with Inkscape (http://www.inkscape.org/) -->

<svg
   xmlns:dc="http://purl.org/dc/elements/1.1/"
   xmlns:cc="http://creativecommons.org/ns#"
   xmlns:rdf="http://www.w3.org/1999/02/22-rdf-syntax-ns#"
   xmlns:svg="http://www.w3.org/2000/svg"
   xmlns="http://www.w3.org/2000/svg"
   xmlns:sodipodi="http://sodipodi.sourceforge.net/DTD/sodipodi-0.dtd"
   xmlns:inkscape="http://www.inkscape.org/namespaces/inkscape"
   width="600"
   height="240"
   id="svg2"
   version="1.1"
   inkscape:version="0.48.4 r9939"
   inkscape:export-filename="/home/sungsit/fonts/boon/img/boon-heading.png"
   inkscape:export-xdpi="90"
   inkscape:export-ydpi="90"
   sodipodi:docname="New document 1">
  <defs
     id="defs4" />
  <sodipodi:namedview
     id="base"
     pagecolor="#ffffff"
     bordercolor="#666666"
     borderopacity="1.0"
     inkscape:pageopacity="0.0"
     inkscape:pageshadow="2"
     inkscape:zoom="0.35"
     inkscape:cx="-130.71429"
     inkscape:cy="291.42857"
     inkscape:document-units="px"
     inkscape:current-layer="layer1"
     showgrid="false"
     inkscape:window-width="1317"
     inkscape:window-height="744"
     inkscape:window-x="49"
     inkscape:window-y="24"
     inkscape:window-maximized="1" />
  <metadata
     id="metadata7">
    <rdf:RDF>
      <cc:Work
         rdf:about="">
        <dc:format>image/svg+xml</dc:format>
        <dc:type
           rdf:resource="http://purl.org/dc/dcmitype/StillImage" />
        <dc:title></dc:title>
      </cc:Work>
    </rdf:RDF>
  </metadata>
  <g
     inkscape:label="Layer 1"
     inkscape:groupmode="layer"
     id="layer1"
     transform="translate(0,-812.36218)">
    <g
       style="font-size:150px;font-style:normal;font-variant:normal;font-weight:bold;font-stretch:normal;line-height:125%;letter-spacing:0px;word-spacing:0px;fill:#333333;fill-opacity:1;stroke:none;font-family:Boon;-inkscape-font-specification:Boon Bold"
       id="text2985"
       transform="translate(0,-9.9999997e-6)">
      <path
         d="m 65,895.98718 c -8.999991,0 -16.25,7.25001 -16.25,16.25 0,7.62499 5.375007,14.125 12.5,15.75 l 0,20.25 c 0,20.24998 15.250017,25 31.875,25 16.62498,0 31.875,-4.75002 31.875,-25 l 0,-50.25 -20,0 0,50 c -0.125,9.74999 -6.000006,12.125 -11.875,12.125 -5.874994,0 -11.75,-2.37501 -11.875,-12.125 l 0,-35.75 c 0,-8.99999 -7.250009,-16.25 -16.25,-16.25 m 0,10 c 3.499996,0 6.25,2.75001 6.25,6.25 0,3.5 -2.750004,6.25 -6.25,6.25 -3.499997,0 -6.25,-2.75 -6.25,-6.25 0,-3.49999 2.750003,-6.25 6.25,-6.25"
         id="path2990"
         inkscape:connector-curvature="0"
         style="fill:#333333;fill-opacity:1" />
      <path
         d="m 109.41406,980.48718 c -6.49999,0 -11.874998,5.37501 -11.874998,11.875 0,5.875 4.375008,10.87502 9.999998,11.75002 l 0,10.125 13.75,0 0,-21.87502 c 0,-6.49999 -5.375,-11.875 -11.875,-11.875 m 0,7.5 c 2.375,0 4.375,2 4.375,4.375 0,2.375 -2,4.375 -4.375,4.375 -2.375,0 -4.375,-2 -4.375,-4.375 0,-2.375 2,-4.375 4.375,-4.375"
         id="path2992"
         inkscape:connector-curvature="0"
         style="fill:#333333;fill-opacity:1" />
      <path
         d="m 188.16406,980.48718 c -6.49999,0 -11.875,5.37501 -11.875,11.875 0,14.50002 14.00001,19.37502 25.625,19.37502 21.12498,0 30.625,-16.37503 30.625,-28.75002 l -15,0 c 0,6.875 -5.50001,18.75002 -15.625,18.75002 -2.74999,0 -4.75,-0.125 -5.875,-1.25 2.625,-1.62502 4,-5.00002 4,-8.12502 0,-6.49999 -5.375,-11.875 -11.875,-11.875 m 0,7.5 c 2.375,0 4.375,2 4.375,4.375 0,2.375 -2,4.375 -4.375,4.375 -2.375,0 -4.375,-2 -4.375,-4.375 0,-2.375 2,-4.375 4.375,-4.375 m 11.875,-35 0,-27.75 c 0,-21.12498 -17.12501,-30 -33.75,-30 -16.37498,0 -30.25,14.00001 -33.75,25.25 l 12.5,2.5 c 0,0 -6.25,4.50001 -6.25,15 l 0,19.5 c 0,8.24999 6.75001,15 15,15 8.24999,0 15,-6.75001 15,-15 0,-6.49999 -4.125,-12.125 -10,-14.125 l 0,-7.875 c 1,-7.62499 7.5,-15.625 7.5,-15.625 l -12.5,-3.125 c 2,-4.99999 7.50001,-7.75 12.5,-7.75 6.625,0 13.75,3.75002 13.75,16.25 l 0,30.25 c 0,4.75 4.50002,17.75 25,17.75 20.49998,0 25,-13 25,-17.75 l 0,-57.5 -20,0 0,55 c 0,3.5 -0.125,7.25 -5,7.25 -4.87499,0 -5,-3.75 -5,-7.25 m -46.25,-0.5 c 2.75,0 5,2.25001 5,5 0,2.75 -2.25,5 -5,5 -2.74999,0 -5,-2.25 -5,-5 0,-2.74999 2.25001,-5 5,-5"
         id="path2994"
         inkscape:connector-curvature="0"
         style="fill:#333333;fill-opacity:1" />
      <path
         d="m 251.38672,927.98718 0,31.25 c 0,10.37499 17.87501,13.25 25.625,13.25 l 8.125,-40.75 8.125,40.75 c 7.74999,0 25.625,-2.62501 25.625,-13.25 l 0,-95 -20,0 0,93.75 -10,-48.75 -7.5,0 -10,48.75 0,-45.75 c 0,-8.99999 -7.25001,-16.25 -16.25,-16.25 -8.99999,0 -16.25,7.25001 -16.25,16.25 0,7.62499 5.37501,14.125 12.5,15.75 m 3.75,-22 c 3.5,0 6.25,2.75001 6.25,6.25 0,3.5 -2.75,6.25 -6.25,6.25 -3.5,0 -6.25,-2.75 -6.25,-6.25 0,-3.49999 2.75,-6.25 6.25,-6.25"
         id="path2996"
         inkscape:connector-curvature="0"
         style="fill:#333333;fill-opacity:1" />
      <path
         d="m 360.01953,895.23718 c -19.12498,0 -31.25,12.12501 -31.25,22.25 l 20.625,0 c 0,-5.12499 3.62501,-9.75 10.625,-9.75 6.99999,0 11.25,5.25001 11.25,13.75 l 0,30.25 c -0.125,7.5 -5.25,9 -10,9 -4.24999,0 -8.875,-1.125 -9.875,-7 7.12499,-1.75 12.375,-8.12501 12.375,-15.75 0,-8.99999 -7.25001,-16.25 -16.25,-16.25 -8.99999,0 -16.25,7.25001 -16.25,16.25 l 0,10.25 c 0.125,20.24998 13.37502,25 30,25 16.62498,0 30,-4.75002 30,-25 l 0,-26.75 c 0,-13.87498 -12.12502,-26.25 -31.25,-26.25 m -12.5,36.5 c 3.5,0 6.25,2.75001 6.25,6.25 0,3.5 -2.75,6.25 -6.25,6.25 -3.5,0 -6.25,-2.75 -6.25,-6.25 0,-3.49999 2.75,-6.25 6.25,-6.25"
         id="path2998"
         inkscape:connector-curvature="0"
         style="fill:#333333;fill-opacity:1" />
      <path
         d="m 417.44141,895.98718 c -8.99999,0 -16.25,7.25001 -16.25,16.25 0,7.62499 5.375,14.125 12.5,15.75 l 0,31.25 c 0,7.87499 8.625,13.25 16.25,13.25 2.37499,-3.24999 9.875,-8.5 14.125,-12 1.74999,6.875 7.875,12 15.25,12 8.62499,0 15.625,-7.00001 15.625,-15.625 0,-6.37499 -3.75001,-10.75 -7.625,-12.625 l 2.625,-1.875 0,-44.375 -20,0 0,46.25 c -6.125,4.25 -11.62501,8.12501 -16.25,12.5 l 0,-44.5 c 0,-8.99999 -7.25001,-16.25 -16.25,-16.25 m 0,10 c 3.49999,0 6.25,2.75001 6.25,6.25 0,3.5 -2.75001,6.25 -6.25,6.25 -3.5,0 -6.25,-2.75 -6.25,-6.25 0,-3.49999 2.75,-6.25 6.25,-6.25 m 41.875,44.625 c 3.49999,0 6.25,2.75001 6.25,6.25 0,3.5 -2.75001,6.25 -6.25,6.25 -3.5,0 -6.25,-2.75 -6.25,-6.25 0,-3.49999 2.75,-6.25 6.25,-6.25"
         id="path3000"
         inkscape:connector-curvature="0"
         style="fill:#333333;fill-opacity:1" />
      <path
         d="m 529.375,894.86218 -13.125,9 -11.875,-8.625 c -12.49999,3.875 -23.125,16.25002 -23.125,28.75 0,16.87499 4.625,20.75002 4.625,35.75 0,3.375 -0.25,7.25001 -0.875,12 l 19.375,0 c 0,-10.99999 24.375,-21.50002 24.375,-40.875 0,-6.87499 -5.62501,-12.5 -12.5,-12.5 -6.87499,0 -12.5,5.62501 -12.5,12.5 0,6.25 4.50001,11.375 10.375,12.375 -3,4 -8.625,8.25001 -12.625,11.625 -1.75,-10.24999 -4,-18.37501 -4,-30.875 0,-7.37499 1.375,-12.125 6.25,-16.375 l 12.5,8.125 12.5,-8.125 c 2.5,3.5 4.375,9.12501 4.375,16.375 l 0,47.75 18.125,0 0,-47.75 c 0,-14.24998 -10.25001,-25.75 -21.875,-29.125 m -13.125,30.375 c 3.125,0 5.625,2.50001 5.625,5.625 0,3.125 -2.5,5.625 -5.625,5.625 -3.125,0 -5.625,-2.5 -5.625,-5.625 0,-3.12499 2.5,-5.625 5.625,-5.625"
         id="path3002"
         inkscape:connector-curvature="0"
         style="fill:#333333;fill-opacity:1" />
      <path
         d="m 533.80859,850.48718 c -0.875,12.49999 -16.875,9.50002 -16.875,23.75 0,6.25 5.12501,11.25 11.375,11.25 6.125,0 11.25,-5 11.25,-11.25 0,-2.74999 -1,-5.25 -2.625,-7.25 6.875,-4.24999 10.75,-10.125 11.875,-16.5 l -15,0 m -5.5,19.5 c 2,0 3.75,1.625 3.75,3.75 0,2.125 -1.75,3.75 -3.75,3.75 -2.12499,0 -3.75,-1.625 -3.75,-3.75 0,-2.125 1.62501,-3.75 3.75,-3.75"
         id="path3004"
         inkscape:connector-curvature="0"
         style="fill:#333333;fill-opacity:1" />
    </g>
  </g>
</svg>
