<?xml version="1.0" encoding="UTF-8" standalone="no"?>
<!-- Created with Inkscape (http://www.inkscape.org/) -->

<svg
   xmlns:dc="http://purl.org/dc/elements/1.1/"
   xmlns:cc="http://creativecommons.org/ns#"
   xmlns:rdf="http://www.w3.org/1999/02/22-rdf-syntax-ns#"
   xmlns:svg="http://www.w3.org/2000/svg"
   xmlns="http://www.w3.org/2000/svg"
   xmlns:sodipodi="http://sodipodi.sourceforge.net/DTD/sodipodi-0.dtd"
   xmlns:inkscape="http://www.inkscape.org/namespaces/inkscape"
   width="600"
   height="240"
   id="svg2"
   version="1.1"
   inkscape:version="0.48.4 r9939"
   inkscape:export-filename="/home/sungsit/fonts/boon/img/boon-heading.png"
   inkscape:export-xdpi="90"
   inkscape:export-ydpi="90"
   sodipodi:docname="boon-heading.svg">
  <defs
     id="defs4" />
  <sodipodi:namedview
     id="base"
     pagecolor="#ffffff"
     bordercolor="#666666"
     borderopacity="1.0"
     inkscape:pageopacity="0.0"
     inkscape:pageshadow="2"
     inkscape:zoom="0.74270112"
     inkscape:cx="361.16208"
     inkscape:cy="120"
     inkscape:document-units="px"
     inkscape:current-layer="layer2"
     showgrid="false"
     inkscape:window-width="1317"
     inkscape:window-height="744"
     inkscape:window-x="49"
     inkscape:window-y="24"
     inkscape:window-maximized="1" />
  <metadata
     id="metadata7">
    <rdf:RDF>
      <cc:Work
         rdf:about="">
        <dc:format>image/svg+xml</dc:format>
        <dc:type
           rdf:resource="http://purl.org/dc/dcmitype/StillImage" />
        <dc:title />
      </cc:Work>
    </rdf:RDF>
  </metadata>
  <g
     inkscape:label="0.4"
     inkscape:groupmode="layer"
     id="layer1"
     transform="translate(0,-812.36218)"
     style="display:none">
    <g
       style="font-size:150px;font-style:normal;font-variant:normal;font-weight:bold;font-stretch:normal;line-height:125%;letter-spacing:0px;word-spacing:0px;fill:#333333;fill-opacity:1;stroke:none;font-family:Boon;-inkscape-font-specification:Boon Bold"
       id="text2985"
       transform="translate(0,-9.9999997e-6)">
      <path
         d="m 65,895.98718 c -8.999991,0 -16.25,7.25001 -16.25,16.25 0,7.62499 5.375007,14.125 12.5,15.75 l 0,20.25 c 0,20.24998 15.250017,25 31.875,25 16.62498,0 31.875,-4.75002 31.875,-25 l 0,-50.25 -20,0 0,50 c -0.125,9.74999 -6.000006,12.125 -11.875,12.125 -5.874994,0 -11.75,-2.37501 -11.875,-12.125 l 0,-35.75 c 0,-8.99999 -7.250009,-16.25 -16.25,-16.25 m 0,10 c 3.499996,0 6.25,2.75001 6.25,6.25 0,3.5 -2.750004,6.25 -6.25,6.25 -3.499997,0 -6.25,-2.75 -6.25,-6.25 0,-3.49999 2.750003,-6.25 6.25,-6.25"
         id="path2990"
         inkscape:connector-curvature="0"
         style="fill:#333333;fill-opacity:1" />
      <path
         d="m 109.41406,980.48718 c -6.49999,0 -11.874998,5.37501 -11.874998,11.875 0,5.875 4.375008,10.87502 9.999998,11.75002 l 0,10.125 13.75,0 0,-21.87502 c 0,-6.49999 -5.375,-11.875 -11.875,-11.875 m 0,7.5 c 2.375,0 4.375,2 4.375,4.375 0,2.375 -2,4.375 -4.375,4.375 -2.375,0 -4.375,-2 -4.375,-4.375 0,-2.375 2,-4.375 4.375,-4.375"
         id="path2992"
         inkscape:connector-curvature="0"
         style="fill:#333333;fill-opacity:1" />
      <path
         d="m 188.16406,980.48718 c -6.49999,0 -11.875,5.37501 -11.875,11.875 0,14.50002 14.00001,19.37502 25.625,19.37502 21.12498,0 30.625,-16.37503 30.625,-28.75002 l -15,0 c 0,6.875 -5.50001,18.75002 -15.625,18.75002 -2.74999,0 -4.75,-0.125 -5.875,-1.25 2.625,-1.62502 4,-5.00002 4,-8.12502 0,-6.49999 -5.375,-11.875 -11.875,-11.875 m 0,7.5 c 2.375,0 4.375,2 4.375,4.375 0,2.375 -2,4.375 -4.375,4.375 -2.375,0 -4.375,-2 -4.375,-4.375 0,-2.375 2,-4.375 4.375,-4.375 m 11.875,-35 0,-27.75 c 0,-21.12498 -17.12501,-30 -33.75,-30 -16.37498,0 -30.25,14.00001 -33.75,25.25 l 12.5,2.5 c 0,0 -6.25,4.50001 -6.25,15 l 0,19.5 c 0,8.24999 6.75001,15 15,15 8.24999,0 15,-6.75001 15,-15 0,-6.49999 -4.125,-12.125 -10,-14.125 l 0,-7.875 c 1,-7.62499 7.5,-15.625 7.5,-15.625 l -12.5,-3.125 c 2,-4.99999 7.50001,-7.75 12.5,-7.75 6.625,0 13.75,3.75002 13.75,16.25 l 0,30.25 c 0,4.75 4.50002,17.75 25,17.75 20.49998,0 25,-13 25,-17.75 l 0,-57.5 -20,0 0,55 c 0,3.5 -0.125,7.25 -5,7.25 -4.87499,0 -5,-3.75 -5,-7.25 m -46.25,-0.5 c 2.75,0 5,2.25001 5,5 0,2.75 -2.25,5 -5,5 -2.74999,0 -5,-2.25 -5,-5 0,-2.74999 2.25001,-5 5,-5"
         id="path2994"
         inkscape:connector-curvature="0"
         style="fill:#333333;fill-opacity:1" />
      <path
         d="m 251.38672,927.98718 0,31.25 c 0,10.37499 17.87501,13.25 25.625,13.25 l 8.125,-40.75 8.125,40.75 c 7.74999,0 25.625,-2.62501 25.625,-13.25 l 0,-95 -20,0 0,93.75 -10,-48.75 -7.5,0 -10,48.75 0,-45.75 c 0,-8.99999 -7.25001,-16.25 -16.25,-16.25 -8.99999,0 -16.25,7.25001 -16.25,16.25 0,7.62499 5.37501,14.125 12.5,15.75 m 3.75,-22 c 3.5,0 6.25,2.75001 6.25,6.25 0,3.5 -2.75,6.25 -6.25,6.25 -3.5,0 -6.25,-2.75 -6.25,-6.25 0,-3.49999 2.75,-6.25 6.25,-6.25"
         id="path2996"
         inkscape:connector-curvature="0"
         style="fill:#333333;fill-opacity:1" />
      <path
         d="m 360.01953,895.23718 c -19.12498,0 -31.25,12.12501 -31.25,22.25 l 20.625,0 c 0,-5.12499 3.62501,-9.75 10.625,-9.75 6.99999,0 11.25,5.25001 11.25,13.75 l 0,30.25 c -0.125,7.5 -5.25,9 -10,9 -4.24999,0 -8.875,-1.125 -9.875,-7 7.12499,-1.75 12.375,-8.12501 12.375,-15.75 0,-8.99999 -7.25001,-16.25 -16.25,-16.25 -8.99999,0 -16.25,7.25001 -16.25,16.25 l 0,10.25 c 0.125,20.24998 13.37502,25 30,25 16.62498,0 30,-4.75002 30,-25 l 0,-26.75 c 0,-13.87498 -12.12502,-26.25 -31.25,-26.25 m -12.5,36.5 c 3.5,0 6.25,2.75001 6.25,6.25 0,3.5 -2.75,6.25 -6.25,6.25 -3.5,0 -6.25,-2.75 -6.25,-6.25 0,-3.49999 2.75,-6.25 6.25,-6.25"
         id="path2998"
         inkscape:connector-curvature="0"
         style="fill:#333333;fill-opacity:1" />
      <path
         d="m 417.44141,895.98718 c -8.99999,0 -16.25,7.25001 -16.25,16.25 0,7.62499 5.375,14.125 12.5,15.75 l 0,31.25 c 0,7.87499 8.625,13.25 16.25,13.25 2.37499,-3.24999 9.875,-8.5 14.125,-12 1.74999,6.875 7.875,12 15.25,12 8.62499,0 15.625,-7.00001 15.625,-15.625 0,-6.37499 -3.75001,-10.75 -7.625,-12.625 l 2.625,-1.875 0,-44.375 -20,0 0,46.25 c -6.125,4.25 -11.62501,8.12501 -16.25,12.5 l 0,-44.5 c 0,-8.99999 -7.25001,-16.25 -16.25,-16.25 m 0,10 c 3.49999,0 6.25,2.75001 6.25,6.25 0,3.5 -2.75001,6.25 -6.25,6.25 -3.5,0 -6.25,-2.75 -6.25,-6.25 0,-3.49999 2.75,-6.25 6.25,-6.25 m 41.875,44.625 c 3.49999,0 6.25,2.75001 6.25,6.25 0,3.5 -2.75001,6.25 -6.25,6.25 -3.5,0 -6.25,-2.75 -6.25,-6.25 0,-3.49999 2.75,-6.25 6.25,-6.25"
         id="path3000"
         inkscape:connector-curvature="0"
         style="fill:#333333;fill-opacity:1" />
      <path
         d="m 529.375,894.86218 -13.125,9 -11.875,-8.625 c -12.49999,3.875 -23.125,16.25002 -23.125,28.75 0,16.87499 4.625,20.75002 4.625,35.75 0,3.375 -0.25,7.25001 -0.875,12 l 19.375,0 c 0,-10.99999 24.375,-21.50002 24.375,-40.875 0,-6.87499 -5.62501,-12.5 -12.5,-12.5 -6.87499,0 -12.5,5.62501 -12.5,12.5 0,6.25 4.50001,11.375 10.375,12.375 -3,4 -8.625,8.25001 -12.625,11.625 -1.75,-10.24999 -4,-18.37501 -4,-30.875 0,-7.37499 1.375,-12.125 6.25,-16.375 l 12.5,8.125 12.5,-8.125 c 2.5,3.5 4.375,9.12501 4.375,16.375 l 0,47.75 18.125,0 0,-47.75 c 0,-14.24998 -10.25001,-25.75 -21.875,-29.125 m -13.125,30.375 c 3.125,0 5.625,2.50001 5.625,5.625 0,3.125 -2.5,5.625 -5.625,5.625 -3.125,0 -5.625,-2.5 -5.625,-5.625 0,-3.12499 2.5,-5.625 5.625,-5.625"
         id="path3002"
         inkscape:connector-curvature="0"
         style="fill:#333333;fill-opacity:1" />
      <path
         d="m 533.80859,850.48718 c -0.875,12.49999 -16.875,9.50002 -16.875,23.75 0,6.25 5.12501,11.25 11.375,11.25 6.125,0 11.25,-5 11.25,-11.25 0,-2.74999 -1,-5.25 -2.625,-7.25 6.875,-4.24999 10.75,-10.125 11.875,-16.5 l -15,0 m -5.5,19.5 c 2,0 3.75,1.625 3.75,3.75 0,2.125 -1.75,3.75 -3.75,3.75 -2.12499,0 -3.75,-1.625 -3.75,-3.75 0,-2.125 1.62501,-3.75 3.75,-3.75"
         id="path3004"
         inkscape:connector-curvature="0"
         style="fill:#333333;fill-opacity:1" />
    </g>
  </g>
  <g
     inkscape:groupmode="layer"
     id="layer2"
     inkscape:label="0.5"
     style="display:inline">
    <g
       style="font-size:200px;font-style:normal;font-variant:normal;font-weight:bold;font-stretch:normal;line-height:125%;letter-spacing:0px;word-spacing:0px;fill:#000000;fill-opacity:1;stroke:none;font-family:Boon;-inkscape-font-specification:Boon Bold"
       id="text2992"
       transform="matrix(0.74675886,0,0,0.74675886,-21.917521,28.806525)">
      <path
         d="m 147.85714,74.285706 0,71.666664 c 0,9.49999 -8.66667,11.66667 -17.5,11.66667 -8.83332,0 -17.5,-2.16668 -17.5,-11.66667 l 0,-51.666664 c 0,-11.999988 -9.66668,-21.666667 -21.666663,-21.666667 -11.999988,0 -21.666667,9.666679 -21.666667,21.666667 0,10.833324 8.00001,19.833334 18.333333,21.333334 l 0,30.33333 c 0,22.66665 16.166697,31.66667 42.499997,31.66667 26.33331,0 42.5,-9.00002 42.5,-31.66667 l 0,-71.666664 -25,0 M 91.190477,85.952372 c 4.666662,0 8.333333,3.666672 8.333333,8.333334 0,4.666662 -3.666671,8.333334 -8.333333,8.333334 -4.666662,0 -8.333334,-3.666672 -8.333334,-8.333334 0,-4.666662 3.666672,-8.333334 8.333334,-8.333334"
         id="path2997"
         inkscape:connector-curvature="0" />
      <path
         d="m 154.44569,193.45237 c 4.16666,0 7.5,3.33334 7.5,7.5 0,4.16666 -3.33334,7.5 -7.5,7.5 -4.16667,0 -7.5,-3.33334 -7.5,-7.5 0,-4.16666 3.33333,-7.5 7.5,-7.5 m -5,23.33334 0,15.83333 21.66666,0 0,-31.66667 c 0,-9.16666 -7.50001,-16.66666 -16.66666,-16.66666 -9.16666,0 -16.66667,7.5 -16.66667,16.66666 0,7.49999 4.83334,13.83334 11.66667,15.83334"
         id="path2999"
         inkscape:connector-curvature="0" />
      <path
         d="m 272.77902,192.61904 c 3.83333,0 6.66667,3 6.66667,6.66667 0,3.66666 -2.83334,6.66666 -6.66667,6.66666 -3.66666,0 -6.66667,-3 -6.66667,-6.66666 0,-3.66667 3.00001,-6.66667 6.66667,-6.66667 m 0,-8.33333 c -8.16666,0 -15,6.66667 -15,15 0,11.66665 11.33335,24.16666 33.33333,24.16666 22.83331,0 38.33334,-13.66669 38.33334,-35 l -20,0 c 0,13.16666 -5.16668,20.83334 -18.33334,20.83334 -2,0 -4.16667,-0.16667 -6.33333,-0.83334 2,-2.5 3,-5.66667 3,-9.16666 0,-8.33333 -6.66668,-15 -15,-15 m -48.33333,-49.66667 0,-7 c 0,-17.83332 11.66666,-18.33333 11.66666,-18.33333 l 0,-3.33334 -20.83333,-4.66666 c 4.49999,-6.499998 13.83334,-10.333338 24.16667,-10.333338 9.16665,0 20,4.500012 20,16.666668 l 0,45 c 0,6.33333 1.66669,25 34.16666,25 32.49997,0 34.16667,-18.66667 34.16667,-25 l 0,-78.333334 -25,0 0,78.333334 c 0,3.83333 -2.83334,6.66667 -9.16667,6.66667 -6.33333,0 -9.16666,-2.83334 -9.16666,-6.66667 l 0,-45 c 0,-22.666645 -19.83336,-36.666668 -45,-36.666668 -31.33331,0 -45.00001,21.166679 -48.33334,33.333338 l 17.33334,4.83333 c -3.83333,2 -9,6.83334 -9,18.5 l 0,27.5 c 0,11.49999 9.33334,20.83333 20.83333,20.83333 11.49999,0 20.83333,-9.33334 20.83333,-20.83333 0,-9.99999 -7.16667,-18.5 -16.66666,-20.5 m -4.16667,13 c 4.16666,0 7.5,3.33334 7.5,7.5 0,4.16666 -3.33334,7.5 -7.5,7.5 -4.16666,0 -7.5,-3.33334 -7.5,-7.5 0,-4.16666 3.33334,-7.5 7.5,-7.5"
         id="path3001"
         inkscape:connector-curvature="0" />
      <path
         d="m 431.19048,34.285706 0,40 25,0 0,-40 -25,0 m 0,40 0,80.166664 -15.83334,-61.833331 -11.66666,0 -15.83334,61.833331 0,-60.166664 c 0,-11.999988 -9.66668,-21.666667 -21.66666,-21.666667 -11.99999,0 -21.66667,9.666679 -21.66667,21.666667 0,10.833324 8.00001,19.833334 18.33333,21.333334 l 0,45.33333 c 0,11.83332 15.16669,15 33.33334,15 l 13.33333,-58 13.33333,58 c 18.16665,0 33.33334,-3.16668 33.33334,-15 l 0,-86.666664 -25,0 m -65,11.666666 c 4.66666,0 8.33333,3.666672 8.33333,8.333334 0,4.666662 -3.66667,8.333334 -8.33333,8.333334 -4.66667,0 -8.33334,-3.666672 -8.33334,-8.333334 0,-4.666662 3.66667,-8.333334 8.33334,-8.333334"
         id="path3003"
         inkscape:connector-curvature="0" />
      <path
         d="m 499.60194,123.45237 c 4.16666,0 7.5,3.33334 7.5,7.5 0,4.16666 -3.33334,7.5 -7.5,7.5 -4.16667,0 -7.5,-3.33334 -7.5,-7.5 0,-4.16666 3.33333,-7.5 7.5,-7.5 m 0,-12.5 c -10.99999,0 -20,9.00001 -20,20 l 0,15 c 0,22.66665 18.33335,31.66667 42.5,31.66667 24.16664,0 42.5,-9.00002 42.5,-31.66667 l 0,-41.66666 c 0,-19.166652 -16.33337,-33.333338 -44.16667,-33.333338 -27.83331,0 -44.16667,14.166686 -44.16667,33.333338 l 25,0 c 0,-8.499996 6.66668,-13.333338 19.16667,-13.333338 12.49999,0 19.16667,4.833342 19.16667,13.333338 l 0,41.66666 c 0,8.49999 -7.00002,13.33334 -17.5,13.33334 -9,0 -16.66667,-1.00001 -18.66667,-8.66667 9.16666,-1.83333 16.16667,-10.00001 16.16667,-19.66667 0,-10.99999 -9.00002,-20 -20,-20"
         id="path3005"
         inkscape:connector-curvature="0" />
      <path
         d="m 661.13839,145.11904 c 5,0 9.16667,4.16667 9.16667,9.16667 0,4.99999 -4.16667,9.16666 -9.16667,9.16666 -4.99999,0 -9.16666,-4.16667 -9.16666,-9.16666 0,-5 4.16667,-9.16667 9.16666,-9.16667 M 604.47173,85.952372 c 4.66666,0 8.33333,3.666672 8.33333,8.333334 0,4.666662 -3.66667,8.333334 -8.33333,8.333334 -4.66667,0 -8.33334,-3.666672 -8.33334,-8.333334 0,-4.666662 3.66667,-8.333334 8.33334,-8.333334 m 33.5,71.666668 c 1.66666,11.33332 11.33334,20 23.16666,20 12.83332,0 23.33334,-10.50001 23.33334,-23.33333 0,-8.66666 -4.66668,-16.16668 -11.5,-20.16667 l 3.16666,-1.5 0,-58.333334 -25,0 0,57.000004 c -10.66665,3.83333 -19.16667,12.66667 -25,21.66666 l 0,-58.666664 c 0,-11.999988 -9.66668,-21.666667 -21.66666,-21.666667 -11.99999,0 -21.66667,9.666679 -21.66667,21.666667 0,10.833324 8.00001,19.833334 18.33333,21.333334 l 0,48.66667 c 0,7.49999 10.66669,11.66666 26.66667,11.66666 0,0 3.33334,-9.66667 10.16667,-18.33333"
         id="path3007"
         inkscape:connector-curvature="0" />
      <path
         d="m 745.98214,115.11904 c 4.16667,0 7.5,3.33334 7.5,7.5 0,4.16666 -3.33333,7.5 -7.5,7.5 -4.16666,0 -7.5,-3.33334 -7.5,-7.5 0,-4.16666 3.33334,-7.5 7.5,-7.5 m 0,-7.5 c -8.33332,0 -15,6.66667 -15,15 0,7.66666 5.66668,14 13.16667,14.83333 -4,6.16666 -9.66667,10.83334 -15,15.66667 -0.66667,-15.49999 -4.83333,-27.16669 -4.83333,-47.16667 0,-11.166653 7.5,-14.999998 7.5,-14.999998 l 14.16666,9.166668 14.16667,-9.166668 c 0,0 7.5,3.833345 7.5,14.999998 l 0,68.33334 25,0 0,-68.33334 c 0,-23.999974 -21.00001,-34.999998 -30.83333,-34.999998 L 745.98214,81.785706 730.14881,70.952372 c -9.83332,0 -30.83333,11.000024 -30.83333,34.999998 0,22.49998 5,28.00002 5,45 0,10.16666 -3.33334,18.33334 -3.33334,18.33334 0.16667,5.99999 31.66667,6.66666 31.66667,6.66666 0,-13.99998 28.33333,-29.83335 28.33333,-53.33333 0,-8.33333 -6.66667,-15 -15,-15"
         id="path3009"
         inkscape:connector-curvature="0" />
      <path
         d="m 770.20089,11.619039 c 0,11.333322 -20.83333,16.500016 -20.83333,32.666667 0,8.166658 6.66668,15 15,15 8.33333,0 15,-6.833342 15,-15 0,-4.166663 -1.66667,-7.833337 -4.33333,-10.666667 6.49999,-5.833328 16,-11.166678 16,-22 l -20.83334,0 m -5.83333,27.666667 c 3.16666,0 5.83333,2.500003 5.83333,5.666666 0,3.33333 -2.66667,6 -5.83333,6 -3.16666,0 -5.83333,-2.66667 -5.83333,-6 0,-3.166663 2.66667,-5.666666 5.83333,-5.666666"
         id="path3011"
         inkscape:connector-curvature="0" />
    </g>
  </g>
</svg>
