<?xml version="1.0" encoding="UTF-8" standalone="no"?>
<!-- Created with Inkscape (http://www.inkscape.org/) -->

<svg
   xmlns:dc="http://purl.org/dc/elements/1.1/"
   xmlns:cc="http://creativecommons.org/ns#"
   xmlns:rdf="http://www.w3.org/1999/02/22-rdf-syntax-ns#"
   xmlns:svg="http://www.w3.org/2000/svg"
   xmlns="http://www.w3.org/2000/svg"
   xmlns:sodipodi="http://sodipodi.sourceforge.net/DTD/sodipodi-0.dtd"
   xmlns:inkscape="http://www.inkscape.org/namespaces/inkscape"
   width="800"
   height="800"
   id="svg2"
   version="1.1"
   inkscape:version="0.48.4 r9939"
   sodipodi:docname="favicon.svg"
   inkscape:export-filename="/home/sungsit/fonts/boon/img/favicon.png"
   inkscape:export-xdpi="90"
   inkscape:export-ydpi="90">
  <defs
     id="defs4" />
  <sodipodi:namedview
     id="base"
     pagecolor="#ffffff"
     bordercolor="#666666"
     borderopacity="1.0"
     inkscape:pageopacity="0.0"
     inkscape:pageshadow="2"
     inkscape:zoom="0.35"
     inkscape:cx="-305"
     inkscape:cy="62.857147"
     inkscape:document-units="px"
     inkscape:current-layer="layer2"
     showgrid="false"
     inkscape:showpageshadow="false"
     inkscape:window-width="1317"
     inkscape:window-height="744"
     inkscape:window-x="49"
     inkscape:window-y="24"
     inkscape:window-maximized="1" />
  <metadata
     id="metadata7">
    <rdf:RDF>
      <cc:Work
         rdf:about="">
        <dc:format>image/svg+xml</dc:format>
        <dc:type
           rdf:resource="http://purl.org/dc/dcmitype/StillImage" />
        <dc:title />
      </cc:Work>
    </rdf:RDF>
  </metadata>
  <g
     inkscape:label="bold"
     inkscape:groupmode="layer"
     id="layer1"
     transform="translate(0,-252.36218)"
     style="display:none">
    <g
       style="font-size:1200px;font-style:normal;font-variant:normal;font-weight:bold;font-stretch:normal;line-height:125%;letter-spacing:0px;word-spacing:0px;fill:#000000;fill-opacity:1;stroke:none;font-family:Boon;-inkscape-font-specification:Boon Bold"
       id="text2985"
       transform="translate(-14.999999,1)">
      <path
         d="m 225,343.36218 c -71.99993,0 -130.000001,58.00007 -130.000001,130 0,60.99994 43.000061,113.00001 100.000001,126 l 0,162 c 0,161.99984 122.00013,200 255,200 132.99987,0 255,-38.00016 255,-200 l 0,-402 -160,0 0,400 c -1,77.99992 -48.00005,97 -95,97 -46.99995,0 -94,-19.00008 -95,-97 l 0,-286 c 0,-71.99993 -58.00007,-130 -130,-130 m 0,80 c 27.99997,0 50,22.00003 50,50 0,27.99997 -22.00003,50 -50,50 -27.99997,0 -50,-22.00003 -50,-50 0,-27.99997 22.00003,-50 50,-50"
         id="path2990"
         inkscape:connector-curvature="0" />
    </g>
  </g>
  <g
     transform="translate(0,-252.36218)"
     id="g3012"
     inkscape:groupmode="layer"
     inkscape:label="big bold"
     style="display:none">
    <g
       transform="matrix(2,0,0,2,-69.999998,-330.36218)"
       id="g3014"
       style="font-size:1200px;font-style:normal;font-variant:normal;font-weight:bold;font-stretch:normal;line-height:125%;letter-spacing:0px;word-spacing:0px;fill:#000000;fill-opacity:1;stroke:none;font-family:Boon;-inkscape-font-specification:Boon Bold">
      <path
         inkscape:connector-curvature="0"
         id="path3016"
         d="m 225,343.36218 c -71.99993,0 -130.000001,58.00007 -130.000001,130 0,60.99994 43.000061,113.00001 100.000001,126 l 0,162 c 0,161.99984 122.00013,200 255,200 132.99987,0 255,-38.00016 255,-200 l 0,-402 -160,0 0,400 c -1,77.99992 -48.00005,97 -95,97 -46.99995,0 -94,-19.00008 -95,-97 l 0,-286 c 0,-71.99993 -58.00007,-130 -130,-130 m 0,80 c 27.99997,0 50,22.00003 50,50 0,27.99997 -22.00003,50 -50,50 -27.99997,0 -50,-22.00003 -50,-50 0,-27.99997 22.00003,-50 50,-50" />
    </g>
  </g>
  <g
     inkscape:groupmode="layer"
     id="layer2"
     inkscape:label="0.6">
    <path
       inkscape:connector-curvature="0"
       d="m 1173.9688,70.803627 0,970.967773 c 0,128.7094 -117.4195,158.0645 -237.0967,158.0645 -119.67744,0 -237.09678,-29.3551 -237.09678,-158.0645 l 0,-700.00004 c 0,-162.58047 -130.96791,-293.548383 -293.54838,-293.548383 -162.58046,0 -293.54837,130.967913 -293.54837,293.548383 0,146.77402 108.3871,268.70968 248.38709,289.03225 l 0,410.96779 c 0,307.0964 219.03261,429.0322 575.80644,429.0322 356.7738,0 575.8064,-121.9358 575.8064,-429.0322 l 0,-970.967773 -338.7097,0 M 406.22694,228.86814 c 63.22564,0 112.90324,49.67743 112.90324,112.90322 0,63.2258 -49.6776,112.90321 -112.90324,112.90321 -63.2258,0 -112.90321,-49.67741 -112.90321,-112.90321 0,-63.22579 49.67741,-112.90322 112.90321,-112.90322"
       style="font-size:150px;font-style:normal;font-variant:normal;font-weight:bold;font-stretch:normal;line-height:125%;letter-spacing:0px;word-spacing:0px;fill:#1a1a1a;fill-opacity:1;stroke:none;font-family:Boon;-inkscape-font-specification:Boon Bold"
       id="path3008" />
  </g>
</svg>
